if (_typeface_js && _typeface_js.loadFace) _typeface_js.loadFace({"glyphs":{"0":{"ha":524,"x_min":37,"x_max":486,"o":"m 486 353 q 481 425 486 386 q 466 504 477 464 q 438 580 455 543 q 396 645 421 617 q 339 691 372 673 q 264 708 306 708 q 188 690 221 708 q 130 643 155 673 q 87 575 104 614 q 58 497 69 537 q 42 416 47 456 q 37 343 37 376 q 42 272 37 311 q 58 193 47 233 q 86 116 69 153 q 128 51 104 79 q 185 5 153 22 q 258 -12 218 -12 q 336 5 302 -12 q 395 52 370 23 q 438 119 420 81 q 466 197 455 157 q 481 278 477 237 q 486 353 486 318 m 386 370 q 385 314 386 348 q 381 241 385 280 q 370 163 377 203 q 348 93 362 124 q 313 41 334 61 q 261 21 292 21 q 212 38 232 21 q 177 83 191 56 q 156 146 163 111 q 144 215 148 181 q 139 280 140 250 q 138 330 138 311 q 139 383 138 350 q 143 454 140 416 q 155 532 147 492 q 177 603 163 571 q 212 655 191 635 q 262 675 233 675 q 312 658 292 675 q 347 613 333 641 q 368 552 360 586 q 380 484 376 518 q 385 420 384 450 q 386 370 386 389 "},"1":{"ha":524,"x_min":122,"x_max":396,"o":"m 135 0 l 396 0 l 396 20 q 346 24 363 20 q 321 41 329 29 q 311 73 313 53 q 310 122 310 92 l 310 708 l 292 708 l 122 625 l 131 610 q 156 620 142 615 q 183 625 170 625 q 207 616 198 625 q 219 592 215 608 q 224 557 223 577 q 225 513 225 536 l 225 122 q 223 72 225 92 q 213 40 222 52 q 186 24 205 28 q 135 20 168 20 l 135 0 "},"2":{"ha":524,"x_min":24,"x_max":481,"o":"m 431 0 l 481 134 l 461 134 q 433 103 448 114 q 402 86 419 92 q 363 79 385 81 q 313 78 342 78 l 132 78 q 212 160 174 117 q 290 245 251 203 q 341 304 315 272 q 389 373 368 337 q 424 448 410 410 q 437 525 437 486 q 421 600 437 566 q 378 657 405 633 q 315 695 351 682 q 240 708 279 708 q 161 693 195 708 q 102 652 126 678 q 63 590 77 626 q 43 513 48 554 l 61 513 q 117 598 80 567 q 214 629 154 629 q 271 617 245 629 q 313 584 296 604 q 340 535 331 563 q 350 478 350 508 q 335 397 350 438 q 294 315 319 356 q 235 234 269 274 q 165 156 201 193 q 92 83 129 118 q 24 20 56 49 l 24 0 l 431 0 "},"3":{"ha":524,"x_min":43,"x_max":437,"o":"m 437 229 q 405 342 437 297 q 309 411 372 388 q 341 443 325 426 q 371 480 358 460 q 393 522 385 500 q 401 567 401 543 q 388 628 401 602 q 352 672 374 654 q 300 699 330 690 q 240 708 271 708 q 174 697 202 708 q 123 666 145 686 q 85 619 102 646 q 53 561 68 592 l 71 553 q 126 613 94 589 q 203 637 159 637 q 250 629 229 637 q 286 604 271 620 q 309 567 300 589 q 317 521 317 546 q 304 460 317 488 q 269 411 291 432 q 219 377 248 390 q 160 359 191 363 l 160 343 q 239 332 202 342 q 302 300 275 321 q 345 245 330 279 q 361 167 361 212 q 351 116 361 140 q 324 73 341 92 q 283 43 307 54 q 232 32 259 32 q 189 39 208 32 q 151 56 169 47 q 116 72 133 64 q 83 79 100 79 q 56 69 68 79 q 43 43 43 58 q 56 12 43 23 q 89 -4 70 1 q 129 -11 108 -9 q 163 -12 149 -12 q 269 3 219 -12 q 356 48 319 18 q 416 124 394 79 q 437 229 437 169 "},"4":{"ha":524,"x_min":17,"x_max":486,"o":"m 395 183 l 486 183 l 486 256 l 395 256 l 395 708 l 339 708 l 17 248 l 17 183 l 310 183 l 310 0 l 395 0 l 395 183 m 310 600 l 310 256 l 66 256 l 310 600 "},"5":{"ha":524,"x_min":50,"x_max":454,"o":"m 415 606 l 454 693 l 207 693 l 74 424 q 178 409 125 422 q 276 368 232 395 q 348 299 320 341 q 376 196 376 256 q 365 136 376 164 q 333 86 353 108 q 286 53 313 65 q 227 40 258 40 q 186 48 204 40 q 152 66 168 56 q 121 85 136 77 q 90 93 106 93 q 61 84 71 93 q 50 56 50 75 q 63 21 50 34 q 94 0 76 7 q 133 -9 113 -7 q 170 -12 154 -12 q 273 8 224 -12 q 360 63 323 28 q 420 146 398 98 q 443 250 443 195 q 418 353 443 307 q 354 433 394 399 q 263 488 314 467 q 160 514 212 509 l 207 606 l 415 606 "},"6":{"ha":524,"x_min":46,"x_max":484,"o":"m 484 233 q 472 309 484 272 q 438 374 460 345 q 383 420 416 403 q 309 437 351 437 q 231 423 268 437 q 160 386 193 409 q 200 496 174 444 q 265 591 227 549 q 355 659 304 633 q 469 689 406 685 l 469 708 l 440 708 q 333 690 384 708 q 238 642 282 673 q 159 569 195 611 q 98 479 123 528 q 60 378 73 431 q 46 272 46 325 q 59 174 46 224 q 99 82 73 123 q 167 14 126 41 q 262 -12 208 -12 q 353 8 313 -12 q 423 64 394 29 q 468 142 452 98 q 484 233 484 186 m 392 178 q 386 124 392 152 q 366 72 380 96 q 331 33 353 48 q 278 17 309 17 q 233 28 253 17 q 199 57 214 39 q 173 98 184 75 q 155 146 162 121 q 145 195 149 171 q 142 239 142 219 q 145 294 142 267 q 151 350 148 321 q 175 364 161 356 q 203 378 189 372 q 232 389 217 385 q 258 393 246 393 q 325 371 298 393 q 366 317 351 349 q 386 247 380 284 q 392 178 392 209 "},"7":{"ha":524,"x_min":39,"x_max":475,"o":"m 244 -16 l 475 675 l 475 693 l 106 693 l 39 529 l 53 525 q 82 568 68 551 q 114 593 96 584 q 153 606 131 603 q 205 610 175 610 l 396 610 l 189 -16 l 244 -16 "},"8":{"ha":524,"x_min":62,"x_max":464,"o":"m 464 164 q 451 229 464 199 q 415 286 437 259 q 365 336 393 312 q 306 385 336 361 q 354 416 329 399 q 400 455 379 433 q 435 502 421 476 q 449 558 449 528 q 432 624 449 595 q 388 671 415 652 q 328 699 361 690 q 262 708 295 708 q 191 697 226 708 q 130 665 157 686 q 87 613 103 644 q 71 543 71 583 q 80 487 71 512 q 107 439 90 462 q 148 395 124 417 q 201 349 172 373 q 154 312 178 332 q 109 268 130 292 q 76 216 89 244 q 62 158 62 189 q 80 86 62 118 q 125 33 97 55 q 190 -1 154 11 q 262 -12 226 -12 q 339 -1 302 -12 q 404 32 376 10 q 448 87 431 54 q 464 164 464 120 m 375 564 q 369 517 375 538 q 350 477 362 496 q 320 441 338 459 q 282 404 303 424 q 233 442 257 422 q 189 483 208 462 q 158 527 170 504 q 146 576 146 550 q 155 620 146 602 q 181 652 165 639 q 218 671 197 665 q 262 677 239 677 q 375 564 375 677 m 390 122 q 380 77 390 96 q 354 44 370 57 q 315 24 337 31 q 269 17 294 17 q 214 28 237 17 q 174 59 190 40 q 150 105 158 79 q 142 160 142 131 q 164 255 142 212 q 225 330 186 297 q 291 277 261 302 q 343 227 321 252 q 378 176 366 201 q 390 122 390 151 "},"9":{"ha":524,"x_min":41,"x_max":478,"o":"m 478 422 q 464 521 478 470 q 423 613 450 572 q 354 681 395 654 q 258 708 313 708 q 168 686 208 708 q 99 630 127 665 q 56 550 71 595 q 41 460 41 505 q 53 383 41 420 q 87 317 64 346 q 143 270 110 288 q 218 253 176 253 q 295 269 258 253 q 364 306 332 284 q 323 196 350 250 q 258 100 297 142 q 169 32 220 58 q 56 4 118 5 l 56 -16 l 85 -16 q 192 2 140 -16 q 286 51 243 20 q 365 124 330 82 q 426 215 401 166 q 465 317 451 264 q 478 422 478 370 m 382 449 q 379 395 382 421 q 372 343 376 369 q 351 326 366 334 q 320 311 337 317 q 287 302 303 305 q 260 298 271 298 q 197 321 222 298 q 159 376 173 343 q 139 446 144 409 q 134 513 134 484 q 139 567 134 538 q 158 619 145 595 q 192 659 171 643 q 245 675 214 675 q 291 664 271 675 q 327 634 311 652 q 352 591 342 615 q 369 543 363 568 q 379 493 376 517 q 382 449 382 469 "}," ":{"ha":347,"x_min":0,"x_max":0,"o":""},"!":{"ha":376,"x_min":129,"x_max":248,"o":"m 245 568 q 229 641 245 616 q 187 665 213 665 q 147 641 163 665 q 131 568 131 616 q 137 478 131 524 q 154 376 144 433 q 161 338 158 353 q 166 310 164 323 q 170 282 169 296 q 172 247 172 268 q 173 196 173 227 q 174 118 174 165 q 178 113 174 115 q 188 111 182 111 q 198 113 193 111 q 203 118 203 115 q 203 196 203 165 q 204 247 203 227 q 206 282 205 268 q 210 310 208 296 q 215 338 212 323 q 222 376 218 353 q 239 478 233 433 q 245 568 245 524 m 248 9 q 230 52 248 35 q 187 69 213 69 q 164 64 175 69 q 146 52 154 60 q 134 33 138 43 q 129 9 129 22 q 134 -13 129 -3 q 146 -32 138 -24 q 164 -44 154 -39 q 187 -49 175 -49 q 211 -44 200 -49 q 230 -32 222 -39 q 243 -13 238 -24 q 248 9 248 -3 "},"\"":{"ha":427,"x_min":68,"x_max":358,"o":"m 358 654 q 345 693 358 677 q 307 708 331 708 q 266 691 277 708 q 254 647 254 675 q 259 590 254 621 q 270 527 264 559 q 283 464 277 494 q 294 411 290 434 l 319 411 q 332 470 325 439 q 344 532 338 500 q 354 594 350 563 q 358 654 358 625 m 171 654 q 157 693 171 677 q 119 708 143 708 q 79 691 90 708 q 68 647 68 673 q 72 589 68 619 q 83 527 77 558 q 96 467 89 496 q 109 411 103 437 l 129 411 q 139 460 132 429 q 153 527 146 492 q 165 597 160 563 q 171 654 171 631 "},"#":{"ha":524,"x_min":18,"x_max":505,"o":"m 366 218 l 505 218 l 505 261 l 375 261 l 411 436 l 505 436 l 505 476 l 418 476 l 467 708 l 424 708 l 375 476 l 203 476 l 248 708 l 207 708 l 160 476 l 18 476 l 18 436 l 150 436 l 114 261 l 18 261 l 18 218 l 106 218 l 58 -16 l 102 -16 l 150 218 l 323 218 l 277 -16 l 318 -16 l 366 218 m 193 436 l 368 436 l 332 261 l 157 261 l 193 436 "},"$":{"ha":524,"x_min":56,"x_max":471,"o":"m 471 172 q 451 250 471 215 q 400 313 431 284 q 335 365 370 341 q 269 411 300 389 l 269 671 q 377 620 342 663 q 418 507 412 577 l 437 507 l 437 660 q 395 675 416 668 q 355 689 375 683 q 313 700 334 696 q 269 705 292 704 l 269 753 l 236 753 l 236 705 q 169 691 201 703 q 111 658 136 679 q 71 607 86 637 q 56 539 56 577 q 72 467 56 498 q 113 409 87 435 q 171 360 138 382 q 236 317 203 338 l 236 20 q 125 62 166 26 q 78 171 83 99 l 56 171 l 56 26 q 144 -3 98 7 q 236 -16 190 -13 l 236 -79 l 269 -79 l 269 -16 q 345 1 309 -13 q 409 39 381 15 q 454 97 437 63 q 471 172 471 130 m 236 671 l 236 433 q 200 458 218 444 q 168 490 182 473 q 144 527 153 507 q 135 571 135 547 q 143 612 135 595 q 164 642 151 630 q 196 661 178 654 q 236 671 214 667 m 390 147 q 381 99 390 121 q 355 59 372 77 q 317 32 339 42 q 269 20 295 21 l 269 294 q 311 265 290 281 q 350 232 332 250 q 379 193 368 214 q 390 147 390 172 "},"%":{"ha":905,"x_min":79,"x_max":827,"o":"m 827 260 q 818 304 827 283 q 795 341 810 326 q 760 366 780 357 q 715 375 739 375 q 657 365 686 375 q 603 337 629 355 q 557 295 578 319 q 520 244 536 271 q 496 187 505 216 q 488 129 488 157 q 519 23 488 61 q 621 -16 550 -16 q 681 -3 653 -16 q 732 31 709 9 q 772 80 755 52 q 802 138 790 108 q 821 200 814 169 q 827 260 827 231 m 277 -16 l 682 711 l 632 711 q 562 656 602 673 q 473 639 521 639 q 422 648 442 639 q 386 667 403 656 q 351 687 369 678 q 306 696 333 696 q 220 673 261 696 q 148 614 180 650 q 98 534 117 578 q 79 447 79 490 q 86 389 79 415 q 107 343 93 362 q 146 313 122 324 q 204 302 170 302 q 262 314 235 302 q 314 347 290 326 q 357 394 338 367 q 391 450 377 420 q 412 509 404 479 q 419 567 419 540 q 415 595 419 581 q 411 624 411 609 q 437 617 424 618 q 464 615 450 615 q 530 622 498 615 q 593 643 562 629 l 227 -16 l 277 -16 m 800 254 q 795 207 800 233 q 779 155 789 181 q 754 103 769 128 q 721 59 739 79 q 680 28 702 40 q 632 17 657 17 q 582 37 597 17 q 567 90 567 57 q 572 137 567 111 q 587 191 577 163 q 611 246 597 219 q 643 295 625 273 q 682 329 661 316 q 726 342 703 342 q 759 334 745 342 q 782 314 772 326 q 795 286 791 302 q 800 254 800 271 m 392 582 q 387 533 392 559 q 372 479 382 507 q 348 427 362 452 q 314 382 333 402 q 273 351 296 363 q 225 339 251 339 q 174 361 189 339 q 160 416 160 383 q 176 511 160 466 q 220 595 191 556 q 237 616 227 604 q 259 639 248 628 q 284 658 271 650 q 310 665 297 665 q 324 661 315 665 q 344 650 334 656 q 365 638 355 644 q 383 631 376 633 q 388 606 385 620 q 392 582 392 593 "},"&":{"ha":815,"x_min":39,"x_max":782,"o":"m 782 125 l 764 138 q 731 82 754 101 q 669 62 708 62 q 626 72 647 62 q 585 95 604 81 q 548 125 565 109 q 517 158 531 142 q 571 233 546 195 q 619 311 597 271 q 632 334 625 321 q 649 362 640 348 q 667 388 658 376 q 685 407 677 400 q 700 416 692 412 q 718 422 709 420 q 734 425 726 424 q 749 427 743 427 l 749 446 l 533 446 l 533 427 q 554 421 545 427 q 570 408 564 416 q 579 390 576 400 q 582 370 582 380 q 573 321 582 346 q 552 273 565 296 q 523 228 539 250 q 493 189 507 207 q 421 292 454 239 q 357 400 387 345 q 414 431 384 414 q 468 470 444 448 q 509 520 493 492 q 525 585 525 549 q 514 637 525 614 q 484 676 503 661 q 439 700 465 692 q 386 708 414 708 q 315 696 348 708 q 259 663 283 685 q 222 610 235 642 q 208 541 208 579 q 221 462 208 502 q 252 387 235 422 q 178 344 216 369 q 110 288 140 319 q 59 219 79 257 q 39 138 39 182 q 55 71 39 100 q 96 22 71 41 q 155 -7 122 3 q 222 -17 188 -17 q 287 -9 257 -17 q 343 11 317 -2 q 394 43 370 24 q 444 83 419 62 q 482 46 462 64 q 525 14 503 28 q 573 -8 548 0 q 625 -17 598 -17 q 683 -6 657 -17 q 729 24 709 5 q 762 69 749 43 q 782 125 776 95 m 465 586 q 454 534 465 557 q 426 492 444 511 q 386 459 408 473 q 339 433 363 444 q 324 468 332 450 q 310 505 316 486 q 300 544 304 524 q 296 581 296 563 q 302 616 296 600 q 321 646 309 633 q 350 665 334 658 q 386 672 367 672 q 419 665 404 672 q 444 646 433 658 q 460 619 454 635 q 465 586 465 603 m 418 113 q 386 89 403 100 q 351 67 369 77 q 313 52 332 58 q 273 46 294 46 q 220 57 244 46 q 180 86 197 68 q 154 130 163 105 q 144 183 144 155 q 154 238 144 213 q 181 284 164 263 q 220 322 198 305 q 267 353 242 339 q 337 230 301 288 q 418 113 374 172 "},"'":{"ha":189,"x_min":43,"x_max":143,"o":"m 143 647 q 130 693 143 679 q 93 708 117 708 q 56 693 69 708 q 43 647 43 679 q 46 614 43 635 q 54 562 49 593 l 82 411 l 104 411 l 132 562 q 140 615 138 594 q 143 647 143 635 "},"(":{"ha":371,"x_min":52,"x_max":340,"o":"m 332 -254 l 340 -245 q 263 -162 296 -201 q 205 -77 229 -123 q 181 -27 193 -54 q 160 29 170 -1 q 145 93 151 59 q 139 167 139 127 q 145 239 139 205 q 160 303 151 273 q 181 359 170 333 q 205 408 193 385 q 263 495 229 454 q 340 578 296 535 l 332 586 q 300 569 319 581 q 261 542 282 557 q 219 507 240 526 q 178 467 197 488 q 130 409 153 440 q 89 342 106 378 q 62 262 72 305 q 52 167 52 219 q 62 71 52 115 q 89 -9 72 28 q 130 -77 106 -46 q 178 -136 153 -109 q 219 -175 197 -156 q 261 -210 240 -194 q 300 -237 282 -225 q 332 -254 319 -248 "},")":{"ha":371,"x_min":29,"x_max":318,"o":"m 318 167 q 308 262 318 219 q 281 342 298 305 q 241 409 264 378 q 192 468 218 440 q 151 507 172 488 q 108 542 129 526 q 69 569 87 557 q 37 586 50 581 l 29 578 q 107 495 73 535 q 165 408 140 454 q 189 359 177 385 q 210 303 201 333 q 225 239 219 273 q 231 167 231 205 q 225 93 231 127 q 210 29 219 59 q 189 -27 201 -1 q 165 -77 177 -54 q 107 -162 140 -123 q 29 -245 73 -201 l 37 -254 q 69 -237 50 -248 q 108 -210 87 -225 q 151 -175 129 -194 q 192 -136 172 -157 q 241 -77 218 -109 q 281 -9 264 -46 q 308 71 298 28 q 318 167 318 115 "},"*":{"ha":467,"x_min":8,"x_max":458,"o":"m 376 326 q 356 320 367 326 q 332 301 345 315 q 311 276 322 292 q 289 243 299 260 q 272 212 279 226 q 264 195 264 199 q 267 193 264 193 q 284 200 271 193 q 315 217 298 207 q 348 239 332 227 q 374 260 364 250 q 393 284 387 273 q 398 304 398 296 q 391 320 398 315 q 376 326 385 326 m 262 330 q 254 373 262 360 q 233 386 245 386 q 212 373 222 386 q 203 330 203 360 q 207 295 203 316 q 215 254 210 274 q 225 220 220 234 q 233 205 231 205 q 240 220 235 205 q 250 254 245 234 q 259 295 255 274 q 262 330 262 316 m 458 161 q 445 182 458 173 q 403 191 431 191 q 367 187 389 191 q 326 178 346 183 q 292 169 306 174 q 278 161 278 164 q 292 154 278 159 q 326 144 306 149 q 367 136 346 139 q 403 132 389 132 q 445 141 431 132 q 458 161 458 150 m 201 195 q 195 212 201 198 q 178 242 188 225 q 156 275 168 259 q 135 301 144 292 q 110 320 121 315 q 90 326 99 326 q 74 319 81 326 q 68 304 68 313 q 73 284 68 296 q 92 260 79 273 q 118 239 102 251 q 152 217 135 227 q 182 200 168 207 q 200 193 196 193 q 201 195 201 193 m 398 18 q 393 38 398 27 q 374 62 387 49 q 348 83 364 72 q 315 105 332 95 q 284 122 298 115 q 267 130 271 130 q 264 127 264 130 q 272 110 264 123 q 289 80 279 96 q 311 47 299 63 q 332 21 322 31 q 356 2 345 7 q 376 -3 367 -3 q 392 3 386 -3 q 398 18 398 9 m 189 161 q 175 169 189 164 q 141 178 161 174 q 99 187 121 183 q 64 191 78 191 q 21 182 35 191 q 8 161 8 173 q 21 141 8 150 q 64 132 35 132 q 99 136 78 132 q 141 144 121 139 q 175 154 161 149 q 189 161 189 159 m 262 -8 q 259 27 262 6 q 250 68 255 48 q 240 102 245 88 q 233 117 235 117 q 225 102 231 117 q 215 68 220 88 q 207 27 210 48 q 203 -8 203 6 q 212 -51 203 -38 q 233 -64 222 -64 q 254 -51 245 -64 q 262 -8 262 -38 m 200 130 q 182 122 196 130 q 152 105 168 115 q 118 83 135 95 q 92 62 102 71 q 73 37 79 48 q 68 18 68 26 q 75 2 68 8 q 90 -3 81 -3 q 110 2 99 -3 q 135 21 121 7 q 156 47 144 31 q 178 80 168 63 q 195 111 188 97 q 201 127 201 124 q 200 130 201 130 "},"+":{"ha":621,"x_min":25,"x_max":591,"o":"m 329 264 l 591 264 l 591 307 l 329 307 l 329 570 l 288 570 l 288 307 l 25 307 l 25 264 l 288 264 l 288 3 l 329 3 l 329 264 "},",":{"ha":262,"x_min":57,"x_max":208,"o":"m 208 -5 q 202 34 208 15 q 186 68 197 53 q 159 93 175 83 q 122 102 143 102 q 76 85 96 102 q 57 41 57 68 q 72 -1 57 13 q 111 -16 87 -16 q 125 -13 119 -16 q 137 -8 132 -11 q 147 -2 142 -5 q 155 0 151 0 q 167 -21 167 0 q 158 -64 167 -43 q 133 -103 149 -85 q 98 -133 118 -121 q 57 -151 78 -146 l 57 -175 q 208 -5 208 -123 "},"-":{"ha":349,"x_min":41,"x_max":306,"o":"m 41 161 l 306 161 l 306 239 l 41 239 l 41 161 "},".":{"ha":435,"x_min":170,"x_max":288,"o":"m 288 45 q 283 67 288 57 q 271 86 279 78 q 252 98 262 94 q 228 103 241 103 q 205 98 216 103 q 187 86 195 94 q 174 67 179 78 q 170 45 170 57 q 174 21 170 32 q 187 2 179 10 q 205 -11 195 -6 q 228 -16 216 -16 q 271 2 254 -16 q 288 45 288 19 "},"/":{"ha":368,"x_min":45,"x_max":325,"o":"m 86 -176 l 325 844 l 282 844 l 45 -176 l 86 -176 "},":":{"ha":435,"x_min":146,"x_max":264,"o":"m 264 330 q 259 354 264 343 q 247 373 254 365 q 228 386 239 381 q 205 390 218 390 q 163 373 180 390 q 146 330 146 356 q 163 288 146 305 q 205 271 180 271 q 228 275 218 271 q 247 288 239 280 q 259 307 254 296 q 264 330 264 318 m 264 9 q 259 33 264 22 q 247 52 254 43 q 228 64 239 60 q 205 69 218 69 q 163 52 180 69 q 146 9 146 35 q 151 -13 146 -3 q 163 -32 155 -24 q 182 -44 172 -39 q 205 -49 193 -49 q 228 -44 218 -49 q 247 -32 239 -39 q 259 -13 254 -24 q 264 9 264 -3 "},";":{"ha":292,"x_min":87,"x_max":239,"o":"m 216 428 q 200 469 216 452 q 161 485 184 485 q 120 469 137 485 q 104 428 104 452 q 120 388 104 404 q 161 371 137 371 q 182 375 172 371 q 200 388 193 380 q 212 406 208 395 q 216 428 216 416 m 239 -5 q 233 34 239 15 q 216 68 227 53 q 190 93 205 83 q 153 102 174 102 q 107 85 126 102 q 87 41 87 68 q 102 -1 87 13 q 142 -16 117 -16 q 156 -13 149 -16 q 168 -8 162 -11 q 177 -2 173 -5 q 186 0 182 0 q 197 -21 197 0 q 188 -64 197 -43 q 164 -103 179 -85 q 129 -133 149 -121 q 87 -151 109 -146 l 87 -175 q 239 -5 239 -123 "},"<":{"ha":1007,"x_min":201,"x_max":806,"o":"m 201 271 l 806 39 l 806 102 l 265 302 l 806 503 l 806 566 l 201 334 l 201 271 "},"=":{"ha":621,"x_min":25,"x_max":591,"o":"m 25 340 l 591 340 l 591 383 l 25 383 l 25 340 m 25 187 l 591 187 l 591 231 l 25 231 l 25 187 "},">":{"ha":1007,"x_min":201,"x_max":806,"o":"m 201 39 l 806 271 l 806 334 l 201 566 l 201 503 l 742 302 l 201 102 l 201 39 "},"?":{"ha":465,"x_min":47,"x_max":424,"o":"m 424 547 q 408 619 424 589 q 365 669 392 650 q 304 699 338 689 q 232 708 269 708 q 165 700 198 708 q 106 673 132 691 q 64 628 80 655 q 47 562 47 600 q 51 536 47 550 q 61 510 54 522 q 78 490 68 498 q 104 482 89 482 q 133 495 122 482 q 144 525 144 508 q 139 544 144 533 q 129 567 134 555 q 118 591 123 579 q 113 614 113 604 q 122 644 113 631 q 147 665 132 657 q 178 677 161 673 q 210 681 195 681 q 262 669 240 681 q 299 637 284 657 q 320 593 313 618 q 328 541 328 568 q 314 460 328 498 q 280 388 300 422 q 231 280 249 335 q 211 163 213 224 l 232 163 q 249 243 234 208 q 285 309 264 279 q 331 365 307 338 q 376 419 355 391 q 410 478 397 447 q 424 547 424 509 m 282 43 q 266 84 282 67 q 225 102 249 102 q 203 97 214 102 q 184 84 193 92 q 172 66 176 77 q 167 43 167 55 q 184 2 167 18 q 225 -14 201 -14 q 266 3 249 -14 q 282 43 282 19 "},"@":{"ha":965,"x_min":50,"x_max":939,"o":"m 939 87 l 909 87 q 840 -29 881 23 q 748 -118 800 -81 q 633 -175 696 -155 q 498 -195 570 -195 q 334 -164 408 -195 q 207 -80 260 -134 q 126 48 155 -26 q 97 214 97 123 q 111 337 97 277 q 151 452 125 398 q 215 552 177 507 q 302 631 254 598 q 410 683 351 664 q 536 701 469 701 q 667 679 606 701 q 771 616 727 657 q 841 517 816 575 q 867 386 867 458 q 849 257 867 320 q 790 141 831 194 q 762 109 777 125 q 730 80 747 93 q 693 60 713 68 q 652 53 673 53 q 624 64 636 53 q 612 90 612 75 q 620 135 612 102 q 638 209 627 167 q 662 296 649 250 q 687 383 675 342 q 708 453 699 423 q 720 490 717 482 l 639 478 l 624 422 q 534 493 608 493 q 463 476 498 493 q 396 430 427 458 q 339 363 366 401 q 294 286 313 326 q 265 207 275 246 q 254 134 254 167 q 260 93 254 113 q 276 55 265 72 q 305 27 288 38 q 346 17 322 17 q 402 32 373 17 q 458 70 431 47 q 508 117 485 92 q 547 161 531 142 q 542 126 544 144 q 539 90 539 108 q 559 35 539 52 q 616 17 579 17 q 703 32 663 17 q 773 74 742 47 q 828 135 804 100 q 867 210 852 170 q 891 293 883 250 q 899 376 899 335 q 871 523 899 458 q 796 633 844 588 q 680 702 747 678 q 533 726 613 726 q 339 687 427 726 q 186 581 250 648 q 86 422 122 513 q 50 228 50 332 q 83 48 50 132 q 176 -96 117 -35 q 316 -192 235 -157 q 496 -227 398 -227 q 638 -204 568 -227 q 769 -142 709 -182 q 874 -43 829 -101 q 939 87 919 15 m 604 386 q 596 329 604 361 q 575 263 589 297 q 542 195 561 229 q 499 136 522 162 q 449 94 475 110 q 393 78 422 78 q 368 84 379 78 q 350 101 357 91 q 339 125 342 112 q 335 150 335 138 q 343 205 335 172 q 366 273 351 237 q 399 343 380 309 q 442 407 419 378 q 490 452 465 435 q 541 469 515 469 q 572 463 559 469 q 592 444 585 456 q 602 417 599 432 q 604 386 604 402 "},"A":{"ha":753,"x_min":8,"x_max":745,"o":"m 471 0 l 745 0 l 745 20 q 698 30 716 21 q 667 55 680 39 q 645 90 654 70 q 625 134 635 110 l 385 708 l 367 708 l 122 138 q 102 93 112 114 q 79 57 92 73 q 50 31 66 41 q 8 20 33 21 l 8 0 l 227 0 l 227 20 q 203 22 216 20 q 176 28 189 24 q 155 42 163 33 q 146 64 146 50 q 150 86 146 72 q 160 117 154 100 q 174 152 167 134 q 189 185 182 170 q 202 214 197 201 q 211 232 208 227 l 479 232 q 494 200 484 222 q 514 152 504 178 q 532 102 524 126 q 541 64 541 77 q 534 41 541 50 q 517 28 527 33 q 494 21 507 23 q 471 20 482 20 l 471 0 m 347 551 l 465 269 l 227 269 l 347 551 "},"B":{"ha":681,"x_min":18,"x_max":640,"o":"m 640 189 q 629 255 640 227 q 596 303 617 283 q 547 335 575 323 q 484 354 518 348 q 533 376 510 362 q 573 410 556 391 q 600 454 590 429 q 610 507 610 478 q 597 577 610 547 q 562 627 584 606 q 511 661 540 648 q 449 681 481 673 q 382 690 416 688 q 317 693 348 693 l 18 693 l 18 675 q 71 671 52 675 q 101 655 91 667 q 114 624 111 644 q 117 571 117 604 l 117 122 q 113 71 117 91 q 100 40 110 51 q 70 24 90 28 q 18 20 51 20 l 18 0 l 345 0 q 411 3 376 0 q 478 13 445 5 q 540 33 511 20 q 592 67 570 46 q 627 118 614 88 q 640 189 640 149 m 501 513 q 485 444 501 471 q 443 402 469 418 q 382 381 416 387 q 313 375 349 375 q 264 376 289 375 q 215 382 239 376 l 215 648 q 261 656 238 654 q 309 659 285 659 q 377 651 343 659 q 439 626 412 644 q 484 581 467 609 q 501 513 501 553 m 522 182 q 506 114 522 142 q 462 69 489 86 q 402 44 435 52 q 334 36 368 36 q 274 40 303 36 q 215 50 245 43 l 215 335 q 261 339 237 338 q 306 339 284 339 q 382 331 344 339 q 452 305 421 323 q 503 257 483 287 q 522 182 522 227 "},"C":{"ha":699,"x_min":37,"x_max":661,"o":"m 661 163 l 646 174 q 599 114 622 140 q 550 68 576 87 q 490 39 523 50 q 414 29 457 29 q 296 54 345 29 q 215 120 247 78 q 169 217 184 162 q 154 335 154 273 q 159 415 154 374 q 175 493 164 455 q 205 563 186 530 q 251 620 224 595 q 315 658 279 644 q 399 672 351 672 q 484 657 446 672 q 550 616 522 642 q 598 553 578 589 q 631 473 618 517 l 646 473 l 631 708 l 612 708 q 607 692 610 701 q 600 677 604 684 q 587 666 595 671 q 570 661 580 661 q 525 680 546 671 q 483 694 505 688 q 439 704 462 701 q 390 708 416 708 q 246 679 311 708 q 135 599 181 650 q 63 481 88 549 q 37 336 37 414 q 61 197 37 261 q 129 85 85 132 q 235 10 173 37 q 375 -17 298 -17 q 544 31 473 -17 q 661 163 614 78 "},"D":{"ha":755,"x_min":18,"x_max":715,"o":"m 715 350 q 683 515 715 450 q 595 621 651 581 q 463 677 539 661 q 300 693 387 693 l 18 693 l 18 675 q 71 671 52 675 q 101 655 91 667 q 114 624 111 644 q 117 571 117 604 l 117 122 q 113 70 117 90 q 100 39 110 50 q 70 24 90 28 q 18 20 51 20 l 18 0 l 328 0 q 482 22 411 0 q 605 87 553 43 q 686 196 656 131 q 715 350 715 262 m 600 346 q 582 225 600 282 q 529 126 564 169 q 443 59 494 84 q 323 35 391 35 q 269 39 296 35 q 215 50 241 43 l 215 639 q 268 650 241 646 q 321 654 294 654 q 441 630 389 654 q 529 564 493 606 q 582 466 564 522 q 600 346 600 410 "},"E":{"ha":639,"x_min":22,"x_max":616,"o":"m 555 0 l 616 174 l 595 174 q 557 111 574 137 q 518 68 540 85 q 468 45 497 52 q 393 37 439 37 l 277 37 q 243 42 255 37 q 226 56 232 47 q 219 80 220 66 q 218 115 218 95 l 218 343 l 371 343 q 423 338 404 343 q 454 322 442 334 q 471 290 465 310 q 481 240 477 271 l 500 240 l 500 482 l 481 482 q 471 432 477 452 q 453 402 465 413 q 422 386 441 391 q 371 382 403 382 l 218 382 l 218 656 l 410 656 q 471 650 448 656 q 507 632 494 645 q 528 597 520 619 q 545 542 536 575 l 564 542 l 555 693 l 22 693 l 22 675 q 75 671 56 675 q 105 656 95 667 q 118 626 115 646 q 121 574 121 606 l 121 122 q 117 70 121 90 q 104 39 114 50 q 74 24 94 28 q 22 20 55 20 l 22 0 l 555 0 "},"F":{"ha":582,"x_min":17,"x_max":541,"o":"m 522 542 l 541 542 l 533 693 l 17 693 l 17 675 q 69 670 50 675 q 99 654 89 666 q 112 622 109 642 q 115 571 115 602 l 115 122 q 113 71 115 91 q 100 40 110 51 q 70 24 90 28 q 17 20 50 20 l 17 0 l 314 0 l 314 20 q 261 24 281 20 q 230 39 241 28 q 217 70 220 50 q 214 122 214 90 l 214 340 l 340 340 q 411 316 392 340 q 431 243 431 292 l 450 243 l 450 478 l 431 478 q 422 437 427 455 q 408 408 418 420 q 382 389 398 395 q 340 383 366 383 l 214 383 l 214 656 l 368 656 q 428 651 403 656 q 470 633 452 646 q 500 598 488 620 q 522 542 512 576 "},"G":{"ha":755,"x_min":36,"x_max":742,"o":"m 742 359 l 742 378 l 473 378 l 473 359 q 522 353 504 358 q 549 336 539 348 q 561 306 558 325 q 564 258 564 287 l 564 57 q 495 29 531 38 q 421 20 458 20 q 302 50 352 20 q 219 129 252 80 q 170 237 186 177 q 154 358 154 298 q 169 475 154 418 q 216 576 184 532 q 297 647 248 621 q 414 673 346 673 q 496 661 460 673 q 561 624 533 648 q 609 566 589 600 q 643 490 629 532 l 661 490 l 643 708 l 625 708 q 623 696 625 703 q 619 682 622 689 q 611 670 616 675 q 599 665 606 665 q 577 672 593 665 q 536 687 562 679 q 477 701 511 694 q 404 708 444 708 q 259 679 326 708 q 142 600 191 650 q 64 481 92 549 q 36 336 36 414 q 66 186 36 252 q 148 76 96 121 q 270 7 200 31 q 419 -17 340 -17 q 546 -2 484 -17 q 664 46 608 14 l 664 258 q 666 301 664 282 q 675 333 667 320 q 698 353 682 346 q 742 359 713 359 "},"H":{"ha":755,"x_min":18,"x_max":734,"o":"m 437 0 l 734 0 l 734 20 q 685 23 704 20 q 655 36 666 26 q 641 65 644 46 q 637 115 637 84 l 637 579 q 641 628 637 610 q 655 657 644 647 q 685 671 666 667 q 734 675 704 675 l 734 693 l 437 693 l 437 675 q 490 670 470 675 q 520 654 510 666 q 534 623 531 643 q 538 571 538 603 l 538 372 l 214 372 l 214 571 q 217 623 214 603 q 232 654 221 643 q 263 670 243 666 q 315 675 283 675 l 315 693 l 18 693 l 18 675 q 71 670 51 675 q 100 654 90 666 q 114 623 111 643 q 117 571 117 603 l 117 122 q 114 70 117 90 q 101 39 111 50 q 71 24 91 28 q 18 20 52 20 l 18 0 l 315 0 l 315 20 q 262 24 282 20 q 231 39 242 28 q 217 70 220 50 q 214 122 214 90 l 214 335 l 538 335 l 538 122 q 534 71 538 91 q 520 40 531 51 q 490 24 510 28 q 437 20 470 20 l 437 0 "},"I":{"ha":349,"x_min":26,"x_max":323,"o":"m 26 0 l 323 0 l 323 20 q 270 24 290 20 q 240 40 250 28 q 227 71 230 51 q 224 122 224 91 l 224 571 q 227 623 224 603 q 241 654 231 643 q 271 670 252 666 q 323 675 291 675 l 323 693 l 26 693 l 26 675 q 79 670 60 675 q 109 654 99 666 q 122 623 119 643 q 125 571 125 603 l 125 122 q 122 71 125 91 q 109 40 119 51 q 79 24 99 28 q 26 20 60 20 l 26 0 "},"J":{"ha":408,"x_min":22,"x_max":401,"o":"m 401 675 l 401 693 l 104 693 l 104 675 q 158 670 138 675 q 188 654 178 666 q 201 622 198 642 q 204 571 204 602 l 204 97 q 203 75 204 87 q 199 50 203 62 q 188 30 195 38 q 167 21 180 21 q 145 36 153 21 q 128 68 137 50 q 107 101 119 86 q 74 115 95 115 q 22 62 22 115 q 32 26 22 41 q 56 2 41 12 q 89 -13 71 -8 q 125 -17 107 -17 q 211 6 177 -17 q 266 64 245 28 q 294 144 286 100 q 302 232 302 189 l 302 571 q 306 623 302 603 q 319 654 309 643 q 349 670 329 666 q 401 675 368 675 "},"K":{"ha":755,"x_min":18,"x_max":765,"o":"m 435 0 l 765 0 l 765 20 q 706 32 732 22 q 657 56 680 41 q 613 90 635 71 q 570 131 592 109 l 313 385 l 419 491 q 505 575 469 541 q 569 632 541 610 q 623 665 598 654 q 675 675 648 675 l 675 693 l 419 693 l 419 675 q 444 674 432 675 q 464 670 455 673 q 477 662 472 667 q 482 646 482 656 q 465 606 482 630 q 415 546 448 581 q 331 463 381 511 q 214 353 280 415 l 214 571 q 217 623 214 603 q 231 654 220 643 q 261 670 242 666 q 313 675 281 675 l 313 693 l 18 693 l 18 675 q 71 670 52 675 q 100 654 90 666 q 113 622 110 642 q 115 571 115 602 l 115 122 q 113 70 115 90 q 100 39 110 50 q 71 24 90 28 q 18 20 52 20 l 18 0 l 313 0 l 313 20 q 260 24 280 20 q 230 39 241 28 q 217 70 220 50 q 214 122 214 90 l 214 286 l 244 317 l 453 109 q 464 98 457 104 q 476 83 470 91 q 487 67 483 75 q 492 54 492 60 q 486 37 492 43 q 472 26 481 30 q 454 21 464 22 q 435 20 444 20 l 435 0 "},"L":{"ha":639,"x_min":20,"x_max":618,"o":"m 558 0 l 618 189 l 600 192 q 562 117 581 146 q 518 72 543 88 q 459 51 493 56 q 375 45 425 45 l 306 45 q 263 48 280 45 q 236 62 246 52 q 222 89 227 72 q 218 131 218 105 l 218 587 q 225 631 218 614 q 245 657 232 648 q 277 670 258 667 q 321 673 296 673 l 321 693 l 20 693 l 20 673 q 63 670 44 673 q 95 657 82 667 q 114 631 107 648 q 121 587 121 614 l 121 106 q 114 61 121 78 q 95 35 107 44 q 63 23 82 26 q 20 20 44 20 l 20 0 l 558 0 "},"M":{"ha":932,"x_min":18,"x_max":909,"o":"m 614 0 l 909 0 l 909 20 q 858 23 877 20 q 828 38 838 27 q 814 69 818 50 q 811 121 811 89 l 811 574 q 814 625 811 605 q 827 655 817 644 q 857 671 838 667 q 909 675 877 675 l 909 693 l 713 693 l 465 151 l 214 693 l 18 693 l 18 675 q 66 669 47 675 q 96 652 85 664 q 111 621 106 640 q 115 574 115 602 l 115 121 q 112 70 115 90 q 99 39 109 50 q 70 24 89 28 q 18 20 51 20 l 18 0 l 258 0 l 258 20 q 207 23 226 20 q 177 38 187 27 q 163 69 167 50 q 160 121 160 89 l 160 583 l 428 0 l 444 0 l 713 583 l 713 121 q 709 70 713 90 q 695 39 706 50 q 666 24 685 28 q 614 20 646 20 l 614 0 "},"N":{"ha":755,"x_min":5,"x_max":742,"o":"m 742 675 l 742 693 l 500 693 l 500 675 q 552 671 532 675 q 582 655 571 667 q 595 625 592 644 q 599 574 599 605 l 599 174 l 175 693 l 5 693 l 5 675 q 45 670 28 675 q 74 656 62 665 q 98 634 87 647 q 122 603 109 621 l 122 121 q 119 70 122 90 q 105 39 115 50 q 76 24 95 28 q 24 20 56 20 l 24 0 l 265 0 l 265 20 q 213 23 233 20 q 183 38 193 27 q 170 68 173 49 q 167 121 167 88 l 167 547 l 625 -11 l 643 -11 l 643 574 q 646 625 643 605 q 660 655 649 644 q 690 671 670 667 q 742 675 709 675 "},"O":{"ha":755,"x_min":36,"x_max":715,"o":"m 715 350 q 692 487 715 422 q 624 601 668 552 q 519 679 581 650 q 383 708 458 708 q 243 680 307 708 q 133 603 179 652 q 61 489 87 555 q 36 349 36 424 q 60 208 36 274 q 128 91 83 141 q 235 12 172 41 q 375 -17 298 -17 q 515 13 452 -17 q 622 93 578 42 q 691 210 667 143 q 715 350 715 276 m 599 343 q 595 268 599 306 q 581 194 591 229 q 554 126 571 158 q 513 72 538 95 q 453 35 488 48 q 374 21 419 21 q 297 36 330 21 q 239 76 264 51 q 199 134 215 101 q 172 204 182 168 q 158 279 162 241 q 154 351 154 317 q 158 424 154 387 q 172 497 162 462 q 198 565 182 533 q 239 621 214 597 q 296 658 263 644 q 372 672 329 672 q 454 658 419 672 q 515 621 490 644 q 556 565 540 597 q 582 496 572 533 q 595 420 591 460 q 599 343 599 381 "},"P":{"ha":583,"x_min":18,"x_max":546,"o":"m 546 501 q 520 597 546 559 q 455 655 495 634 q 367 685 416 677 q 271 693 317 693 l 18 693 l 18 675 q 71 671 52 675 q 100 655 90 667 q 113 624 110 644 q 115 571 115 604 l 115 122 q 113 70 115 90 q 100 39 110 50 q 70 24 90 28 q 18 20 51 20 l 18 0 l 314 0 l 314 20 q 262 24 281 20 q 232 39 242 28 q 217 70 221 50 q 214 122 214 90 l 214 315 q 259 311 237 313 q 302 310 281 310 q 396 319 352 310 q 474 349 441 328 q 527 408 507 371 q 546 501 546 445 m 429 492 q 420 436 429 463 q 394 389 411 410 q 353 356 377 368 q 298 343 329 343 q 256 345 277 343 q 214 350 235 347 l 214 643 q 248 650 231 646 q 282 653 265 653 q 345 640 317 653 q 391 606 372 627 q 419 554 410 584 q 429 492 429 525 "},"Q":{"ha":755,"x_min":36,"x_max":715,"o":"m 715 346 q 692 485 715 419 q 625 600 668 550 q 519 679 581 650 q 382 708 458 708 q 241 680 304 708 q 132 603 178 652 q 61 488 86 554 q 36 347 36 422 q 97 126 36 214 q 285 -7 159 37 q 373 -83 322 -48 q 480 -145 423 -119 q 597 -187 537 -171 q 713 -205 656 -203 l 713 -189 q 632 -170 669 -185 q 565 -130 595 -155 q 508 -74 534 -106 q 461 -7 482 -43 q 567 46 520 12 q 647 126 614 80 q 698 228 680 172 q 715 346 715 284 m 599 334 q 589 223 599 279 q 553 122 578 167 q 484 48 528 77 q 375 20 441 20 q 298 34 331 20 q 240 74 264 49 q 199 131 216 98 q 172 200 182 163 q 158 274 162 236 q 154 347 154 312 q 158 421 154 383 q 172 495 162 459 q 198 563 182 531 q 239 619 214 595 q 297 657 263 643 q 375 671 330 671 q 454 656 420 671 q 513 616 488 641 q 554 557 538 591 q 581 486 571 524 q 595 409 591 448 q 599 334 599 370 "},"R":{"ha":699,"x_min":18,"x_max":708,"o":"m 522 0 l 708 0 l 708 20 q 650 32 675 22 q 605 56 625 41 q 567 91 585 71 q 530 138 549 111 l 389 338 q 456 359 425 345 q 510 394 487 373 q 545 446 532 416 q 558 515 558 475 q 546 583 558 555 q 513 632 534 612 q 464 664 492 652 q 405 682 436 675 q 342 691 374 689 q 279 693 309 693 l 18 693 l 18 675 q 71 671 52 675 q 101 655 91 667 q 114 624 111 644 q 117 571 117 604 l 117 122 q 114 70 117 90 q 101 39 111 50 q 71 24 91 28 q 18 20 52 20 l 18 0 l 315 0 l 315 20 q 263 24 283 20 q 232 39 243 28 q 217 70 221 50 q 214 122 214 90 l 214 323 q 230 322 222 322 q 247 321 238 321 q 288 323 268 321 l 522 0 m 444 507 q 427 435 444 464 q 380 389 409 406 q 316 364 352 372 q 243 357 280 357 q 226 357 234 357 q 214 358 218 357 l 214 646 q 255 652 235 649 q 294 654 275 654 q 355 644 328 654 q 402 614 382 633 q 433 568 422 595 q 444 507 444 541 "},"S":{"ha":582,"x_min":66,"x_max":526,"o":"m 526 178 q 510 250 526 218 q 467 307 494 281 q 406 354 440 333 q 337 394 372 375 q 267 430 301 412 q 207 468 233 448 q 163 511 180 488 q 147 562 147 534 q 158 606 147 587 q 185 639 168 625 q 224 661 203 653 q 269 668 246 668 q 347 652 313 668 q 405 609 381 636 q 444 546 429 583 q 461 469 458 510 l 481 469 l 481 708 l 461 708 q 457 696 460 703 q 451 683 455 689 q 441 673 447 677 q 428 669 436 669 q 399 675 416 669 q 360 689 381 682 q 315 702 338 696 q 268 708 291 708 q 192 695 228 708 q 127 660 155 683 q 83 603 100 636 q 66 526 66 569 q 82 456 66 487 q 124 400 98 425 q 183 353 150 374 q 251 313 216 332 q 318 276 285 294 q 377 236 351 257 q 419 192 403 216 q 435 138 435 168 q 422 88 435 109 q 391 52 410 66 q 347 31 372 38 q 297 24 322 24 q 215 38 251 24 q 153 79 178 53 q 111 142 127 105 q 90 222 96 178 l 72 222 l 72 -17 l 90 -17 q 93 -3 91 -10 q 99 10 95 4 q 108 20 102 16 q 122 24 114 24 q 155 17 135 24 q 200 3 176 11 q 253 -11 225 -4 q 309 -17 281 -17 q 390 -3 351 -17 q 459 35 429 10 q 508 96 490 60 q 526 178 526 132 "},"T":{"ha":637,"x_min":25,"x_max":614,"o":"m 591 530 l 614 530 l 607 693 l 32 693 l 25 530 l 49 530 q 61 588 52 565 q 86 625 70 611 q 127 644 103 638 q 184 650 152 650 l 268 650 l 268 121 q 265 70 268 90 q 252 39 262 50 q 222 24 241 28 q 171 20 203 20 l 171 0 l 464 0 l 464 20 q 412 23 431 20 q 382 38 393 27 q 370 69 372 50 q 367 121 367 89 l 367 650 l 464 650 q 555 620 526 650 q 591 530 585 589 "},"U":{"ha":755,"x_min":16,"x_max":746,"o":"m 746 675 l 746 693 l 500 693 l 500 675 q 552 671 532 675 q 582 655 572 667 q 596 624 593 644 q 599 571 599 604 l 599 290 q 598 241 599 269 q 592 185 597 213 q 578 131 587 157 q 551 90 568 106 q 474 43 517 58 q 385 28 431 28 q 291 47 327 28 q 236 99 256 66 q 211 176 217 132 q 204 268 204 220 l 204 571 q 207 619 204 600 q 220 651 210 639 q 247 669 229 664 q 294 675 264 675 l 294 693 l 16 693 l 16 675 q 64 669 46 675 q 91 651 82 664 q 103 619 100 639 q 106 571 106 600 l 106 298 q 116 164 106 223 q 157 65 127 106 q 240 4 186 25 q 378 -17 293 -17 q 506 4 454 -17 q 588 63 557 24 q 632 158 619 102 q 646 285 646 214 l 646 567 q 650 617 646 597 q 665 651 654 638 q 695 669 675 663 q 746 675 715 675 "},"V":{"ha":755,"x_min":9,"x_max":743,"o":"m 743 675 l 743 693 l 529 693 l 529 675 q 552 670 539 673 q 576 661 565 667 q 595 646 587 655 q 603 624 603 637 q 600 605 603 616 q 594 584 597 595 q 586 562 591 572 q 579 545 582 551 l 415 142 l 239 547 q 222 589 229 571 q 215 627 215 608 q 223 651 215 642 q 242 665 231 660 q 268 672 254 670 q 292 675 281 674 l 292 693 l 9 693 l 9 675 q 52 666 35 672 q 80 648 68 659 q 101 620 92 636 q 119 582 110 604 l 379 -17 l 397 -17 l 639 575 q 656 611 647 595 q 677 641 665 628 q 705 663 689 654 q 743 675 722 671 "},"W":{"ha":989,"x_min":14,"x_max":979,"o":"m 979 675 l 979 693 l 774 693 l 774 675 q 799 673 786 675 q 823 666 812 671 q 841 652 834 661 q 848 628 848 643 q 846 609 848 620 q 841 586 844 597 q 834 564 838 574 q 828 545 831 553 l 696 161 l 562 539 q 548 583 555 557 q 541 629 541 608 q 547 655 541 646 q 564 669 553 665 q 588 674 574 673 q 614 675 601 675 l 614 693 l 343 693 l 343 675 q 393 659 372 675 q 430 616 414 642 q 456 558 445 591 q 476 493 467 526 l 361 161 l 225 551 q 219 570 222 559 q 211 592 215 581 q 205 614 208 604 q 203 633 203 625 q 209 656 203 648 q 225 668 216 664 q 247 673 235 672 q 269 675 259 675 l 269 693 l 14 693 l 14 675 q 59 665 42 675 q 87 640 76 656 q 104 603 98 624 q 119 559 111 582 l 323 -17 l 343 -17 l 500 427 l 657 -17 l 679 -17 l 884 583 q 899 621 890 604 q 919 650 908 638 q 945 668 930 662 q 979 675 960 675 "},"X":{"ha":755,"x_min":7,"x_max":743,"o":"m 446 0 l 743 0 l 743 20 q 702 28 721 20 q 665 51 682 37 q 631 86 648 65 q 596 133 614 106 l 427 385 l 579 577 q 616 621 600 603 q 650 650 633 639 q 686 668 667 662 q 728 675 704 673 l 728 693 l 482 693 l 482 675 q 503 673 490 674 q 528 668 515 672 q 548 657 540 665 q 557 637 557 650 q 546 609 557 628 q 519 568 536 591 q 484 521 503 545 q 447 475 465 496 q 417 439 430 454 q 401 421 404 425 q 387 441 398 426 q 361 477 376 456 q 331 522 347 498 q 301 567 315 545 q 279 607 288 589 q 271 635 271 625 q 278 655 271 647 q 297 667 286 663 q 321 672 309 671 q 343 675 334 674 l 343 693 l 22 693 l 22 675 q 83 662 57 673 q 130 633 109 650 q 169 592 151 615 q 205 542 187 568 l 343 342 l 163 115 q 129 79 147 96 q 90 48 110 62 q 48 27 69 35 q 7 20 27 20 l 7 0 l 254 0 l 254 20 q 233 21 244 20 q 211 26 221 22 q 194 38 201 31 q 187 58 187 46 q 191 74 187 66 q 199 91 194 83 q 209 106 203 99 q 218 119 214 114 l 364 306 q 377 287 366 304 q 406 245 389 270 q 442 191 422 220 q 477 135 461 161 q 505 87 494 108 q 515 58 515 66 q 508 38 515 45 q 490 26 500 30 q 467 21 479 22 q 446 20 455 20 l 446 0 "},"Y":{"ha":755,"x_min":9,"x_max":742,"o":"m 742 675 l 742 693 l 500 693 l 500 675 q 524 672 511 675 q 546 664 536 670 q 563 649 556 659 q 570 625 570 640 q 567 607 570 617 q 559 587 564 597 q 549 568 554 577 q 539 553 543 559 l 401 339 q 387 361 400 341 q 354 409 374 380 q 313 472 335 438 q 271 538 290 507 q 239 594 252 570 q 227 629 227 619 q 235 654 227 645 q 255 668 243 663 q 281 673 267 672 q 306 675 295 675 l 306 693 l 9 693 l 9 675 q 51 666 33 675 q 84 642 69 656 q 112 610 99 627 q 135 575 124 592 l 323 285 l 323 121 q 321 70 323 90 q 308 39 318 50 q 279 24 298 28 q 228 20 260 20 l 228 0 l 522 0 l 522 20 q 470 23 490 20 q 441 38 451 27 q 427 69 431 50 q 424 121 424 89 l 424 294 l 606 578 q 633 618 620 601 q 663 649 647 636 q 697 668 678 661 q 742 675 716 675 "},"Z":{"ha":639,"x_min":14,"x_max":610,"o":"m 578 0 l 610 183 l 595 186 q 572 125 584 152 q 542 80 559 98 q 497 51 524 61 q 431 41 470 41 l 147 41 l 603 693 l 90 693 l 75 519 l 94 519 q 109 582 100 556 q 133 623 117 608 q 173 646 148 639 q 236 653 197 653 l 457 653 l 14 20 l 14 0 l 578 0 "},"[":{"ha":468,"x_min":131,"x_max":328,"o":"m 318 -164 l 328 -110 l 200 -89 l 200 664 l 328 684 l 318 737 l 131 710 l 131 -136 l 318 -164 "},"\\":{"ha":292,"x_min":1,"x_max":294,"o":"m 253 -16 l 294 -16 l 46 726 l 1 726 l 253 -16 "},"]":{"ha":468,"x_min":127,"x_max":328,"o":"m 140 -167 l 328 -139 l 328 708 l 140 736 l 127 682 l 258 661 l 258 -93 l 127 -114 l 140 -167 "},"^":{"ha":1007,"x_min":240,"x_max":766,"o":"m 704 9 l 766 9 l 534 614 l 472 614 l 240 9 l 302 9 l 504 550 l 704 9 "},"_":{"ha":504,"x_min":0,"x_max":504,"o":"m 0 -118 l 504 -118 l 504 -81 l 0 -81 l 0 -118 "},"`":{"ha":393,"x_min":58,"x_max":297,"o":"m 254 533 l 297 533 l 151 679 q 90 713 117 713 q 58 673 58 713 q 104 628 58 656 l 254 533 "},"a":{"ha":465,"x_min":37,"x_max":464,"o":"m 464 68 l 464 97 q 453 86 460 93 q 438 73 446 79 q 422 61 430 66 q 408 56 414 56 q 392 63 397 56 q 386 81 387 71 q 384 97 385 87 q 384 118 384 107 q 383 141 383 130 q 383 163 383 153 l 383 322 q 375 396 383 366 q 349 446 368 427 q 301 474 331 465 q 227 482 271 482 q 170 476 200 482 q 115 455 140 469 q 73 418 90 441 q 56 364 56 396 q 65 329 56 342 q 98 315 75 315 q 133 328 124 315 q 142 364 142 341 q 144 399 142 383 q 153 427 146 415 q 174 445 160 439 q 211 452 187 452 q 256 441 239 452 q 283 414 273 431 q 295 375 292 397 q 298 329 298 353 l 298 310 q 249 293 277 302 q 192 271 221 283 q 135 242 163 258 q 85 207 107 227 q 51 163 64 187 q 37 111 37 140 q 45 63 37 85 q 66 25 52 41 q 101 0 81 9 q 149 -9 122 -9 q 191 -2 172 -9 q 229 16 211 5 q 264 41 248 27 q 298 68 281 54 q 301 40 298 54 q 309 15 303 26 q 326 -3 315 4 q 353 -9 336 -9 q 387 -2 370 -9 q 417 16 403 5 q 443 41 431 27 q 464 68 454 55 m 298 281 l 298 102 q 276 84 288 94 q 250 67 263 75 q 223 55 237 60 q 196 50 210 50 q 165 58 178 50 q 142 77 152 65 q 128 104 133 90 q 123 135 123 119 q 141 185 123 163 q 185 226 159 208 q 242 258 212 244 q 298 281 273 271 "},"b":{"ha":524,"x_min":-4,"x_max":488,"o":"m 488 253 q 477 334 488 294 q 445 408 467 375 q 389 461 422 441 q 309 482 355 482 q 264 474 285 482 q 224 453 243 466 q 190 422 206 439 q 161 387 174 406 l 161 726 l 138 726 l -4 671 l 3 653 q 21 657 12 655 q 39 660 29 660 q 59 653 52 660 q 70 631 66 646 q 75 594 74 616 q 75 543 75 572 l 75 46 q 156 2 113 20 q 245 -16 199 -16 q 345 7 300 -16 q 421 67 390 30 q 470 153 453 104 q 488 253 488 201 m 399 224 q 392 160 399 195 q 371 95 386 125 q 332 44 357 64 q 272 24 308 24 q 211 38 239 24 q 161 75 183 52 l 161 355 q 184 375 172 366 q 209 392 196 385 q 237 405 222 400 q 267 410 252 410 q 328 392 303 410 q 369 346 353 374 q 392 286 385 319 q 399 224 399 253 "},"c":{"ha":465,"x_min":35,"x_max":431,"o":"m 431 178 l 415 184 q 392 139 405 161 q 361 102 378 118 q 321 76 344 85 q 271 66 299 66 q 201 86 230 66 q 154 138 172 106 q 127 206 136 169 q 119 278 119 243 q 126 337 119 307 q 146 392 132 367 q 184 433 161 417 q 241 449 208 449 q 284 440 270 449 q 305 417 298 431 q 313 388 311 404 q 320 358 315 372 q 336 335 325 345 q 370 326 347 326 q 405 336 391 326 q 418 370 418 347 q 401 418 418 397 q 361 454 385 439 q 310 475 338 468 q 258 482 281 482 q 165 462 207 482 q 95 407 124 441 q 50 327 66 372 q 35 233 35 282 q 47 144 35 189 q 84 64 59 100 q 146 6 109 28 q 235 -16 184 -16 q 308 1 274 -16 q 367 45 341 18 q 408 106 392 72 q 431 178 425 141 "},"d":{"ha":524,"x_min":35,"x_max":528,"o":"m 386 -16 l 528 43 l 522 61 q 504 55 513 58 q 486 53 494 53 q 466 60 473 53 q 455 78 458 66 q 450 107 451 90 q 449 144 449 123 l 449 726 l 427 726 l 285 671 l 292 653 q 310 658 301 656 q 328 660 318 660 q 356 643 347 660 q 364 595 364 625 l 364 443 q 317 473 343 464 q 262 482 291 482 q 167 458 210 482 q 95 396 125 435 q 50 310 66 358 q 35 214 35 262 q 47 132 35 173 q 85 58 60 91 q 145 5 109 25 q 227 -16 180 -16 q 301 4 267 -16 q 364 53 336 23 l 364 -16 l 386 -16 m 364 330 l 364 89 q 323 55 347 69 q 272 41 300 41 q 204 63 232 41 q 160 116 177 84 q 136 186 144 149 q 129 256 129 223 q 135 319 129 285 q 156 383 141 353 q 195 432 170 412 q 256 452 219 452 q 299 441 279 452 q 333 413 319 430 q 356 374 348 395 q 364 330 364 352 "},"e":{"ha":465,"x_min":39,"x_max":435,"o":"m 435 171 l 419 182 q 397 137 410 158 q 369 101 385 117 q 331 78 352 86 q 282 69 309 69 q 206 90 238 69 q 153 143 174 111 q 121 214 132 175 q 111 292 111 254 l 435 292 q 422 368 435 333 q 387 428 410 403 q 331 468 364 454 q 256 482 298 482 q 160 461 201 482 q 92 406 119 441 q 52 326 65 372 q 39 229 39 280 q 52 139 39 183 q 90 61 64 96 q 154 5 116 26 q 243 -16 193 -16 q 314 0 281 -16 q 372 41 347 16 q 413 101 397 67 q 435 171 429 134 m 328 321 l 111 321 q 122 367 113 345 q 145 407 130 390 q 180 435 159 425 q 227 446 200 446 q 272 435 253 446 q 303 407 291 424 q 322 367 316 389 q 328 321 328 344 "},"f":{"ha":349,"x_min":39,"x_max":456,"o":"m 456 639 q 442 676 456 660 q 408 704 428 692 q 366 721 389 715 q 326 726 343 726 q 241 708 277 726 q 180 658 204 689 q 143 586 155 627 q 131 500 131 545 l 131 468 l 39 468 l 39 431 l 131 431 l 131 123 q 128 76 131 96 q 116 44 125 56 q 90 25 107 31 q 41 20 72 20 l 41 0 l 323 0 l 323 20 q 267 23 288 20 q 234 36 245 26 q 219 67 222 47 q 215 123 215 88 l 215 431 l 336 431 l 336 468 l 215 468 l 215 518 q 217 583 215 551 q 225 637 218 614 q 247 675 233 661 q 286 689 261 689 q 327 675 311 689 q 357 643 344 661 q 384 612 371 626 q 414 597 397 597 q 429 601 422 597 q 443 611 437 605 q 452 624 448 616 q 456 639 456 631 "},"g":{"ha":524,"x_min":31,"x_max":504,"o":"m 504 427 q 499 446 504 444 q 481 449 494 449 q 454 447 467 449 q 427 446 440 446 q 384 451 405 446 q 342 464 363 457 q 299 476 321 471 q 256 482 278 482 q 185 470 218 482 q 125 437 151 458 q 84 384 100 415 q 69 313 69 352 q 75 269 69 290 q 93 229 81 248 q 121 195 104 210 q 158 171 138 180 q 134 150 148 163 q 107 122 120 137 q 85 91 94 107 q 77 61 77 75 q 82 44 77 52 q 94 28 87 35 q 110 14 102 20 q 125 4 118 8 q 99 -22 115 -5 q 68 -57 83 -39 q 42 -95 53 -76 q 31 -129 31 -115 q 42 -160 31 -146 q 72 -185 54 -174 q 113 -204 90 -196 q 159 -217 136 -212 q 202 -224 182 -222 q 236 -227 223 -227 q 292 -222 262 -227 q 351 -207 321 -217 q 407 -182 380 -197 q 454 -146 433 -167 q 486 -100 474 -125 q 498 -43 498 -74 q 483 13 498 -8 q 443 46 468 34 q 387 62 418 58 q 321 68 355 67 q 256 70 288 70 q 200 73 224 70 q 160 82 175 75 q 144 104 144 89 q 157 136 144 122 q 183 161 170 151 q 219 154 201 156 q 254 151 237 151 q 323 161 290 151 q 382 192 357 172 q 424 241 408 212 q 439 310 439 271 q 432 358 439 334 q 411 403 426 383 q 434 401 420 402 q 461 400 448 400 q 491 405 478 400 q 504 427 504 410 m 349 296 q 345 252 349 273 q 331 214 341 231 q 304 186 321 197 q 261 176 288 176 q 211 192 231 176 q 179 231 191 208 q 162 283 167 255 q 158 335 158 311 q 162 378 158 356 q 177 417 167 400 q 204 446 187 435 q 248 457 222 457 q 297 441 277 457 q 328 400 317 425 q 344 348 340 376 q 349 296 349 319 m 461 -62 q 442 -113 461 -93 q 395 -144 422 -132 q 336 -160 367 -155 q 282 -164 305 -164 q 253 -163 271 -164 q 216 -159 236 -162 q 177 -151 197 -156 q 141 -137 157 -145 q 115 -117 125 -129 q 104 -90 104 -106 q 109 -65 104 -78 q 121 -41 114 -53 q 137 -19 129 -29 q 153 0 145 -8 q 212 -3 176 -2 q 286 -6 248 -5 q 357 -11 323 -8 q 411 -18 391 -14 q 429 -24 420 -20 q 445 -32 438 -27 q 457 -45 452 -37 q 461 -62 461 -52 "},"h":{"ha":524,"x_min":5,"x_max":518,"o":"m 288 0 l 518 0 l 518 20 q 482 23 496 20 q 461 36 469 27 q 451 60 454 45 q 449 96 449 74 l 449 271 q 447 341 449 304 q 432 410 444 378 q 396 461 420 441 q 326 482 371 482 q 278 474 300 482 q 236 453 256 467 q 201 422 217 440 q 171 385 184 405 l 171 726 l 147 726 l 5 671 l 14 653 q 33 659 23 656 q 52 661 42 661 q 80 642 74 661 q 86 590 86 623 l 86 96 q 83 60 86 74 q 73 36 81 45 q 50 23 64 27 q 14 20 36 20 l 14 0 l 245 0 l 245 20 q 207 23 221 20 q 184 34 192 26 q 173 57 176 43 q 171 96 171 72 l 171 353 q 195 377 182 365 q 222 398 208 389 q 254 413 237 408 q 288 419 270 419 q 330 407 315 419 q 352 376 345 395 q 361 331 359 356 q 363 279 363 306 l 363 96 q 360 58 363 73 q 348 35 357 43 q 325 23 340 26 q 288 20 311 20 l 288 0 "},"i":{"ha":292,"x_min":32,"x_max":268,"o":"m 205 628 q 190 664 205 649 q 154 679 175 679 q 117 664 132 679 q 102 628 102 650 q 117 590 102 605 q 154 575 132 575 q 191 591 176 575 q 205 628 205 606 m 39 0 l 268 0 l 268 20 q 231 23 245 20 q 209 35 217 26 q 199 59 201 44 q 196 96 196 73 l 196 482 l 174 482 l 32 425 l 39 407 q 58 413 48 410 q 75 415 67 415 q 95 409 87 415 q 105 392 102 402 q 110 370 109 382 q 111 346 111 357 l 111 96 q 109 59 111 73 q 98 35 106 44 q 76 23 90 26 q 39 20 62 20 l 39 0 "},"j":{"ha":292,"x_min":-81,"x_max":204,"o":"m 204 628 q 188 664 204 649 q 151 679 172 679 q 115 664 130 679 q 100 628 100 649 q 115 590 100 605 q 151 575 130 575 q 189 591 173 575 q 204 628 204 606 m 196 9 l 196 482 l 174 482 l 32 425 l 39 407 q 74 414 58 414 q 95 406 87 414 q 106 385 102 398 q 110 353 109 372 q 111 313 111 334 l 111 -56 q 110 -102 111 -79 q 105 -143 109 -125 q 91 -173 100 -161 q 64 -184 81 -184 q 39 -176 50 -184 q 17 -158 28 -168 q -8 -139 5 -148 q -39 -131 -21 -131 q -68 -144 -56 -131 q -81 -175 -81 -157 q -71 -199 -81 -189 q -46 -215 -60 -209 q -16 -224 -31 -221 q 11 -227 0 -227 q 98 -207 63 -227 q 155 -154 134 -186 q 186 -78 177 -121 q 196 9 196 -36 "},"k":{"ha":524,"x_min":7,"x_max":529,"o":"m 302 0 l 529 0 l 529 20 q 495 22 509 20 q 466 34 480 25 q 437 59 452 43 q 399 104 421 76 l 252 288 l 375 397 q 405 422 391 412 q 434 439 419 432 q 466 449 449 446 q 505 453 484 452 l 505 468 l 302 468 l 302 453 q 315 451 309 452 q 327 447 321 450 q 336 438 332 444 q 339 427 339 433 q 333 412 339 420 q 319 395 327 404 q 302 380 311 387 q 290 370 294 373 l 172 269 l 172 726 l 149 726 l 7 671 l 17 653 q 33 659 25 656 q 50 661 41 661 q 78 643 71 661 q 85 581 85 624 l 85 103 q 82 61 85 77 q 72 36 80 45 q 48 23 64 26 q 7 20 33 20 l 7 0 l 248 0 l 248 20 q 205 24 220 20 q 183 38 190 28 q 174 65 176 48 q 172 106 172 81 l 172 258 l 315 78 q 328 59 321 69 q 335 37 335 49 q 332 28 335 31 q 323 22 328 24 q 313 20 319 20 q 302 20 307 20 l 302 0 "},"l":{"ha":292,"x_min":31,"x_max":269,"o":"m 39 0 l 269 0 l 269 20 q 229 24 243 20 q 206 39 214 29 q 196 66 198 50 q 193 106 193 82 l 193 726 l 171 726 l 31 671 l 39 653 q 55 658 47 656 q 71 660 62 660 q 91 653 83 660 q 102 635 98 646 q 107 608 106 623 q 109 576 109 593 l 109 106 q 107 69 109 85 q 98 42 105 53 q 77 25 91 31 q 39 20 63 20 l 39 0 "},"m":{"ha":815,"x_min":7,"x_max":811,"o":"m 579 0 l 811 0 l 811 20 q 772 25 787 20 q 751 41 758 30 q 742 68 744 52 q 741 106 741 84 l 741 309 q 735 372 741 340 q 716 427 730 403 q 679 467 703 452 q 616 482 654 482 q 566 474 589 482 q 524 451 543 465 q 487 420 504 437 q 453 383 469 402 q 413 456 441 430 q 334 482 384 482 q 285 473 307 482 q 242 450 262 465 q 205 418 222 436 q 171 383 187 401 l 171 482 l 149 482 l 7 425 l 16 407 q 33 413 24 410 q 50 415 41 415 q 70 408 62 415 q 81 388 77 400 q 85 360 84 376 q 86 330 86 345 l 86 106 q 84 67 86 83 q 76 40 83 51 q 55 25 68 30 q 16 20 41 20 l 16 0 l 248 0 l 248 20 q 205 24 221 20 q 182 38 190 28 q 173 65 175 48 q 171 106 171 81 l 171 357 q 196 381 183 369 q 225 402 210 393 q 257 417 240 411 q 292 422 273 422 q 332 412 316 422 q 356 386 347 402 q 368 349 364 370 q 371 309 371 329 l 371 106 q 369 64 371 81 q 360 38 368 47 q 337 24 353 28 q 294 20 322 20 l 294 0 l 532 0 l 532 20 q 490 24 505 20 q 467 38 475 28 q 458 65 460 48 q 456 106 456 81 l 456 357 q 481 380 468 369 q 510 401 495 392 q 542 416 526 410 q 576 421 559 421 q 616 411 601 421 q 640 385 631 401 q 651 348 648 368 q 654 309 654 328 l 654 106 q 653 65 654 81 q 644 38 651 48 q 622 24 637 28 q 579 20 606 20 l 579 0 "},"n":{"ha":524,"x_min":5,"x_max":522,"o":"m 288 0 l 522 0 l 522 20 q 482 25 496 20 q 460 40 467 30 q 451 67 453 51 q 449 106 449 83 l 449 306 q 444 369 449 337 q 426 426 439 400 q 388 467 412 451 q 326 482 364 482 q 280 473 302 482 q 238 450 258 464 q 201 418 218 435 q 170 383 184 400 l 170 482 l 149 482 l 5 425 l 12 407 q 30 413 21 410 q 47 415 39 415 q 67 407 60 415 q 78 386 74 399 q 82 356 81 372 q 83 321 83 339 l 83 106 q 82 67 83 83 q 74 40 81 51 q 52 25 66 30 q 12 20 38 20 l 12 0 l 245 0 l 245 20 q 204 24 219 20 q 181 38 189 28 q 172 65 174 48 q 170 106 170 81 l 170 353 q 194 377 181 365 q 223 398 208 389 q 255 413 238 408 q 290 419 272 419 q 331 408 316 419 q 353 378 346 396 q 362 338 361 360 q 364 297 364 317 l 364 106 q 362 64 364 81 q 352 38 360 47 q 329 24 345 28 q 288 20 314 20 l 288 0 "},"o":{"ha":524,"x_min":35,"x_max":488,"o":"m 488 243 q 472 336 488 292 q 426 412 456 380 q 355 464 397 445 q 262 482 313 482 q 168 461 210 482 q 96 405 126 440 q 51 324 66 370 q 35 229 35 279 q 51 138 35 182 q 95 59 66 94 q 165 5 124 25 q 257 -16 206 -16 q 353 6 311 -16 q 426 63 396 27 q 472 145 456 98 q 488 243 488 192 m 392 203 q 388 142 392 174 q 372 84 384 111 q 337 40 359 57 q 278 22 315 22 q 228 35 250 22 q 189 67 205 47 q 162 114 173 87 q 144 168 151 140 q 134 222 137 195 q 131 272 131 250 q 136 331 131 300 q 153 388 140 362 q 189 432 166 414 q 245 449 211 449 q 296 437 274 449 q 335 405 319 425 q 362 360 351 385 q 380 307 373 334 q 389 252 387 279 q 392 203 392 225 "},"p":{"ha":524,"x_min":-5,"x_max":489,"o":"m 489 252 q 478 332 489 291 q 447 406 468 373 q 392 461 425 439 q 313 482 358 482 q 264 473 286 482 q 223 448 242 463 q 190 412 205 432 q 163 371 175 392 l 163 481 l 143 481 l -3 422 l 3 404 q 37 412 19 412 q 58 407 51 412 q 70 390 66 401 q 74 365 73 380 q 75 330 75 349 l 75 -113 q 73 -158 75 -140 q 63 -186 71 -176 q 39 -200 56 -196 q -5 -205 23 -205 l -5 -225 l 241 -225 l 241 -205 q 198 -200 214 -205 q 175 -185 182 -195 q 165 -158 167 -175 q 163 -115 163 -141 l 163 28 q 214 -5 186 6 q 273 -16 242 -16 q 367 8 327 -16 q 435 71 408 33 q 475 156 462 109 q 489 252 489 204 m 407 203 q 400 139 407 172 q 377 79 393 106 q 335 34 361 52 q 272 17 309 17 q 214 29 235 17 q 181 62 193 41 q 166 110 170 83 q 163 165 163 136 l 163 340 q 217 396 190 373 q 272 419 243 419 q 339 397 313 419 q 380 343 366 376 q 401 273 395 311 q 407 203 407 235 "},"q":{"ha":524,"x_min":35,"x_max":525,"o":"m 288 -225 l 525 -225 l 525 -205 q 484 -201 499 -205 q 461 -187 469 -197 q 451 -161 454 -177 q 449 -121 449 -144 l 449 482 l 431 482 q 372 449 404 463 q 328 475 353 469 q 277 482 302 482 q 175 460 220 482 q 99 401 130 438 q 51 315 68 364 q 35 214 35 267 q 45 135 35 175 q 78 61 56 94 q 133 6 100 27 q 210 -16 165 -16 q 255 -7 233 -16 q 296 16 277 2 q 333 47 315 30 q 364 82 350 64 l 364 -121 q 362 -161 364 -145 q 351 -188 359 -178 q 328 -201 343 -197 q 288 -205 313 -205 l 288 -225 m 364 334 l 364 113 q 319 74 345 91 q 262 57 293 57 q 196 75 223 57 q 152 121 169 93 q 128 184 136 149 q 121 252 121 218 q 127 318 121 284 q 151 381 134 353 q 193 427 167 409 q 260 446 220 446 q 340 416 315 446 q 364 334 364 386 "},"r":{"ha":358,"x_min":4,"x_max":357,"o":"m 357 425 q 351 449 357 439 q 336 467 345 460 q 315 478 327 475 q 290 482 302 482 q 251 472 269 482 q 218 445 233 461 q 191 411 203 429 q 170 376 178 393 l 170 482 l 149 482 l 4 425 l 9 407 q 41 414 26 414 q 65 406 56 414 q 77 385 73 399 q 82 352 81 371 q 83 308 83 332 l 83 106 q 82 65 83 81 q 73 38 80 48 q 51 24 65 28 q 9 20 36 20 l 9 0 l 252 0 l 252 20 q 186 42 203 20 q 170 109 170 64 l 170 335 q 204 391 186 368 q 237 414 222 414 q 254 408 246 414 q 270 396 261 402 q 288 384 278 389 q 310 378 297 378 q 343 392 329 378 q 357 425 357 406 "},"s":{"ha":408,"x_min":52,"x_max":371,"o":"m 371 118 q 352 188 371 161 q 303 234 332 216 q 241 267 275 253 q 179 297 208 281 q 131 335 150 313 q 111 390 111 356 q 120 421 111 409 q 141 441 128 434 q 171 450 155 448 q 201 453 186 453 q 251 442 230 453 q 288 412 273 431 q 312 371 302 394 q 328 322 322 347 l 346 322 l 346 482 l 328 482 q 319 469 324 475 q 306 464 314 464 q 280 467 293 464 q 255 473 268 469 q 229 479 242 477 q 203 482 216 482 q 147 475 174 482 q 98 452 119 467 q 64 413 77 436 q 52 357 52 389 q 70 292 52 318 q 115 247 87 266 q 173 212 142 227 q 231 180 204 197 q 276 141 258 163 q 294 86 294 119 q 288 56 294 69 q 270 35 281 43 q 244 21 258 26 q 214 17 229 17 q 159 29 183 17 q 117 61 135 41 q 87 106 99 81 q 71 160 76 132 l 53 160 l 53 -7 l 71 -7 q 74 -1 72 -5 q 78 7 75 3 q 83 14 80 11 q 89 17 85 17 q 116 12 101 17 q 146 1 130 7 q 180 -11 163 -5 q 214 -16 197 -16 q 270 -6 241 -16 q 320 21 298 3 q 357 63 342 39 q 371 118 371 87 "},"t":{"ha":292,"x_min":8,"x_max":292,"o":"m 292 86 l 272 86 q 250 55 264 66 q 214 43 237 43 q 190 51 199 43 q 176 70 181 58 q 170 96 172 82 q 168 121 168 109 l 168 433 l 278 433 l 278 468 l 168 468 l 168 623 l 153 623 q 129 572 142 598 q 97 521 115 545 q 57 478 79 497 q 8 449 35 459 l 8 433 l 82 433 l 82 109 q 86 62 82 85 q 101 23 90 40 q 130 -5 112 5 q 175 -16 147 -16 q 215 -7 196 -16 q 249 16 234 1 q 275 48 264 30 q 292 86 286 66 "},"u":{"ha":524,"x_min":0,"x_max":525,"o":"m 383 -16 l 525 43 l 518 61 q 476 53 496 53 q 458 61 465 53 q 449 80 452 69 q 445 104 446 92 q 444 123 444 116 l 444 468 l 283 468 l 283 449 q 318 446 303 449 q 341 436 332 444 q 355 415 351 429 q 359 380 359 401 l 359 115 q 335 92 349 104 q 307 71 322 80 q 276 55 292 61 q 243 49 260 49 q 204 58 219 49 q 180 82 189 67 q 169 116 172 97 q 165 155 165 135 l 165 468 l 0 468 l 0 449 q 37 446 22 449 q 62 436 52 444 q 75 414 71 428 q 79 376 79 399 l 79 167 q 84 104 79 136 q 101 45 88 71 q 138 1 115 18 q 200 -16 162 -16 q 247 -6 224 -16 q 289 18 269 3 q 326 50 309 33 q 359 85 344 68 l 359 -16 l 383 -16 "},"v":{"ha":524,"x_min":8,"x_max":514,"o":"m 514 449 l 514 468 l 361 468 l 361 449 q 380 448 371 449 q 397 445 390 448 q 409 438 405 443 q 414 425 414 433 q 410 402 414 414 q 403 382 407 391 l 293 113 l 184 371 q 177 391 180 380 q 174 412 174 401 q 178 433 174 426 q 191 444 183 441 q 208 448 198 448 q 229 449 218 449 l 229 468 l 8 468 l 8 449 q 38 441 25 446 q 59 429 50 437 q 76 410 68 422 q 90 382 83 399 l 258 -16 l 279 -16 l 444 387 q 456 413 450 401 q 469 432 461 424 q 487 444 476 439 q 514 449 498 448 "},"w":{"ha":755,"x_min":5,"x_max":747,"o":"m 747 449 l 747 468 l 599 468 l 599 449 q 614 448 606 449 q 630 445 623 448 q 643 437 637 442 q 648 424 648 433 q 645 401 648 412 q 637 379 642 390 l 541 121 q 527 153 536 130 q 504 207 517 176 q 478 270 492 237 q 453 332 465 302 q 435 382 442 361 q 428 408 428 403 q 434 430 428 422 q 449 442 439 438 q 469 447 458 446 q 492 449 480 448 l 492 468 l 268 468 l 268 449 q 312 438 296 448 q 337 412 328 429 q 353 375 347 396 q 368 329 359 353 l 268 110 l 167 379 q 162 397 163 387 q 160 416 160 407 q 173 443 160 437 q 203 449 186 449 l 203 468 l 5 468 l 5 449 q 35 440 24 446 q 55 427 47 435 q 69 407 63 419 q 81 379 75 395 l 232 -16 l 252 -16 l 386 285 l 504 -16 l 525 -16 l 681 390 q 706 430 690 414 q 747 449 722 446 "},"x":{"ha":524,"x_min":14,"x_max":511,"o":"m 290 0 l 511 0 l 511 20 q 486 23 497 20 q 463 35 475 26 q 438 60 452 44 q 407 103 425 77 l 286 275 q 317 322 298 293 q 359 379 336 351 q 408 428 382 407 q 461 449 434 448 l 461 468 l 302 468 l 302 449 q 328 445 315 449 q 340 425 340 440 q 331 401 340 418 q 308 366 321 385 q 282 331 295 347 q 265 307 270 314 q 249 331 260 314 q 226 366 238 347 q 205 401 214 385 q 196 424 196 418 q 206 444 196 439 q 229 449 216 449 l 235 449 l 235 468 l 14 468 l 14 449 q 50 442 35 448 q 78 425 65 436 q 101 400 90 414 q 125 367 113 385 l 214 237 l 115 107 q 83 65 96 82 q 58 39 69 49 q 38 24 47 28 q 18 20 28 20 l 18 0 l 171 0 l 171 20 q 155 21 163 20 q 140 26 147 22 q 129 35 134 29 q 125 50 125 41 q 132 69 125 57 q 149 97 138 81 q 172 129 159 113 q 197 161 185 146 q 220 189 210 176 q 235 207 230 201 q 248 189 239 201 q 268 160 256 176 q 291 127 279 144 q 313 93 303 109 q 330 65 323 77 q 336 49 336 54 q 332 34 336 39 q 321 25 328 28 q 306 21 314 22 q 290 20 298 20 l 290 0 "},"y":{"ha":524,"x_min":5,"x_max":518,"o":"m 518 449 l 518 468 l 366 468 l 366 449 q 382 449 374 449 q 398 446 391 448 q 409 437 405 443 q 414 421 414 431 q 410 402 414 412 q 403 383 407 393 l 298 123 l 184 359 q 173 387 178 372 q 167 415 167 401 q 172 435 167 428 q 186 445 178 441 q 205 448 195 448 q 225 449 215 449 l 225 468 l 5 468 l 5 449 q 36 440 22 447 q 59 423 49 433 q 76 399 68 412 q 90 372 83 386 l 258 20 q 250 -3 255 12 q 238 -35 245 -18 q 222 -72 231 -53 q 202 -105 213 -90 q 180 -131 192 -121 q 154 -140 168 -140 q 137 -138 146 -140 q 119 -131 128 -135 q 101 -125 110 -127 q 82 -122 92 -122 q 45 -133 59 -122 q 31 -168 31 -143 q 37 -193 31 -182 q 52 -212 43 -204 q 74 -223 62 -219 q 100 -227 87 -227 q 153 -214 128 -227 q 197 -182 177 -201 q 233 -137 218 -162 q 258 -89 248 -113 l 449 379 q 460 406 455 393 q 473 427 466 418 q 491 442 481 436 q 518 449 502 448 "},"z":{"ha":465,"x_min":21,"x_max":449,"o":"m 134 35 l 449 449 l 449 468 l 56 468 l 53 339 l 72 339 q 81 388 75 369 q 99 416 87 406 q 130 430 111 427 q 178 433 149 433 l 332 433 l 21 20 l 21 0 l 433 0 l 440 143 l 422 143 q 413 88 418 109 q 396 55 408 67 q 363 39 384 43 q 306 35 342 35 l 134 35 "},"{":{"ha":500,"x_min":111,"x_max":396,"o":"m 396 -225 l 396 -207 q 312 -162 342 -195 q 282 -72 282 -129 q 286 -37 282 -54 q 293 -2 289 -20 q 301 32 298 15 q 304 68 304 50 q 267 183 304 139 q 164 252 229 228 q 266 318 228 275 q 304 432 304 362 q 301 468 304 450 q 293 503 298 486 q 286 538 289 521 q 282 574 282 556 q 312 663 282 630 q 396 708 342 696 l 396 726 q 326 707 360 723 q 265 666 292 691 q 222 609 238 642 q 205 538 205 576 q 209 496 205 517 q 217 456 213 476 q 225 415 222 435 q 229 374 229 395 q 219 332 229 351 q 191 299 208 313 q 153 276 174 285 q 111 264 132 267 l 111 237 q 153 225 132 235 q 191 202 174 216 q 219 168 208 187 q 229 126 229 149 q 225 87 229 106 q 217 48 222 68 q 209 10 213 29 q 205 -29 205 -9 q 221 -102 205 -68 q 264 -162 237 -136 q 325 -204 290 -188 q 396 -225 359 -221 "},"|":{"ha":210,"x_min":82,"x_max":126,"o":"m 82 -227 l 126 -227 l 126 726 l 82 726 l 82 -227 "},"}":{"ha":500,"x_min":104,"x_max":389,"o":"m 389 237 l 389 264 q 347 276 368 267 q 310 299 326 285 q 282 332 293 313 q 272 374 272 351 q 275 415 272 395 q 283 456 279 435 q 291 496 288 476 q 294 538 294 517 q 278 609 294 576 q 235 666 262 642 q 175 707 209 691 q 104 726 140 723 l 104 708 q 188 663 157 696 q 218 574 218 630 q 215 538 218 556 q 207 503 212 521 q 199 468 203 486 q 196 432 196 450 q 234 318 196 362 q 336 252 273 275 q 279 223 304 239 q 235 183 253 206 q 206 132 216 161 q 196 68 196 103 q 199 32 196 50 q 207 -2 203 15 q 215 -37 212 -20 q 218 -72 218 -54 q 188 -162 218 -129 q 104 -207 157 -195 l 104 -225 q 175 -204 141 -221 q 236 -162 210 -188 q 278 -102 262 -136 q 294 -29 294 -68 q 291 10 294 -9 q 283 48 288 29 q 275 87 279 68 q 272 126 272 106 q 282 168 272 149 q 310 202 293 187 q 347 225 326 216 q 389 237 368 235 "},"~":{"ha":570,"x_min":21,"x_max":550,"o":"m 550 322 l 521 361 q 502 328 513 345 q 477 298 491 311 q 447 277 464 286 q 411 269 431 269 q 355 281 386 269 q 292 308 325 294 q 227 335 260 323 q 165 347 195 347 q 115 337 137 347 q 76 309 94 326 q 46 270 59 292 q 21 227 33 248 l 49 189 q 69 222 58 205 q 93 254 80 239 q 123 277 106 268 q 160 286 139 286 q 221 274 191 286 q 282 249 252 262 q 343 223 313 235 q 406 211 374 211 q 453 220 431 211 q 493 245 475 230 q 525 281 511 261 q 550 322 539 301 "},"":{"ha":644,"x_min":0,"x_max":607,"o":"m 607 135 l 591 146 q 514 61 555 93 q 414 29 472 29 q 324 46 362 29 q 259 94 286 64 q 216 166 232 125 q 193 257 200 208 l 460 257 l 481 307 l 189 307 q 187 324 187 315 q 187 340 187 332 q 187 357 187 349 q 189 374 187 366 l 498 374 l 519 424 l 193 424 q 211 517 198 473 q 248 597 224 562 q 309 652 272 631 q 399 672 346 672 q 458 659 431 672 q 509 623 486 646 q 549 570 532 600 q 576 507 566 541 l 591 507 l 579 708 l 561 708 q 540 670 553 680 q 517 661 527 661 q 507 669 515 661 q 483 685 498 676 q 444 701 467 693 q 390 708 421 708 q 277 687 329 708 q 185 627 225 665 q 118 537 144 589 q 79 424 91 485 l 21 424 l 0 374 l 72 374 q 71 356 71 365 q 71 340 71 348 q 71 323 71 332 q 72 307 71 315 l 22 307 l 1 257 l 78 257 q 115 146 89 197 q 180 60 142 96 q 269 3 219 24 q 375 -17 318 -17 q 455 -7 421 -17 q 516 21 490 2 q 564 69 543 41 q 607 135 585 97 "},"":{"ha":349,"x_min":98,"x_max":254,"o":"m 254 0 q 248 37 254 18 q 231 69 242 55 q 203 93 219 83 q 167 102 186 102 q 142 98 154 102 q 120 86 130 94 q 104 67 110 78 q 98 41 98 56 q 102 21 98 31 q 113 4 106 12 q 130 -8 120 -3 q 150 -12 139 -12 q 169 -8 159 -12 q 189 -4 178 -4 q 204 -15 201 -4 q 207 -35 207 -25 q 199 -69 207 -53 q 179 -98 191 -85 q 151 -122 166 -111 q 122 -142 136 -134 l 122 -163 q 176 -139 151 -153 q 217 -105 200 -125 q 244 -59 235 -85 q 254 0 254 -33 "},"":{"ha":524,"x_min":1,"x_max":511,"o":"m 511 653 q 505 677 511 667 q 489 694 499 688 q 466 705 479 701 q 441 708 454 708 q 385 692 408 708 q 345 653 361 677 q 317 600 329 629 q 297 544 306 571 q 279 495 288 517 q 258 464 270 473 q 242 456 252 459 q 220 452 232 454 q 198 449 209 450 q 179 447 186 448 l 172 414 l 261 414 q 228 282 244 348 q 199 150 212 217 q 178 43 188 97 q 155 -62 168 -10 q 145 -97 151 -75 q 129 -139 139 -118 q 106 -174 119 -159 q 75 -189 93 -189 q 65 -187 70 -189 q 61 -179 61 -185 q 67 -166 61 -174 q 74 -150 74 -159 q 63 -130 74 -138 q 40 -122 52 -122 q 10 -135 19 -122 q 1 -167 1 -147 q 20 -206 1 -193 q 62 -220 39 -220 q 116 -206 92 -220 q 160 -169 140 -192 q 194 -117 179 -146 q 221 -58 210 -88 q 242 1 233 -28 q 256 52 250 29 q 305 232 281 142 q 345 414 329 321 l 433 414 l 441 447 l 351 447 q 355 480 353 458 q 362 529 358 503 q 372 583 366 555 q 387 634 378 611 q 408 672 396 657 q 437 686 420 686 q 450 684 445 686 q 456 672 456 681 q 450 659 456 668 q 444 640 444 649 q 453 619 444 625 q 476 612 462 612 q 503 624 495 612 q 511 653 511 635 "},"":{"ha":464,"x_min":35,"x_max":435,"o":"m 435 -1 q 429 36 435 18 q 411 69 422 54 q 382 93 399 83 q 346 102 366 102 q 321 97 333 102 q 299 85 309 93 q 285 66 290 77 q 279 41 279 55 q 294 4 279 20 q 330 -12 309 -12 q 349 -9 340 -12 q 368 -5 359 -5 q 384 -16 380 -5 q 387 -36 387 -26 q 379 -70 387 -54 q 358 -99 371 -85 q 331 -123 346 -112 q 302 -142 316 -134 l 302 -164 q 356 -139 332 -154 q 398 -105 380 -125 q 425 -60 415 -85 q 435 -1 435 -34 m 191 0 q 184 37 191 18 q 166 69 178 55 q 138 93 155 83 q 102 102 122 102 q 55 86 75 102 q 35 41 35 70 q 49 4 35 20 q 86 -12 63 -12 q 105 -8 96 -12 q 123 -4 114 -4 q 134 -7 130 -4 q 140 -15 138 -10 q 142 -25 142 -20 q 143 -35 143 -30 q 135 -69 143 -53 q 114 -98 127 -85 q 86 -122 101 -111 q 57 -142 71 -134 l 57 -163 q 111 -139 87 -153 q 153 -105 136 -125 q 181 -59 171 -85 q 191 0 191 -33 "},"":{"ha":1048,"x_min":119,"x_max":930,"o":"m 930 43 q 914 83 930 67 q 873 100 897 100 q 834 83 850 100 q 818 43 818 67 q 833 2 818 19 q 873 -16 848 -16 q 915 2 899 -16 q 930 43 930 19 m 581 43 q 564 83 581 67 q 524 100 547 100 q 483 83 500 100 q 467 43 467 67 q 483 2 467 19 q 524 -16 498 -16 q 564 2 547 -16 q 581 43 581 19 m 232 43 q 215 83 232 67 q 175 100 199 100 q 135 83 151 100 q 119 43 119 67 q 135 2 119 19 q 175 -16 150 -16 q 216 2 200 -16 q 232 43 232 19 "},"":{"ha":524,"x_min":52,"x_max":472,"o":"m 472 467 q 456 503 472 488 q 418 517 439 517 q 381 511 399 517 q 345 497 363 505 q 307 483 326 490 q 268 476 288 477 q 276 521 269 499 q 292 565 283 543 q 308 608 301 586 q 315 652 315 629 q 312 675 315 664 q 301 696 308 687 q 283 711 294 705 q 260 717 273 717 q 217 697 232 717 q 203 652 203 677 q 210 606 203 627 q 227 564 218 585 q 243 521 235 543 q 250 476 250 500 q 210 484 229 477 q 172 498 191 490 q 137 512 154 505 q 104 518 120 518 q 84 514 94 518 q 67 503 75 510 q 56 487 60 496 q 52 467 52 477 q 65 429 52 441 q 104 418 79 418 q 140 424 123 418 q 176 437 158 430 q 212 450 194 444 q 250 457 231 456 q 245 421 248 437 q 237 391 243 406 q 222 364 231 377 q 197 338 213 351 q 225 202 215 271 q 240 63 235 133 q 247 -76 245 -6 q 250 -214 249 -145 l 268 -214 q 272 -75 270 -144 q 278 63 273 -6 q 293 201 283 132 q 319 338 302 270 q 281 391 292 359 q 268 457 269 422 q 308 449 289 456 q 345 436 327 443 q 381 423 363 429 q 419 418 399 418 q 457 430 441 418 q 472 467 472 443 "},"":{"ha":524,"x_min":71,"x_max":453,"o":"m 453 -7 q 438 25 453 13 q 404 37 424 37 q 370 32 387 37 q 338 21 354 27 q 305 9 321 14 q 271 3 288 3 q 286 50 275 32 q 319 86 296 68 q 282 163 294 122 q 271 248 271 205 q 282 334 271 292 q 319 412 294 376 q 298 431 307 422 q 284 450 290 439 q 276 472 279 460 q 271 500 273 484 q 304 491 288 497 q 337 479 321 486 q 370 469 354 473 q 404 464 387 464 q 439 475 426 464 q 453 509 453 486 q 441 543 453 532 q 407 554 429 554 q 373 549 389 554 q 339 537 356 544 q 306 525 323 531 q 271 518 289 519 q 279 559 273 538 q 293 598 286 579 q 306 635 300 618 q 311 668 311 653 q 300 710 311 694 q 262 726 290 726 q 224 710 239 726 q 210 671 210 694 q 216 633 210 652 q 230 596 222 614 q 244 558 238 577 q 252 518 251 538 q 217 525 234 519 q 182 537 199 531 q 149 549 165 544 q 115 554 132 554 q 71 510 71 554 q 115 465 71 465 q 150 470 134 465 q 183 481 167 475 q 217 493 200 487 q 252 500 233 498 q 245 472 248 484 q 237 450 242 460 q 223 431 231 440 q 201 412 215 422 q 241 338 231 380 q 252 254 252 296 q 239 166 252 210 q 201 86 227 123 q 223 68 215 76 q 236 52 231 60 q 244 32 241 43 q 252 4 248 20 q 217 9 234 4 q 185 21 201 14 q 154 32 170 27 q 122 37 138 37 q 85 26 98 37 q 72 -9 72 16 q 119 -54 72 -54 q 149 -49 134 -54 q 180 -37 164 -43 q 214 -25 197 -31 q 252 -20 232 -20 q 242 -58 249 -38 q 229 -98 235 -78 q 216 -136 222 -117 q 211 -171 211 -155 q 215 -191 211 -181 q 226 -209 219 -201 q 242 -222 233 -217 q 262 -227 252 -227 q 300 -210 286 -227 q 314 -171 314 -193 q 308 -134 314 -153 q 295 -96 302 -115 q 280 -57 287 -77 q 271 -20 273 -38 q 306 -26 289 -20 q 339 -38 323 -31 q 372 -49 356 -44 q 404 -54 388 -54 q 453 -7 453 -54 "},"":{"ha":328,"x_min":0,"x_max":328,"o":"m 292 533 l 328 533 l 197 708 l 132 708 l 0 533 l 36 533 l 164 642 l 292 533 "},"":{"ha":1105,"x_min":18,"x_max":1088,"o":"m 1088 260 q 1079 304 1088 283 q 1056 341 1071 326 q 1021 366 1041 357 q 977 375 1000 375 q 890 353 931 375 q 818 295 849 330 q 767 216 786 260 q 749 129 749 172 q 780 23 749 61 q 880 -16 810 -16 q 942 -3 913 -16 q 993 31 970 9 q 1034 80 1016 52 q 1063 138 1051 108 q 1082 200 1076 169 q 1088 260 1088 231 m 711 260 q 703 304 711 283 q 680 341 694 326 q 644 366 665 357 q 599 375 623 375 q 513 353 554 375 q 441 295 472 330 q 391 216 410 260 q 372 129 372 172 q 403 23 372 61 q 504 -16 434 -16 q 591 12 553 -16 q 657 80 630 39 q 697 169 684 121 q 711 260 711 218 m 161 -17 l 595 713 l 532 713 q 501 683 515 696 q 473 660 488 669 q 441 645 459 650 q 399 640 424 640 q 345 651 370 640 q 296 676 319 663 q 255 700 274 689 q 222 711 237 711 q 141 690 178 711 q 76 635 103 669 q 34 560 49 602 q 18 478 18 519 q 25 422 18 449 q 45 374 31 395 q 82 340 60 353 q 138 328 105 328 q 193 340 168 328 q 238 373 218 352 q 274 420 258 393 q 300 476 290 447 q 315 533 310 505 q 321 587 321 562 q 320 608 321 598 q 317 628 319 617 q 393 615 353 615 q 459 628 428 615 q 517 664 491 640 l 111 -17 l 161 -17 m 1060 254 q 1055 207 1060 233 q 1039 155 1049 181 q 1014 103 1029 128 q 981 59 999 79 q 940 28 962 40 q 893 17 918 17 q 845 38 863 17 q 828 87 828 58 q 833 135 828 108 q 848 190 838 161 q 871 245 857 218 q 903 294 885 273 q 942 329 920 315 q 987 342 963 342 q 1019 334 1006 342 q 1042 314 1033 326 q 1056 286 1051 302 q 1060 254 1060 271 m 684 254 q 678 207 684 233 q 663 155 673 181 q 637 103 652 128 q 604 59 623 79 q 564 28 586 40 q 517 17 542 17 q 468 38 485 17 q 452 87 452 58 q 457 134 452 108 q 472 189 462 161 q 495 245 481 218 q 527 294 509 272 q 566 329 545 315 q 611 342 587 342 q 642 334 629 342 q 665 314 656 326 q 679 286 674 302 q 684 254 684 271 m 294 587 q 290 544 294 568 q 277 494 286 519 q 257 445 269 469 q 229 401 245 420 q 193 371 212 382 q 150 359 173 359 q 122 369 132 359 q 106 392 111 378 q 99 421 100 406 q 97 450 97 437 q 105 514 97 477 q 130 586 114 551 q 170 648 146 621 q 224 682 193 675 q 254 657 237 669 q 288 636 270 646 q 294 612 293 626 q 294 587 294 599 "},"":{"ha":582,"x_min":66,"x_max":526,"o":"m 526 178 q 510 250 526 218 q 467 307 494 281 q 406 354 440 333 q 337 394 372 375 q 267 430 301 412 q 207 468 233 448 q 163 511 180 488 q 147 562 147 534 q 158 606 147 587 q 185 639 168 625 q 224 661 203 653 q 269 668 246 668 q 347 652 313 668 q 405 609 381 636 q 444 546 429 583 q 461 469 458 510 l 481 469 l 481 708 l 461 708 q 457 696 460 703 q 451 683 455 689 q 441 673 447 677 q 428 669 436 669 q 399 675 416 669 q 360 689 381 682 q 315 702 338 696 q 268 708 291 708 q 192 695 228 708 q 127 660 155 683 q 83 603 100 636 q 66 526 66 569 q 82 456 66 487 q 124 400 98 425 q 183 353 150 374 q 251 313 216 332 q 318 276 285 294 q 377 236 351 257 q 419 192 403 216 q 435 138 435 168 q 422 88 435 109 q 391 52 410 66 q 347 31 372 38 q 297 24 322 24 q 215 38 251 24 q 153 79 178 53 q 111 142 127 105 q 90 222 96 178 l 72 222 l 72 -17 l 90 -17 q 93 -3 91 -10 q 99 10 95 4 q 108 20 102 16 q 122 24 114 24 q 155 17 135 24 q 200 3 176 11 q 253 -11 225 -4 q 309 -17 281 -17 q 390 -3 351 -17 q 459 35 429 10 q 508 96 490 60 q 526 178 526 132 m 330 757 l 461 932 l 425 932 l 296 825 l 169 932 l 132 932 l 264 757 l 330 757 "},"":{"ha":349,"x_min":61,"x_max":286,"o":"m 258 -4 l 286 -4 l 161 237 l 286 478 l 258 478 l 61 237 l 258 -4 "},"":{"ha":932,"x_min":39,"x_max":901,"o":"m 846 0 l 901 174 l 880 174 q 846 109 864 135 q 805 67 828 83 q 751 45 781 52 q 679 39 720 39 q 618 41 640 39 q 584 51 595 43 q 569 74 572 59 q 566 115 566 90 l 566 343 l 657 343 q 708 338 688 343 q 740 322 728 334 q 758 290 752 310 q 765 240 763 271 l 786 240 l 786 482 l 765 482 q 738 405 765 426 q 657 383 711 383 l 566 383 l 566 656 l 696 656 q 758 652 735 656 q 794 635 781 648 q 815 601 808 623 q 829 542 822 578 l 846 542 l 840 693 l 514 693 q 428 696 466 693 q 364 700 391 700 q 226 672 286 700 q 124 597 165 645 q 60 485 82 549 q 39 346 39 420 q 60 213 39 277 q 121 100 81 149 q 219 21 161 51 q 351 -8 277 -8 q 431 -4 391 -8 q 511 0 471 0 l 846 0 m 467 533 l 467 174 q 464 113 467 140 q 451 67 461 85 q 420 38 441 48 q 363 28 399 28 q 290 42 321 28 q 236 80 259 56 q 197 135 213 104 q 173 202 182 167 q 159 273 163 237 q 155 342 155 309 q 159 412 155 375 q 172 486 163 450 q 196 554 180 522 q 234 612 211 587 q 289 652 257 637 q 364 667 321 667 q 420 657 400 667 q 451 629 441 647 q 464 587 461 612 q 467 533 467 563 "},"":{"ha":639,"x_min":14,"x_max":610,"o":"m 578 0 l 610 183 l 595 186 q 572 125 584 152 q 542 80 559 98 q 497 51 524 61 q 431 41 470 41 l 147 41 l 603 693 l 90 693 l 75 519 l 94 519 q 109 582 100 556 q 133 623 117 608 q 173 646 148 639 q 236 653 197 653 l 457 653 l 14 20 l 14 0 l 578 0 m 380 757 l 511 932 l 475 932 l 347 825 l 219 932 l 182 932 l 314 757 l 380 757 "},"":{"ha":329,"x_min":0,"x_max":329,"o":"m 197 533 l 329 709 l 292 709 l 164 601 l 37 709 l 0 709 l 132 533 l 197 533 "},"":{"ha":195,"x_min":0,"x_max":195,"o":"m 195 631 q 187 671 195 653 q 165 702 179 690 q 135 722 152 715 q 99 728 117 728 q 61 721 79 728 q 30 701 43 714 q 8 670 16 688 q 0 631 0 652 q 8 591 0 609 q 31 560 17 573 q 63 540 45 547 q 99 533 81 533 q 135 540 117 533 q 165 560 152 547 q 187 591 179 573 q 195 631 195 609 m 160 631 q 155 607 160 618 q 142 587 151 595 q 123 573 134 578 q 99 568 112 568 q 75 572 87 568 q 55 585 64 576 q 41 604 46 593 q 35 631 35 616 q 54 676 35 659 q 99 693 73 693 q 122 689 111 693 q 141 676 133 684 q 155 656 150 668 q 160 631 160 645 "},"":{"ha":349,"x_min":94,"x_max":252,"o":"m 252 504 q 248 524 252 514 q 237 542 243 534 q 220 554 230 549 q 200 558 211 558 q 180 554 189 558 q 161 550 171 550 q 151 553 155 550 q 145 561 147 556 q 142 570 143 565 q 142 581 142 576 q 150 615 142 599 q 171 644 158 631 q 199 668 184 657 q 228 686 214 678 l 228 708 q 174 685 198 699 q 132 651 149 671 q 104 605 114 631 q 94 546 94 578 q 101 509 94 527 q 119 476 107 490 q 147 453 131 462 q 183 444 163 444 q 209 448 196 444 q 231 460 221 452 q 246 479 240 468 q 252 504 252 490 "},"":{"ha":349,"x_min":97,"x_max":254,"o":"m 254 607 q 248 644 254 626 q 230 676 241 662 q 201 699 218 690 q 165 708 185 708 q 140 704 153 708 q 118 692 128 700 q 103 674 109 685 q 97 650 97 663 q 112 611 97 628 q 149 595 127 595 q 169 599 159 595 q 187 603 178 603 q 197 600 193 603 q 203 592 201 597 q 206 582 205 587 q 207 572 207 577 q 199 538 207 554 q 178 510 191 523 q 150 486 165 496 q 121 467 135 475 l 121 444 q 175 469 151 454 q 217 503 199 483 q 244 548 235 522 q 254 607 254 574 "},"":{"ha":533,"x_min":35,"x_max":435,"o":"m 435 504 q 420 542 435 526 q 383 558 405 558 q 365 555 374 558 q 346 551 355 551 q 336 554 340 551 q 330 562 332 557 q 327 572 328 566 q 326 582 326 577 q 334 616 326 600 q 355 645 342 631 q 383 669 368 658 q 412 688 398 680 l 412 710 q 358 685 382 700 q 316 651 334 671 q 289 606 299 631 q 279 547 279 580 q 286 510 279 528 q 303 477 292 492 q 332 453 315 463 q 368 444 348 444 q 393 449 380 444 q 414 461 405 453 q 429 479 423 469 q 435 504 435 490 m 191 505 q 186 525 191 515 q 176 543 182 535 q 159 555 169 551 q 139 559 150 559 q 120 555 130 559 q 102 551 111 551 q 85 562 88 551 q 82 583 82 573 q 90 617 82 602 q 110 646 98 633 q 138 670 123 659 q 167 689 153 681 l 167 711 q 113 687 138 701 q 72 652 89 672 q 44 606 54 632 q 35 547 35 580 q 41 511 35 529 q 58 478 47 492 q 86 455 70 464 q 122 446 102 446 q 147 450 135 446 q 169 462 159 454 q 185 481 179 470 q 191 505 191 492 "},"":{"ha":533,"x_min":97,"x_max":498,"o":"m 498 606 q 492 643 498 625 q 474 676 486 661 q 446 699 462 690 q 410 708 429 708 q 385 704 397 708 q 363 692 372 700 q 349 674 354 685 q 343 648 343 663 q 357 611 343 627 q 393 595 372 595 q 413 599 404 595 q 432 603 422 603 q 442 600 438 603 q 448 591 446 596 q 451 581 450 587 q 452 571 452 576 q 444 537 452 553 q 422 508 435 522 q 395 484 410 495 q 366 465 380 473 l 366 443 q 419 468 395 453 q 461 502 444 482 q 489 547 479 522 q 498 606 498 573 m 254 607 q 248 644 254 626 q 230 676 241 662 q 201 699 218 690 q 165 708 185 708 q 140 704 153 708 q 118 692 128 700 q 103 674 109 685 q 97 650 97 663 q 112 611 97 628 q 149 595 127 595 q 169 599 159 595 q 187 603 178 603 q 197 600 193 603 q 203 592 201 597 q 206 582 205 587 q 207 572 207 577 q 199 538 207 554 q 178 510 191 523 q 150 486 165 496 q 121 467 135 475 l 121 444 q 175 469 151 454 q 217 503 199 483 q 244 548 235 522 q 254 607 254 574 "},"":{"ha":302,"x_min":35,"x_max":267,"o":"m 267 343 q 257 388 267 367 q 233 425 248 409 q 196 449 217 440 q 151 458 175 458 q 105 449 127 458 q 68 425 84 440 q 44 388 53 409 q 35 343 35 367 q 44 297 35 319 q 68 260 53 276 q 105 236 84 245 q 151 227 127 227 q 196 236 175 227 q 233 260 217 245 q 257 297 248 276 q 267 343 267 319 "},"":{"ha":504,"x_min":-22,"x_max":518,"o":"m -22 231 l 518 231 l 518 269 l -22 269 l -22 231 "},"":{"ha":1007,"x_min":0,"x_max":1007,"o":"m 0 231 l 1007 231 l 1007 269 l 0 269 l 0 231 "},"":{"ha":349,"x_min":0,"x_max":349,"o":"m 349 687 l 321 687 q 295 649 315 662 q 249 635 274 635 q 213 643 229 635 q 182 659 197 650 q 152 674 168 667 q 116 682 136 682 q 72 673 92 682 q 39 651 53 665 q 15 617 24 637 q 0 575 5 597 l 27 575 q 34 593 28 584 q 47 608 39 602 q 66 620 56 615 q 87 624 76 624 q 128 616 112 624 q 159 599 144 608 q 191 583 174 590 q 237 575 209 575 q 279 585 260 575 q 313 610 298 594 q 337 646 328 626 q 349 687 347 666 "},"":{"ha":1026,"x_min":17,"x_max":1008,"o":"m 806 281 l 1008 281 l 1008 298 q 979 302 990 298 q 962 314 968 306 q 954 336 956 323 q 951 367 951 349 l 951 606 q 954 637 951 624 q 962 659 956 650 q 979 671 968 667 q 1008 675 990 675 l 1008 693 l 867 693 l 730 401 l 591 693 l 444 693 l 444 675 q 477 671 465 675 q 494 661 488 668 q 501 641 500 653 q 503 610 503 628 l 503 367 q 501 332 503 345 q 494 311 500 319 q 476 301 488 304 q 444 298 465 298 l 444 281 l 602 281 l 602 298 q 567 301 580 298 q 546 311 553 303 q 537 332 539 318 q 534 367 534 345 l 534 612 l 693 281 l 708 281 l 867 618 l 867 366 q 865 334 867 347 q 856 313 863 321 q 838 302 850 305 q 806 298 825 298 l 806 281 m 392 591 l 410 591 l 401 693 l 24 693 l 17 591 l 32 591 q 45 627 37 613 q 64 649 53 641 q 92 660 76 656 q 131 663 109 663 l 168 663 l 168 367 q 166 334 168 347 q 158 313 163 321 q 142 302 152 305 q 117 298 132 298 l 117 281 l 310 281 l 310 298 q 281 302 292 298 q 264 313 271 305 q 256 334 258 321 q 254 367 254 347 l 254 663 q 305 661 281 663 q 347 653 329 660 q 377 631 366 646 q 392 591 389 617 "},"":{"ha":408,"x_min":47,"x_max":376,"o":"m 371 118 q 352 188 371 161 q 303 234 332 216 q 241 267 275 253 q 179 297 208 281 q 131 335 150 313 q 111 390 111 356 q 120 421 111 409 q 141 441 128 434 q 171 450 155 448 q 201 453 186 453 q 251 442 230 453 q 288 412 273 431 q 312 371 302 394 q 328 322 322 347 l 346 322 l 346 482 l 328 482 q 319 469 324 475 q 306 464 314 464 q 280 467 293 464 q 255 473 268 469 q 229 479 242 477 q 203 482 216 482 q 147 475 174 482 q 98 452 119 467 q 64 413 77 436 q 52 357 52 389 q 70 292 52 318 q 115 247 87 266 q 173 212 142 227 q 231 180 204 197 q 276 141 258 163 q 294 86 294 119 q 288 56 294 69 q 270 35 281 43 q 244 21 258 26 q 214 17 229 17 q 159 29 183 17 q 117 61 135 41 q 87 106 99 81 q 71 160 76 132 l 53 160 l 53 -7 l 71 -7 q 74 -1 72 -5 q 78 7 75 3 q 83 14 80 11 q 89 17 85 17 q 116 12 101 17 q 146 1 130 7 q 180 -11 163 -5 q 214 -16 197 -16 q 270 -6 241 -16 q 320 21 298 3 q 357 63 342 39 q 371 118 371 87 m 244 533 l 376 709 l 339 709 l 211 601 l 83 709 l 47 709 l 178 533 l 244 533 "},"":{"ha":349,"x_min":62,"x_max":288,"o":"m 90 -4 l 288 236 l 90 478 l 62 478 l 187 236 l 62 -4 l 90 -4 "},"":{"ha":755,"x_min":35,"x_max":722,"o":"m 722 174 l 705 182 q 687 140 698 160 q 661 104 676 119 q 626 80 646 89 q 582 71 607 71 q 515 90 542 71 q 472 138 488 109 q 449 202 456 167 q 441 271 441 238 l 441 293 l 722 293 l 722 307 q 712 378 722 345 q 680 433 701 410 q 627 469 659 456 q 554 482 595 482 q 472 461 507 482 q 411 401 436 440 q 341 462 382 442 q 252 482 300 482 q 157 461 197 482 q 89 404 116 439 q 48 322 62 368 q 35 227 35 276 q 48 135 35 178 q 89 57 62 91 q 156 4 116 24 q 248 -16 195 -16 q 339 6 298 -16 q 411 68 380 28 q 467 6 430 28 q 547 -16 503 -16 q 618 1 589 -16 q 669 44 648 17 q 703 104 690 71 q 722 174 715 138 m 621 326 l 441 326 q 447 367 442 345 q 463 407 452 389 q 490 437 473 425 q 530 449 507 449 q 573 438 556 449 q 601 410 591 427 q 616 370 612 392 q 621 326 621 348 m 366 193 q 362 137 366 167 q 348 81 359 106 q 316 39 336 56 q 261 22 296 22 q 214 36 234 22 q 179 71 193 49 q 155 120 165 92 q 140 175 146 147 q 133 230 135 203 q 131 277 131 257 q 134 333 131 302 q 147 390 137 363 q 177 435 157 417 q 232 453 197 453 q 283 440 262 453 q 319 405 304 427 q 343 356 334 384 q 357 299 353 328 q 364 243 362 271 q 366 193 366 215 "},"":{"ha":465,"x_min":21,"x_max":449,"o":"m 134 35 l 449 449 l 449 468 l 56 468 l 53 339 l 72 339 q 81 388 75 369 q 99 416 87 406 q 130 430 111 427 q 178 433 149 433 l 332 433 l 21 20 l 21 0 l 433 0 l 440 143 l 422 143 q 413 88 418 109 q 396 55 408 67 q 363 39 384 43 q 306 35 342 35 l 134 35 m 289 533 l 420 709 l 384 709 l 256 601 l 128 709 l 92 709 l 223 533 l 289 533 "},"":{"ha":755,"x_min":9,"x_max":742,"o":"m 742 675 l 742 693 l 500 693 l 500 675 q 524 672 511 675 q 546 664 536 670 q 563 649 556 659 q 570 625 570 640 q 567 607 570 617 q 559 587 564 597 q 549 568 554 577 q 539 553 543 559 l 401 339 q 387 361 400 341 q 354 409 374 380 q 313 472 335 438 q 271 538 290 507 q 239 594 252 570 q 227 629 227 619 q 235 654 227 645 q 255 668 243 663 q 281 673 267 672 q 306 675 295 675 l 306 693 l 9 693 l 9 675 q 51 666 33 675 q 84 642 69 656 q 112 610 99 627 q 135 575 124 592 l 323 285 l 323 121 q 321 70 323 90 q 308 39 318 50 q 279 24 298 28 q 228 20 260 20 l 228 0 l 522 0 l 522 20 q 470 23 490 20 q 441 38 451 27 q 427 69 431 50 q 424 121 424 89 l 424 294 l 606 578 q 633 618 620 601 q 663 649 647 636 q 697 668 678 661 q 742 675 716 675 m 524 845 q 509 881 524 866 q 473 896 494 896 q 453 892 463 896 q 436 881 444 888 q 424 864 429 873 q 420 845 420 855 q 436 808 420 824 q 473 792 452 792 q 492 796 483 792 q 509 807 502 800 q 520 824 516 814 q 524 845 524 834 m 316 845 q 300 881 316 866 q 263 896 284 896 q 244 892 253 896 q 228 881 235 888 q 216 864 220 873 q 212 845 212 855 q 227 808 212 824 q 263 792 242 792 q 283 796 273 792 q 300 807 293 800 q 312 824 307 814 q 316 845 316 834 "},"":{"ha":347,"x_min":0,"x_max":0,"o":""},"":{"ha":349,"x_min":116,"x_max":233,"o":"m 232 440 q 226 467 232 456 q 212 485 220 478 q 193 496 203 492 q 174 499 183 499 q 153 494 163 499 q 135 482 142 490 q 123 463 127 474 q 118 440 118 452 q 123 417 118 427 q 136 399 128 406 q 154 388 144 392 q 174 385 164 385 q 195 388 184 385 q 213 399 205 392 q 227 416 221 406 q 232 440 232 427 m 233 -154 q 232 -140 233 -148 q 229 -115 231 -133 l 184 300 l 164 300 l 118 -115 q 116 -134 117 -125 q 116 -149 116 -143 q 121 -185 116 -170 q 135 -209 127 -199 q 153 -222 143 -218 q 173 -226 163 -226 q 216 -207 199 -226 q 233 -154 233 -189 "},"":{"ha":524,"x_min":64,"x_max":460,"o":"m 460 178 l 444 184 q 421 139 434 161 q 390 102 408 118 q 351 76 373 85 q 300 66 328 66 q 261 73 280 66 q 225 90 242 79 l 339 403 q 346 375 344 389 q 352 351 347 361 q 367 333 357 340 q 399 326 377 326 q 434 336 420 326 q 447 370 447 347 q 439 401 447 386 q 419 429 431 416 q 392 452 407 442 q 364 468 378 463 l 439 677 l 403 677 l 330 478 q 288 482 310 482 q 195 462 236 482 q 124 407 153 441 q 79 327 95 372 q 64 233 64 282 q 69 170 64 201 q 86 111 75 139 q 117 59 98 83 q 163 17 136 35 l 86 -193 l 122 -193 l 192 0 q 227 -12 210 -7 q 264 -16 245 -16 q 337 1 303 -16 q 396 45 370 18 q 437 106 421 72 q 460 178 454 141 m 315 437 l 199 115 q 159 193 170 150 q 149 278 149 235 q 155 337 149 307 q 176 392 161 367 q 213 433 190 417 q 271 449 237 449 q 315 437 295 449 "},"":{"ha":524,"x_min":31,"x_max":500,"o":"m 500 155 l 481 160 q 372 78 457 78 q 335 83 358 78 q 289 94 313 87 q 243 107 265 100 q 207 119 221 115 q 223 174 217 147 q 232 227 229 200 q 236 281 235 254 q 237 338 237 309 l 370 338 l 370 386 l 237 386 q 230 460 234 422 q 227 536 227 498 q 230 585 227 559 q 243 631 233 610 q 271 665 253 652 q 319 679 290 679 q 358 670 346 679 q 376 648 371 661 q 382 620 382 635 q 386 591 383 604 q 396 570 389 578 q 422 561 404 561 q 450 574 438 561 q 461 603 461 588 q 450 648 461 628 q 419 681 438 667 q 378 701 401 694 q 332 708 355 708 q 250 689 286 708 q 191 640 215 671 q 154 569 167 609 q 142 488 142 530 q 144 436 142 462 q 149 386 147 411 l 50 386 l 50 338 l 149 338 q 156 250 153 294 q 160 163 160 207 q 160 146 160 154 q 158 129 159 138 q 137 133 148 132 q 115 134 125 134 q 55 112 79 134 q 31 53 31 91 q 45 5 31 23 q 90 -12 59 -12 q 123 -5 108 -12 q 149 15 138 3 q 170 41 161 26 q 186 71 179 56 q 224 42 205 56 q 264 15 243 27 q 306 -4 284 3 q 353 -12 328 -12 q 412 3 386 -12 q 456 42 437 18 q 485 96 474 66 q 500 155 496 125 m 153 87 q 146 65 150 77 q 135 42 142 53 q 118 25 127 32 q 94 18 108 18 q 68 29 75 18 q 61 57 61 40 q 74 91 61 81 q 109 102 87 102 q 153 87 134 102 "},"":{"ha":604,"x_min":31,"x_max":574,"o":"m 538 161 l 574 197 l 471 301 q 503 362 492 329 q 514 431 514 395 q 503 501 514 467 q 469 564 492 535 l 574 668 l 538 705 l 431 599 q 372 632 404 622 q 304 643 340 643 q 235 632 269 643 q 172 599 201 622 l 66 705 l 31 668 l 136 562 q 101 501 111 535 q 90 431 90 467 q 101 362 90 395 q 134 301 112 329 l 31 197 l 66 161 l 171 265 q 233 229 199 240 q 304 218 267 218 q 374 230 341 218 q 433 265 406 241 l 538 161 m 457 431 q 445 371 457 399 q 413 321 433 342 q 364 288 392 300 q 304 275 336 275 q 243 287 271 275 q 193 320 214 299 q 159 370 172 341 q 147 431 147 398 q 159 492 147 463 q 193 541 172 520 q 243 574 214 562 q 304 586 271 586 q 363 574 336 586 q 412 540 391 562 q 445 491 433 519 q 457 431 457 463 "},"":{"ha":524,"x_min":1,"x_max":524,"o":"m 306 180 l 514 180 l 514 218 l 306 218 l 306 300 l 310 310 l 514 310 l 514 346 l 323 346 l 435 595 q 450 625 442 611 q 467 651 457 640 q 491 668 477 662 q 524 675 504 675 l 524 693 l 346 693 l 346 675 q 364 673 354 674 q 383 669 374 672 q 397 659 391 665 q 403 643 403 653 q 400 623 403 633 q 393 604 397 613 l 283 346 q 272 375 281 351 q 249 430 262 398 q 221 499 235 463 q 193 566 206 535 q 172 619 180 597 q 164 643 164 640 q 172 658 164 652 q 189 667 179 664 q 210 672 199 671 q 228 675 221 674 l 228 693 l 1 693 l 1 675 q 33 667 20 673 q 55 652 46 661 q 71 630 64 643 q 85 600 77 616 l 193 346 l 9 346 l 9 310 l 211 310 l 218 292 l 218 218 l 9 218 l 9 180 l 218 180 l 218 125 q 217 74 218 94 q 207 42 216 54 q 180 26 199 31 q 129 21 162 21 l 129 0 l 393 0 l 393 21 q 343 26 361 21 q 317 43 326 31 q 308 75 309 56 q 306 125 306 95 l 306 180 "},"":{"ha":317,"x_min":134,"x_max":184,"o":"m 134 339 l 184 339 l 184 742 l 134 742 l 134 339 m 134 -200 l 184 -200 l 184 203 l 134 203 l 134 -200 "},"":{"ha":524,"x_min":79,"x_max":444,"o":"m 444 245 q 425 322 444 288 q 377 384 406 356 q 314 437 348 412 q 252 486 281 461 q 204 537 223 511 q 184 597 184 564 q 191 633 184 616 q 210 661 198 649 q 238 680 222 673 q 273 686 254 686 q 315 675 299 686 q 330 637 330 665 q 327 612 330 625 q 323 587 323 600 q 336 560 323 572 q 364 549 349 549 q 395 562 386 549 q 404 595 404 575 q 393 643 404 622 q 364 679 382 664 q 322 701 346 693 q 273 708 298 708 q 217 696 243 708 q 172 665 191 685 q 140 620 152 646 q 129 564 129 593 q 135 527 129 545 q 150 492 140 509 q 170 460 159 475 q 192 431 181 444 q 147 398 168 416 q 112 359 127 380 q 88 313 96 338 q 79 258 79 288 q 99 181 79 216 q 147 118 118 147 q 211 64 176 90 q 274 12 245 38 q 322 -41 303 -14 q 342 -102 342 -68 q 334 -133 342 -118 q 313 -159 326 -148 q 284 -178 300 -171 q 252 -184 268 -184 q 233 -182 243 -184 q 213 -176 222 -180 q 197 -163 203 -171 q 191 -144 191 -155 q 195 -117 191 -131 q 200 -89 200 -102 q 189 -58 200 -72 q 160 -45 178 -45 q 131 -59 141 -45 q 121 -90 121 -73 q 131 -137 121 -116 q 159 -173 142 -157 q 200 -196 177 -188 q 248 -204 223 -204 q 306 -193 279 -204 q 352 -162 332 -182 q 382 -116 372 -143 q 393 -58 393 -90 q 375 12 393 -20 q 332 71 356 45 q 376 104 356 85 q 412 144 397 122 q 436 191 427 165 q 444 245 444 216 m 210 415 q 264 373 233 396 q 323 322 295 349 q 372 264 352 294 q 392 200 392 233 q 386 164 392 180 q 368 133 379 147 q 343 107 357 119 q 314 86 329 96 q 281 118 300 102 q 241 148 262 133 q 201 179 221 163 q 165 214 181 195 q 140 253 150 232 q 131 301 131 275 q 137 337 131 320 q 154 368 144 354 q 179 394 165 382 q 210 415 193 406 "},"":{"ha":313,"x_min":0,"x_max":313,"o":"m 313 628 q 297 664 313 649 q 261 679 282 679 q 241 675 251 679 q 224 664 232 671 q 213 647 217 656 q 208 628 208 638 q 224 591 208 607 q 261 575 240 575 q 281 579 271 575 q 297 590 290 583 q 309 607 304 597 q 313 628 313 617 m 104 628 q 89 664 104 649 q 52 679 73 679 q 32 675 41 679 q 16 664 23 671 q 4 647 9 656 q 0 628 0 638 q 15 591 0 607 q 52 575 31 575 q 72 579 62 575 q 89 590 81 583 q 100 607 96 597 q 104 628 104 617 "},"":{"ha":796,"x_min":35,"x_max":761,"o":"m 761 346 q 733 489 761 423 q 656 604 705 555 q 541 680 608 652 q 397 708 475 708 q 255 680 321 708 q 140 604 189 652 q 63 489 91 555 q 35 346 35 423 q 63 203 35 269 q 140 88 91 137 q 255 11 189 39 q 397 -17 321 -17 q 541 11 474 -17 q 656 89 607 39 q 733 204 705 138 q 761 346 761 270 m 729 346 q 703 217 729 277 q 633 112 677 157 q 528 42 588 68 q 397 17 467 17 q 268 42 328 17 q 163 112 208 68 q 93 217 119 157 q 68 346 68 277 q 93 475 68 415 q 163 581 119 536 q 268 652 208 626 q 397 677 328 677 q 528 652 467 677 q 633 581 588 626 q 703 476 677 536 q 729 346 729 416 m 596 220 l 576 231 q 418 149 520 149 q 338 166 371 149 q 286 212 306 183 q 257 279 266 241 q 248 358 248 317 q 257 433 248 397 q 286 497 267 469 q 337 541 306 524 q 412 557 368 557 q 512 525 474 557 q 568 437 549 493 l 587 437 l 576 581 l 557 581 q 547 565 553 572 q 532 557 541 557 q 511 561 524 557 q 483 569 498 564 q 451 577 467 573 q 418 581 434 581 q 319 564 366 581 q 238 517 273 548 q 183 442 203 486 q 163 343 163 398 q 181 251 163 293 q 232 179 200 210 q 308 132 264 149 q 400 115 351 115 q 511 142 462 115 q 596 220 560 168 "},"":{"ha":334,"x_min":26,"x_max":332,"o":"m 332 452 l 332 470 q 316 456 323 461 q 306 449 310 451 q 299 446 302 446 q 293 445 296 445 q 282 448 286 445 q 277 460 279 452 q 275 510 275 469 l 275 606 q 271 645 275 627 q 255 675 267 663 q 221 694 243 688 q 162 701 199 701 q 116 696 138 701 q 77 683 94 692 q 50 660 60 673 q 39 631 39 647 q 71 602 39 602 q 93 609 84 602 q 101 630 101 616 q 101 639 101 633 q 100 649 100 645 q 114 673 101 663 q 150 684 127 684 q 198 667 182 684 q 214 610 214 650 l 214 599 q 117 566 153 581 q 60 536 80 551 q 33 508 39 522 q 26 479 26 494 q 48 427 26 446 q 106 407 70 407 q 130 409 120 407 q 151 415 140 410 q 177 429 162 420 q 214 452 191 438 q 225 416 214 426 q 253 407 237 407 q 332 452 292 407 m 30 334 l 327 334 l 327 357 l 30 357 l 30 334 m 214 581 l 214 473 q 140 441 168 441 q 104 456 119 441 q 89 492 89 471 q 92 512 89 503 q 109 533 96 522 q 146 555 121 543 q 214 581 171 566 "},"":{"ha":524,"x_min":32,"x_max":490,"o":"m 461 -4 l 490 -4 l 366 237 l 490 478 l 461 478 l 260 237 l 461 -4 m 231 -4 l 258 -4 l 134 237 l 258 478 l 231 478 l 32 237 l 231 -4 "},"":{"ha":625,"x_min":40,"x_max":585,"o":"m 524 191 l 585 191 l 585 424 l 40 424 l 40 363 l 524 363 l 524 191 "},"":{"ha":349,"x_min":41,"x_max":306,"o":"m 41 196 l 306 196 l 306 272 l 41 272 l 41 196 "},"":{"ha":796,"x_min":35,"x_max":761,"o":"m 761 346 q 733 489 761 423 q 656 604 705 555 q 541 680 608 652 q 397 708 475 708 q 255 680 321 708 q 140 604 189 652 q 63 489 91 555 q 35 346 35 423 q 63 203 35 269 q 140 88 91 137 q 255 11 189 39 q 397 -17 321 -17 q 541 11 474 -17 q 656 89 607 39 q 733 204 705 138 q 761 346 761 270 m 729 346 q 703 217 729 277 q 633 112 677 157 q 528 42 588 68 q 397 17 467 17 q 268 42 328 17 q 163 112 208 68 q 93 217 119 157 q 68 346 68 277 q 93 475 68 415 q 163 581 119 536 q 268 652 208 626 q 397 677 328 677 q 528 652 467 677 q 633 581 588 626 q 703 476 677 536 q 729 346 729 416 m 507 127 l 603 127 l 603 144 q 568 159 582 146 q 541 189 553 171 l 433 342 q 476 355 456 347 q 513 378 497 364 q 538 411 528 392 q 547 456 547 430 q 533 508 547 486 q 497 544 519 530 q 448 564 475 557 q 395 570 421 570 l 197 570 l 197 551 q 222 548 214 551 q 236 538 231 545 q 242 521 241 532 q 243 496 243 511 l 243 214 q 241 181 243 194 q 235 159 240 168 q 220 148 230 151 q 192 144 210 144 l 192 127 l 379 127 l 379 144 q 355 145 366 144 q 336 151 344 146 q 323 162 328 155 q 318 183 318 170 l 318 335 l 357 335 l 507 127 m 465 449 q 451 401 465 419 q 416 373 437 383 q 368 360 394 363 q 318 357 342 357 l 318 541 q 339 546 328 544 q 361 547 351 547 q 401 541 382 547 q 435 521 420 534 q 457 490 449 508 q 465 449 465 472 "},"":{"ha":328,"x_min":0,"x_max":328,"o":"m 0 575 l 328 575 l 328 632 l 0 632 l 0 575 "},"":{"ha":328,"x_min":0,"x_max":328,"o":"m 0 575 l 328 575 l 328 632 l 0 632 l 0 575 "},"":{"ha":322,"x_min":50,"x_max":272,"o":"m 272 614 q 263 657 272 637 q 240 693 255 677 q 205 716 225 708 q 161 725 184 725 q 117 716 138 725 q 82 693 97 708 q 59 657 67 677 q 50 614 50 637 q 59 571 50 591 q 82 536 67 551 q 117 512 97 521 q 161 504 138 504 q 205 512 184 504 q 240 536 225 521 q 263 571 255 551 q 272 614 272 591 m 232 614 q 227 587 232 600 q 211 565 221 574 q 189 550 201 555 q 161 545 176 545 q 134 550 146 545 q 111 565 121 555 q 96 587 101 574 q 90 614 90 600 q 96 642 90 629 q 111 664 101 654 q 134 679 121 673 q 161 685 146 685 q 189 679 176 685 q 211 664 201 673 q 227 642 221 654 q 232 614 232 629 "},"":{"ha":1007,"x_min":201,"x_max":806,"o":"m 534 361 l 806 361 l 806 424 l 534 424 l 534 604 l 472 604 l 472 424 l 201 424 l 201 361 l 472 361 l 472 179 l 534 179 l 534 361 m 201 0 l 806 0 l 806 62 l 201 62 l 201 0 "},"":{"ha":368,"x_min":12,"x_max":342,"o":"m 306 262 l 342 343 l 328 343 q 308 325 318 331 q 286 315 298 318 q 258 311 273 311 q 222 310 243 310 l 90 310 q 130 342 107 323 q 178 383 153 361 q 226 430 202 406 q 269 480 250 454 q 300 530 288 505 q 311 578 311 555 q 298 626 311 606 q 263 661 284 647 q 217 681 243 674 q 168 688 192 688 q 72 659 109 688 q 28 570 36 630 l 40 570 q 82 624 55 607 q 149 640 110 640 q 187 634 169 640 q 218 616 205 628 q 240 588 232 605 q 248 550 248 571 q 225 479 248 515 q 169 407 203 443 q 93 337 135 371 q 12 273 52 303 l 12 262 l 306 262 "},"":{"ha":368,"x_min":28,"x_max":310,"o":"m 310 404 q 284 474 310 448 q 218 513 258 500 q 241 530 229 520 q 262 552 253 541 q 278 578 272 564 q 285 606 285 591 q 274 645 285 629 q 246 671 263 661 q 209 686 229 681 q 170 690 189 690 q 89 667 123 690 q 35 603 56 643 l 46 597 q 87 635 64 621 q 142 648 111 648 q 173 644 158 648 q 199 631 188 640 q 218 609 211 622 q 225 578 225 595 q 215 538 225 555 q 188 510 204 522 q 151 491 171 498 q 111 482 130 484 l 111 472 q 163 467 137 471 q 209 450 189 462 q 243 418 230 439 q 256 367 256 398 q 247 333 256 349 q 225 308 239 318 q 196 291 212 297 q 163 285 179 285 q 133 289 147 285 q 106 299 119 294 q 81 308 93 304 q 57 313 69 313 q 37 309 45 313 q 28 292 28 305 q 38 273 28 279 q 62 263 48 267 q 90 259 76 260 q 113 258 104 258 q 181 266 146 258 q 245 291 216 274 q 292 336 273 309 q 310 404 310 364 "},"":{"ha":358,"x_min":60,"x_max":294,"o":"m 294 682 q 287 703 294 693 q 267 712 280 712 q 233 702 248 712 q 204 679 217 692 l 60 533 l 102 533 l 253 628 q 282 651 270 639 q 294 682 294 664 "},"":{"ha":593,"x_min":64,"x_max":554,"o":"m 554 106 l 533 106 q 529 87 532 98 q 522 66 526 76 q 509 48 517 56 q 492 41 502 41 q 473 50 479 41 q 463 71 466 58 q 458 99 459 84 q 457 129 457 115 l 457 467 l 372 467 l 372 117 q 347 92 361 104 q 318 70 334 79 q 287 55 303 60 q 252 49 270 49 q 211 61 226 49 q 190 94 197 74 q 181 139 182 114 q 179 188 179 163 l 179 467 l 96 467 l 96 97 q 93 5 96 51 q 79 -86 90 -41 q 70 -129 75 -106 q 64 -171 64 -151 q 67 -190 64 -180 q 75 -208 70 -200 q 89 -221 81 -216 q 109 -227 98 -227 q 128 -221 119 -227 q 143 -208 137 -216 q 152 -190 149 -200 q 155 -170 155 -180 q 152 -126 155 -148 q 144 -83 148 -104 q 136 -39 140 -61 q 132 5 132 -17 l 132 29 q 211 -16 159 -16 q 258 -7 235 -16 q 301 16 281 2 q 339 48 321 31 q 372 82 357 65 q 379 47 374 64 q 393 16 384 30 q 417 -7 403 2 q 453 -16 431 -16 q 499 -6 480 -16 q 529 21 517 4 q 547 60 541 38 q 554 106 553 81 "},"":{"ha":473,"x_min":-7,"x_max":476,"o":"m 408 665 l 476 665 l 476 693 l 224 693 q 135 683 177 693 q 62 649 94 672 q 12 589 31 626 q -7 501 -7 553 q 14 409 -7 446 q 68 350 34 372 q 146 319 102 328 q 239 309 191 309 l 239 -227 l 277 -227 l 277 665 l 371 665 l 371 -227 l 408 -227 l 408 665 "},"":{"ha":189,"x_min":35,"x_max":154,"o":"m 154 343 q 137 385 154 368 q 94 401 119 401 q 52 385 69 401 q 35 343 35 368 q 52 300 35 317 q 94 283 69 283 q 137 300 119 283 q 154 343 154 317 "},"":{"ha":189,"x_min":35,"x_max":154,"o":"m 154 343 q 137 385 154 368 q 94 401 119 401 q 52 385 69 401 q 35 343 35 368 q 52 300 35 317 q 94 283 69 283 q 137 300 119 283 q 154 343 154 317 "},"":{"ha":245,"x_min":12,"x_max":232,"o":"m 232 -138 q 225 -105 232 -119 q 205 -83 218 -92 q 177 -70 193 -74 q 144 -65 161 -65 q 130 -66 137 -65 q 115 -68 123 -66 l 144 7 l 107 7 l 61 -104 l 68 -110 q 87 -105 77 -106 q 106 -104 96 -104 q 140 -113 127 -104 q 154 -144 154 -121 q 149 -166 154 -158 q 135 -180 144 -175 q 115 -187 126 -185 q 93 -189 104 -189 q 28 -176 61 -189 l 12 -210 q 97 -225 55 -225 q 140 -221 117 -225 q 184 -206 164 -216 q 218 -179 205 -195 q 232 -138 232 -162 "},"":{"ha":368,"x_min":85,"x_max":281,"o":"m 93 262 l 281 262 l 281 273 q 248 275 260 273 q 229 283 235 277 q 220 302 222 290 q 218 336 218 315 l 218 688 l 205 688 l 85 639 l 90 628 q 109 635 99 632 q 127 637 118 637 q 152 623 147 637 q 157 585 157 608 l 157 336 q 155 302 157 315 q 146 283 153 290 q 126 275 139 277 q 93 273 114 273 l 93 262 "},"":{"ha":384,"x_min":29,"x_max":355,"o":"m 355 558 q 343 614 355 588 q 310 660 332 640 q 259 690 289 679 q 193 701 229 701 q 124 688 154 701 q 73 654 94 675 q 40 606 52 633 q 29 550 29 578 q 41 494 29 520 q 74 447 53 467 q 124 415 95 427 q 189 403 154 403 q 261 417 231 403 q 313 453 292 431 q 344 503 334 475 q 355 558 355 531 m 35 334 l 350 334 l 350 357 l 35 357 l 35 334 m 286 534 q 280 483 286 504 q 263 450 274 463 q 238 431 253 437 q 205 425 223 425 q 161 437 180 425 q 127 470 141 450 q 105 518 113 491 q 98 575 98 545 q 105 626 98 606 q 125 659 113 646 q 153 676 138 671 q 182 682 168 682 q 225 670 206 682 q 258 639 245 659 q 279 592 272 619 q 286 534 286 565 "},"":{"ha":524,"x_min":33,"x_max":492,"o":"m 293 -4 l 492 236 l 293 478 l 265 478 l 390 236 l 265 -4 l 293 -4 m 62 -4 l 264 236 l 62 478 l 33 478 l 158 236 l 33 -4 l 62 -4 "},"":{"ha":806,"x_min":100,"x_max":705,"o":"m 650 109 l 705 109 l 705 151 l 650 151 l 650 425 l 616 425 l 421 146 l 421 109 l 599 109 l 599 -4 l 650 -4 l 650 109 m 195 -8 l 668 705 l 621 705 l 144 -8 l 195 -8 m 107 268 l 265 268 l 265 281 q 235 283 245 281 q 219 292 224 286 q 213 311 214 299 q 212 343 212 323 l 212 697 l 201 697 l 100 647 l 104 636 q 120 643 112 640 q 138 646 128 646 q 151 639 146 646 q 158 624 156 633 q 161 605 161 614 q 161 588 161 595 l 161 338 q 160 308 161 319 q 153 291 159 297 q 136 283 147 285 q 107 281 125 281 l 107 268 m 599 359 l 599 151 l 452 151 l 599 359 "},"":{"ha":806,"x_min":85,"x_max":721,"o":"m 690 -4 l 721 77 l 708 77 q 691 57 700 64 q 673 47 683 50 q 649 43 663 44 q 619 43 636 43 l 510 43 q 566 100 534 68 q 626 168 597 132 q 674 241 654 203 q 694 314 694 278 q 685 360 694 339 q 659 395 675 380 q 621 417 642 410 q 575 425 599 425 q 527 416 548 425 q 491 391 506 407 q 468 354 477 375 q 456 307 458 332 l 467 307 q 500 359 478 340 q 558 378 523 378 q 593 370 577 378 q 619 350 608 362 q 636 320 630 337 q 642 286 642 304 q 623 213 642 250 q 575 141 604 176 q 511 72 546 105 q 443 8 475 38 l 443 -4 l 690 -4 m 184 -8 l 625 705 l 576 705 l 135 -8 l 184 -8 m 92 268 l 252 268 l 252 281 q 222 283 233 281 q 205 291 211 285 q 199 308 200 297 q 197 338 197 319 l 197 697 l 186 697 l 85 647 l 89 636 q 104 643 96 640 q 122 646 113 646 q 134 641 129 646 q 141 629 138 636 q 145 612 144 622 q 146 594 146 603 l 146 338 q 144 308 146 319 q 138 291 143 297 q 121 283 132 285 q 92 281 111 281 l 92 268 "},"":{"ha":806,"x_min":86,"x_max":720,"o":"m 664 109 l 720 109 l 720 151 l 664 151 l 664 425 l 629 425 l 433 146 l 433 109 l 612 109 l 612 -4 l 664 -4 l 664 109 m 218 -8 l 690 705 l 643 705 l 167 -8 l 218 -8 m 325 407 q 305 475 325 448 q 248 517 285 502 q 267 536 257 526 q 286 559 277 547 q 299 584 294 571 q 304 611 304 597 q 296 648 304 632 q 275 675 288 664 q 243 691 261 686 q 207 697 226 697 q 166 690 183 697 q 135 671 149 684 q 112 643 122 659 q 93 607 102 626 l 104 603 q 138 640 118 625 q 184 654 157 654 q 235 634 216 654 q 253 583 253 614 q 245 545 253 562 q 225 515 238 528 q 194 495 212 503 q 157 485 176 487 l 157 475 q 206 468 183 474 q 245 450 229 463 q 271 417 262 437 q 281 368 281 397 q 275 338 281 353 q 258 312 269 323 q 232 294 247 301 q 201 288 218 288 q 175 292 187 288 q 152 301 163 296 q 131 311 141 307 q 111 315 121 315 q 93 311 100 315 q 86 294 86 306 q 94 275 86 282 q 114 264 102 268 q 139 260 126 261 q 160 260 151 260 q 224 269 194 260 q 276 297 254 279 q 312 343 298 315 q 325 407 325 370 m 612 359 l 612 151 l 464 151 l 612 359 "},"":{"ha":465,"x_min":39,"x_max":415,"o":"m 295 440 q 290 465 295 454 q 277 483 285 475 q 258 494 269 490 q 237 498 248 498 q 217 494 227 498 q 199 483 207 490 q 185 465 191 475 q 180 440 180 454 q 185 417 180 427 q 198 398 190 406 q 216 387 206 391 q 237 382 227 382 q 277 399 260 382 q 295 440 295 415 m 415 -79 q 408 -38 415 -54 q 392 -14 401 -22 q 374 -1 383 -5 q 359 2 364 2 q 345 -1 352 2 q 331 -9 337 -4 q 321 -23 325 -15 q 317 -42 317 -31 q 322 -62 317 -51 q 334 -84 328 -73 q 345 -107 340 -96 q 350 -130 350 -119 q 344 -154 350 -142 q 326 -175 338 -165 q 296 -191 314 -184 q 253 -197 277 -197 q 212 -190 233 -197 q 173 -165 191 -182 q 145 -122 156 -149 q 134 -56 134 -95 q 138 -15 134 -36 q 150 26 143 6 q 166 64 157 47 q 182 96 174 82 q 233 205 216 152 q 252 320 249 259 l 230 320 q 221 258 229 284 q 200 208 214 231 q 166 160 186 184 q 119 105 146 136 q 93 74 107 92 q 67 36 79 57 q 47 -10 56 15 q 39 -64 39 -35 q 54 -132 39 -102 q 93 -183 68 -162 q 154 -215 119 -204 q 231 -226 189 -226 q 310 -214 275 -226 q 367 -181 344 -201 q 403 -134 391 -161 q 415 -79 415 -107 "},"":{"ha":753,"x_min":8,"x_max":745,"o":"m 471 0 l 745 0 l 745 20 q 698 30 716 21 q 667 55 680 39 q 645 90 654 70 q 625 134 635 110 l 385 708 l 367 708 l 122 138 q 102 93 112 114 q 79 57 92 73 q 50 31 66 41 q 8 20 33 21 l 8 0 l 227 0 l 227 20 q 203 22 216 20 q 176 28 189 24 q 155 42 163 33 q 146 64 146 50 q 150 86 146 72 q 160 117 154 100 q 174 152 167 134 q 189 185 182 170 q 202 214 197 201 q 211 232 208 227 l 479 232 q 494 200 484 222 q 514 152 504 178 q 532 102 524 126 q 541 64 541 77 q 534 41 541 50 q 517 28 527 33 q 494 21 507 23 q 471 20 482 20 l 471 0 m 347 551 l 465 269 l 227 269 l 347 551 m 431 757 l 474 757 l 328 903 q 267 937 294 937 q 235 897 235 937 q 281 852 235 880 l 431 757 "},"":{"ha":753,"x_min":8,"x_max":745,"o":"m 471 0 l 745 0 l 745 20 q 698 30 716 21 q 667 55 680 39 q 645 90 654 70 q 625 134 635 110 l 385 708 l 367 708 l 122 138 q 102 93 112 114 q 79 57 92 73 q 50 31 66 41 q 8 20 33 21 l 8 0 l 227 0 l 227 20 q 203 22 216 20 q 176 28 189 24 q 155 42 163 33 q 146 64 146 50 q 150 86 146 72 q 160 117 154 100 q 174 152 167 134 q 189 185 182 170 q 202 214 197 201 q 211 232 208 227 l 479 232 q 494 200 484 222 q 514 152 504 178 q 532 102 524 126 q 541 64 541 77 q 534 41 541 50 q 517 28 527 33 q 494 21 507 23 q 471 20 482 20 l 471 0 m 347 551 l 465 269 l 227 269 l 347 551 m 517 905 q 510 926 517 917 q 490 936 503 936 q 455 926 471 936 q 427 903 439 916 l 282 757 l 324 757 l 475 852 q 505 875 492 863 q 517 905 517 888 "},"":{"ha":753,"x_min":8,"x_max":745,"o":"m 471 0 l 745 0 l 745 20 q 698 30 716 21 q 667 55 680 39 q 645 90 654 70 q 625 134 635 110 l 385 708 l 367 708 l 122 138 q 102 93 112 114 q 79 57 92 73 q 50 31 66 41 q 8 20 33 21 l 8 0 l 227 0 l 227 20 q 203 22 216 20 q 176 28 189 24 q 155 42 163 33 q 146 64 146 50 q 150 86 146 72 q 160 117 154 100 q 174 152 167 134 q 189 185 182 170 q 202 214 197 201 q 211 232 208 227 l 479 232 q 494 200 484 222 q 514 152 504 178 q 532 102 524 126 q 541 64 541 77 q 534 41 541 50 q 517 28 527 33 q 494 21 507 23 q 471 20 482 20 l 471 0 m 347 551 l 465 269 l 227 269 l 347 551 m 504 750 l 540 750 l 410 925 l 345 925 l 212 750 l 248 750 l 376 859 l 504 750 "},"":{"ha":753,"x_min":8,"x_max":745,"o":"m 471 0 l 745 0 l 745 20 q 698 30 716 21 q 667 55 680 39 q 645 90 654 70 q 625 134 635 110 l 385 708 l 367 708 l 122 138 q 102 93 112 114 q 79 57 92 73 q 50 31 66 41 q 8 20 33 21 l 8 0 l 227 0 l 227 20 q 203 22 216 20 q 176 28 189 24 q 155 42 163 33 q 146 64 146 50 q 150 86 146 72 q 160 117 154 100 q 174 152 167 134 q 189 185 182 170 q 202 214 197 201 q 211 232 208 227 l 479 232 q 494 200 484 222 q 514 152 504 178 q 532 102 524 126 q 541 64 541 77 q 534 41 541 50 q 517 28 527 33 q 494 21 507 23 q 471 20 482 20 l 471 0 m 347 551 l 465 269 l 227 269 l 347 551 m 551 911 l 524 911 q 497 872 517 886 q 451 859 476 859 q 415 866 431 859 q 385 882 399 873 q 354 898 370 891 q 318 905 338 905 q 274 897 294 905 q 241 875 255 889 q 217 841 227 861 q 202 799 208 821 l 229 799 q 236 817 230 808 q 250 832 241 825 q 268 843 258 839 q 289 848 278 848 q 330 840 314 848 q 361 823 346 832 q 393 806 376 814 q 439 799 411 799 q 481 808 462 799 q 515 834 500 818 q 539 870 530 850 q 551 911 549 890 "},"":{"ha":753,"x_min":8,"x_max":745,"o":"m 471 0 l 745 0 l 745 20 q 698 30 716 21 q 667 55 680 39 q 645 90 654 70 q 625 134 635 110 l 385 708 l 367 708 l 122 138 q 102 93 112 114 q 79 57 92 73 q 50 31 66 41 q 8 20 33 21 l 8 0 l 227 0 l 227 20 q 203 22 216 20 q 176 28 189 24 q 155 42 163 33 q 146 64 146 50 q 150 86 146 72 q 160 117 154 100 q 174 152 167 134 q 189 185 182 170 q 202 214 197 201 q 211 232 208 227 l 479 232 q 494 200 484 222 q 514 152 504 178 q 532 102 524 126 q 541 64 541 77 q 534 41 541 50 q 517 28 527 33 q 494 21 507 23 q 471 20 482 20 l 471 0 m 347 551 l 465 269 l 227 269 l 347 551 m 525 845 q 510 881 525 866 q 473 896 494 896 q 454 892 463 896 q 437 881 444 888 q 425 864 429 873 q 420 845 420 855 q 436 808 420 824 q 473 792 452 792 q 493 796 484 792 q 510 807 503 800 q 521 824 517 814 q 525 845 525 834 m 317 845 q 301 881 317 866 q 264 896 285 896 q 244 892 254 896 q 228 881 235 888 q 217 864 221 873 q 212 845 212 855 q 228 808 212 824 q 264 792 243 792 q 284 796 274 792 q 301 807 294 800 q 312 824 308 814 q 317 845 317 834 "},"":{"ha":753,"x_min":8,"x_max":745,"o":"m 471 0 l 745 0 l 745 20 q 698 30 716 21 q 667 55 680 39 q 645 90 654 70 q 625 134 635 110 l 385 708 l 367 708 l 122 138 q 102 93 112 114 q 79 57 92 73 q 50 31 66 41 q 8 20 33 21 l 8 0 l 227 0 l 227 20 q 203 22 216 20 q 176 28 189 24 q 155 42 163 33 q 146 64 146 50 q 150 86 146 72 q 160 117 154 100 q 174 152 167 134 q 189 185 182 170 q 202 214 197 201 q 211 232 208 227 l 479 232 q 494 200 484 222 q 514 152 504 178 q 532 102 524 126 q 541 64 541 77 q 534 41 541 50 q 517 28 527 33 q 494 21 507 23 q 471 20 482 20 l 471 0 m 347 551 l 465 269 l 227 269 l 347 551 m 474 854 q 466 895 474 877 q 444 926 458 913 q 413 945 431 939 q 378 952 396 952 q 340 945 358 952 q 309 925 322 938 q 287 894 295 912 q 279 854 279 876 q 287 815 279 833 q 310 784 296 797 q 342 764 324 771 q 378 757 359 757 q 413 764 396 757 q 444 784 431 771 q 466 815 458 797 q 474 854 474 833 m 439 854 q 434 831 439 842 q 421 811 429 819 q 402 797 413 802 q 378 792 391 792 q 354 796 366 792 q 334 808 342 800 q 319 828 325 817 q 314 854 314 840 q 333 900 314 882 q 378 917 352 917 q 400 912 389 917 q 420 900 412 908 q 434 880 429 892 q 439 854 439 869 "},"":{"ha":932,"x_min":-12,"x_max":902,"o":"m 847 0 l 902 175 l 884 175 q 848 113 866 138 q 806 70 829 87 q 751 45 783 53 q 677 37 720 37 l 585 37 q 560 39 570 37 q 545 44 551 41 q 535 51 538 47 q 529 58 531 55 q 525 78 526 63 q 525 114 525 94 l 525 343 l 656 343 q 710 339 690 343 q 741 323 730 334 q 758 292 753 312 q 768 242 764 273 l 785 242 l 785 481 l 768 481 q 759 435 766 454 q 740 404 753 416 q 707 387 727 392 q 656 382 686 382 l 525 382 l 525 656 l 695 656 q 757 651 734 656 q 794 634 781 647 q 815 600 808 622 q 830 542 823 577 l 847 542 l 840 693 l 271 693 l 271 675 q 315 670 298 673 q 342 661 332 666 q 356 649 352 656 q 359 633 359 642 q 350 595 359 621 q 320 534 340 570 l 109 140 q 82 94 94 113 q 60 61 70 75 q 42 40 50 48 q 26 28 33 33 q -12 19 10 19 l -12 0 l 205 0 l 205 19 q 147 31 170 22 q 125 60 125 39 q 134 95 125 74 q 161 149 144 117 l 225 268 l 427 268 l 427 123 q 415 44 427 60 q 352 19 394 19 l 327 19 l 327 0 l 847 0 m 427 656 l 427 307 l 244 307 l 427 656 "},"":{"ha":699,"x_min":37,"x_max":661,"o":"m 503 -153 q 495 -120 503 -134 q 476 -98 488 -106 q 448 -84 464 -89 q 415 -80 432 -80 q 400 -81 408 -80 q 386 -83 393 -81 l 412 -15 q 557 40 496 -5 q 661 163 618 86 l 646 174 q 599 114 622 140 q 550 68 576 87 q 490 39 523 50 q 414 29 457 29 q 296 54 345 29 q 215 120 247 78 q 169 217 184 162 q 154 335 154 273 q 159 415 154 374 q 175 493 164 455 q 205 563 186 530 q 251 620 224 595 q 315 658 279 644 q 399 672 351 672 q 484 657 446 672 q 550 616 522 642 q 598 553 578 589 q 631 473 618 517 l 646 473 l 631 708 l 612 708 q 607 692 610 701 q 600 677 604 684 q 587 666 595 671 q 570 661 580 661 q 525 680 546 671 q 483 694 505 688 q 439 704 462 701 q 390 708 416 708 q 246 679 311 708 q 135 599 181 650 q 63 481 88 549 q 37 336 37 414 q 61 197 37 261 q 129 85 85 132 q 235 10 172 37 q 374 -17 297 -17 l 332 -119 l 338 -125 q 357 -120 348 -121 q 376 -119 367 -119 q 411 -128 397 -119 q 425 -159 425 -136 q 419 -181 425 -173 q 406 -195 414 -190 q 386 -202 397 -200 q 363 -204 375 -204 q 298 -191 332 -204 l 283 -224 q 368 -240 326 -240 q 411 -236 387 -240 q 455 -221 435 -231 q 489 -194 475 -210 q 503 -153 503 -177 "},"":{"ha":639,"x_min":22,"x_max":616,"o":"m 555 0 l 616 174 l 595 174 q 557 111 574 137 q 518 68 540 85 q 468 45 497 52 q 393 37 439 37 l 277 37 q 243 42 255 37 q 226 56 232 47 q 219 80 220 66 q 218 115 218 95 l 218 343 l 371 343 q 423 338 404 343 q 454 322 442 334 q 471 290 465 310 q 481 240 477 271 l 500 240 l 500 482 l 481 482 q 471 432 477 452 q 453 402 465 413 q 422 386 441 391 q 371 382 403 382 l 218 382 l 218 656 l 410 656 q 471 650 448 656 q 507 632 494 645 q 528 597 520 619 q 545 542 536 575 l 564 542 l 555 693 l 22 693 l 22 675 q 75 671 56 675 q 105 656 95 667 q 118 626 115 646 q 121 574 121 606 l 121 122 q 117 70 121 90 q 104 39 114 50 q 74 24 94 28 q 22 20 55 20 l 22 0 l 555 0 m 374 757 l 417 757 l 271 903 q 210 937 237 937 q 178 897 178 937 q 224 852 178 880 l 374 757 "},"":{"ha":639,"x_min":22,"x_max":616,"o":"m 555 0 l 616 174 l 595 174 q 557 111 574 137 q 518 68 540 85 q 468 45 497 52 q 393 37 439 37 l 277 37 q 243 42 255 37 q 226 56 232 47 q 219 80 220 66 q 218 115 218 95 l 218 343 l 371 343 q 423 338 404 343 q 454 322 442 334 q 471 290 465 310 q 481 240 477 271 l 500 240 l 500 482 l 481 482 q 471 432 477 452 q 453 402 465 413 q 422 386 441 391 q 371 382 403 382 l 218 382 l 218 656 l 410 656 q 471 650 448 656 q 507 632 494 645 q 528 597 520 619 q 545 542 536 575 l 564 542 l 555 693 l 22 693 l 22 675 q 75 671 56 675 q 105 656 95 667 q 118 626 115 646 q 121 574 121 606 l 121 122 q 117 70 121 90 q 104 39 114 50 q 74 24 94 28 q 22 20 55 20 l 22 0 l 555 0 m 460 905 q 453 926 460 917 q 433 936 446 936 q 398 926 414 936 q 370 903 382 916 l 225 757 l 267 757 l 418 852 q 448 875 435 863 q 460 905 460 888 "},"":{"ha":639,"x_min":22,"x_max":616,"o":"m 555 0 l 616 174 l 595 174 q 557 111 574 137 q 518 68 540 85 q 468 45 497 52 q 393 37 439 37 l 277 37 q 243 42 255 37 q 226 56 232 47 q 219 80 220 66 q 218 115 218 95 l 218 343 l 371 343 q 423 338 404 343 q 454 322 442 334 q 471 290 465 310 q 481 240 477 271 l 500 240 l 500 482 l 481 482 q 471 432 477 452 q 453 402 465 413 q 422 386 441 391 q 371 382 403 382 l 218 382 l 218 656 l 410 656 q 471 650 448 656 q 507 632 494 645 q 528 597 520 619 q 545 542 536 575 l 564 542 l 555 693 l 22 693 l 22 675 q 75 671 56 675 q 105 656 95 667 q 118 626 115 646 q 121 574 121 606 l 121 122 q 117 70 121 90 q 104 39 114 50 q 74 24 94 28 q 22 20 55 20 l 22 0 l 555 0 m 447 750 l 483 750 l 353 925 l 288 925 l 155 750 l 191 750 l 319 859 l 447 750 "},"":{"ha":639,"x_min":22,"x_max":616,"o":"m 555 0 l 616 174 l 595 174 q 557 111 574 137 q 518 68 540 85 q 468 45 497 52 q 393 37 439 37 l 277 37 q 243 42 255 37 q 226 56 232 47 q 219 80 220 66 q 218 115 218 95 l 218 343 l 371 343 q 423 338 404 343 q 454 322 442 334 q 471 290 465 310 q 481 240 477 271 l 500 240 l 500 482 l 481 482 q 471 432 477 452 q 453 402 465 413 q 422 386 441 391 q 371 382 403 382 l 218 382 l 218 656 l 410 656 q 471 650 448 656 q 507 632 494 645 q 528 597 520 619 q 545 542 536 575 l 564 542 l 555 693 l 22 693 l 22 675 q 75 671 56 675 q 105 656 95 667 q 118 626 115 646 q 121 574 121 606 l 121 122 q 117 70 121 90 q 104 39 114 50 q 74 24 94 28 q 22 20 55 20 l 22 0 l 555 0 m 468 845 q 453 881 468 866 q 416 896 437 896 q 397 892 406 896 q 380 881 387 888 q 368 864 372 873 q 363 845 363 855 q 379 808 363 824 q 416 792 395 792 q 436 796 427 792 q 453 807 446 800 q 464 824 460 814 q 468 845 468 834 m 260 845 q 244 881 260 866 q 207 896 228 896 q 188 892 197 896 q 171 881 178 888 q 160 864 164 873 q 155 845 155 855 q 171 808 155 824 q 207 792 186 792 q 227 796 217 792 q 244 807 237 800 q 255 824 251 814 q 260 845 260 834 "},"":{"ha":349,"x_min":26,"x_max":323,"o":"m 26 0 l 323 0 l 323 20 q 270 24 290 20 q 240 40 250 28 q 227 71 230 51 q 224 122 224 91 l 224 571 q 227 623 224 603 q 241 654 231 643 q 271 670 252 666 q 323 675 291 675 l 323 693 l 26 693 l 26 675 q 79 670 60 675 q 109 654 99 666 q 122 623 119 643 q 125 571 125 603 l 125 122 q 122 71 125 91 q 109 40 119 51 q 79 24 99 28 q 26 20 60 20 l 26 0 m 230 757 l 273 757 l 127 903 q 66 937 93 937 q 34 897 34 937 q 80 852 34 880 l 230 757 "},"":{"ha":349,"x_min":26,"x_max":323,"o":"m 26 0 l 323 0 l 323 20 q 270 24 290 20 q 240 40 250 28 q 227 71 230 51 q 224 122 224 91 l 224 571 q 227 623 224 603 q 241 654 231 643 q 271 670 252 666 q 323 675 291 675 l 323 693 l 26 693 l 26 675 q 79 670 60 675 q 109 654 99 666 q 122 623 119 643 q 125 571 125 603 l 125 122 q 122 71 125 91 q 109 40 119 51 q 79 24 99 28 q 26 20 60 20 l 26 0 m 315 905 q 308 926 315 917 q 288 936 301 936 q 254 926 269 936 q 225 903 238 916 l 81 757 l 123 757 l 274 852 q 303 875 291 863 q 315 905 315 888 "},"":{"ha":349,"x_min":11,"x_max":338,"o":"m 26 0 l 323 0 l 323 20 q 270 24 290 20 q 240 40 250 28 q 227 71 230 51 q 224 122 224 91 l 224 571 q 227 623 224 603 q 241 654 231 643 q 271 670 252 666 q 323 675 291 675 l 323 693 l 26 693 l 26 675 q 79 670 60 675 q 109 654 99 666 q 122 623 119 643 q 125 571 125 603 l 125 122 q 122 71 125 91 q 109 40 119 51 q 79 24 99 28 q 26 20 60 20 l 26 0 m 302 750 l 338 750 l 208 925 l 143 925 l 11 750 l 47 750 l 175 859 l 302 750 "},"":{"ha":349,"x_min":11,"x_max":323,"o":"m 26 0 l 323 0 l 323 20 q 270 24 290 20 q 240 40 250 28 q 227 71 230 51 q 224 122 224 91 l 224 571 q 227 623 224 603 q 241 654 231 643 q 271 670 252 666 q 323 675 291 675 l 323 693 l 26 693 l 26 675 q 79 670 60 675 q 109 654 99 666 q 122 623 119 643 q 125 571 125 603 l 125 122 q 122 71 125 91 q 109 40 119 51 q 79 24 99 28 q 26 20 60 20 l 26 0 m 323 845 q 308 881 323 866 q 272 896 293 896 q 252 892 262 896 q 235 881 243 888 q 223 864 228 873 q 219 845 219 855 q 235 808 219 824 q 272 792 251 792 q 292 796 282 792 q 308 807 301 800 q 319 824 315 814 q 323 845 323 834 m 115 845 q 99 881 115 866 q 62 896 83 896 q 43 892 52 896 q 27 881 34 888 q 15 864 20 873 q 11 845 11 855 q 26 808 11 824 q 62 792 41 792 q 82 796 73 792 q 99 807 92 800 q 111 824 106 814 q 115 845 115 834 "},"":{"ha":757,"x_min":18,"x_max":715,"o":"m 715 352 q 702 454 715 406 q 666 541 689 502 q 610 609 642 580 q 539 656 578 638 q 300 693 462 693 l 18 693 l 18 675 l 44 675 q 79 670 64 675 q 104 653 94 665 q 117 571 117 637 l 117 405 l 18 405 l 18 347 l 117 347 l 117 123 q 115 78 117 97 q 105 45 113 58 q 83 26 98 33 q 44 19 68 19 l 18 19 l 18 0 l 329 0 q 505 27 431 0 q 625 103 578 55 q 693 215 671 151 q 715 352 715 279 m 601 347 q 580 217 601 274 q 522 119 559 159 q 434 58 485 79 q 324 37 384 37 q 274 40 302 37 q 216 51 246 43 l 216 347 l 418 347 l 418 405 l 216 405 l 216 641 q 272 652 246 649 q 320 656 298 656 q 434 634 382 656 q 523 573 486 613 q 580 476 559 533 q 601 347 601 418 "},"":{"ha":755,"x_min":5,"x_max":742,"o":"m 742 675 l 742 693 l 500 693 l 500 675 q 552 671 532 675 q 582 655 571 667 q 595 625 592 644 q 599 574 599 605 l 599 174 l 175 693 l 5 693 l 5 675 q 45 670 28 675 q 74 656 62 665 q 98 634 87 647 q 122 603 109 621 l 122 121 q 119 70 122 90 q 105 39 115 50 q 76 24 95 28 q 24 20 56 20 l 24 0 l 265 0 l 265 20 q 213 23 233 20 q 183 38 193 27 q 170 68 173 49 q 167 121 167 88 l 167 547 l 625 -11 l 643 -11 l 643 574 q 646 625 643 605 q 660 655 649 644 q 690 671 670 667 q 742 675 709 675 m 548 911 l 521 911 q 494 872 515 886 q 448 859 473 859 q 412 866 428 859 q 382 882 397 873 q 351 898 367 891 q 315 905 336 905 q 272 897 291 905 q 238 875 252 889 q 214 841 224 861 q 199 799 205 821 l 227 799 q 233 817 227 808 q 247 832 239 825 q 265 843 255 839 q 286 848 275 848 q 327 840 311 848 q 358 823 343 832 q 391 806 373 814 q 437 799 408 799 q 478 808 459 799 q 512 834 497 818 q 536 870 527 850 q 548 911 546 890 "},"":{"ha":755,"x_min":36,"x_max":715,"o":"m 715 350 q 692 487 715 422 q 624 601 668 552 q 519 679 581 650 q 383 708 458 708 q 243 680 307 708 q 133 603 179 652 q 61 489 87 555 q 36 349 36 424 q 60 208 36 274 q 128 91 83 141 q 235 12 172 41 q 375 -17 298 -17 q 515 13 452 -17 q 622 93 578 42 q 691 210 667 143 q 715 350 715 276 m 599 343 q 595 268 599 306 q 581 194 591 229 q 554 126 571 158 q 513 72 538 95 q 453 35 488 48 q 374 21 419 21 q 297 36 330 21 q 239 76 264 51 q 199 134 215 101 q 172 204 182 168 q 158 279 162 241 q 154 351 154 317 q 158 424 154 387 q 172 497 162 462 q 198 565 182 533 q 239 621 214 597 q 296 658 263 644 q 372 672 329 672 q 454 658 419 672 q 515 621 490 644 q 556 565 540 597 q 582 496 572 533 q 595 420 591 460 q 599 343 599 381 m 431 757 l 473 757 l 328 903 q 267 937 294 937 q 235 897 235 937 q 281 852 235 880 l 431 757 "},"":{"ha":755,"x_min":36,"x_max":715,"o":"m 715 350 q 692 487 715 422 q 624 601 668 552 q 519 679 581 650 q 383 708 458 708 q 243 680 307 708 q 133 603 179 652 q 61 489 87 555 q 36 349 36 424 q 60 208 36 274 q 128 91 83 141 q 235 12 172 41 q 375 -17 298 -17 q 515 13 452 -17 q 622 93 578 42 q 691 210 667 143 q 715 350 715 276 m 599 343 q 595 268 599 306 q 581 194 591 229 q 554 126 571 158 q 513 72 538 95 q 453 35 488 48 q 374 21 419 21 q 297 36 330 21 q 239 76 264 51 q 199 134 215 101 q 172 204 182 168 q 158 279 162 241 q 154 351 154 317 q 158 424 154 387 q 172 497 162 462 q 198 565 182 533 q 239 621 214 597 q 296 658 263 644 q 372 672 329 672 q 454 658 419 672 q 515 621 490 644 q 556 565 540 597 q 582 496 572 533 q 595 420 591 460 q 599 343 599 381 m 516 905 q 509 926 516 917 q 489 936 502 936 q 454 926 470 936 q 426 903 439 916 l 281 757 l 323 757 l 475 852 q 504 875 492 863 q 516 905 516 888 "},"":{"ha":755,"x_min":36,"x_max":715,"o":"m 715 350 q 692 487 715 422 q 624 601 668 552 q 519 679 581 650 q 383 708 458 708 q 243 680 307 708 q 133 603 179 652 q 61 489 87 555 q 36 349 36 424 q 60 208 36 274 q 128 91 83 141 q 235 12 172 41 q 375 -17 298 -17 q 515 13 452 -17 q 622 93 578 42 q 691 210 667 143 q 715 350 715 276 m 599 343 q 595 268 599 306 q 581 194 591 229 q 554 126 571 158 q 513 72 538 95 q 453 35 488 48 q 374 21 419 21 q 297 36 330 21 q 239 76 264 51 q 199 134 215 101 q 172 204 182 168 q 158 279 162 241 q 154 351 154 317 q 158 424 154 387 q 172 497 162 462 q 198 565 182 533 q 239 621 214 597 q 296 658 263 644 q 372 672 329 672 q 454 658 419 672 q 515 621 490 644 q 556 565 540 597 q 582 496 572 533 q 595 420 591 460 q 599 343 599 381 m 503 750 l 539 750 l 409 925 l 344 925 l 212 750 l 248 750 l 376 859 l 503 750 "},"":{"ha":755,"x_min":36,"x_max":715,"o":"m 715 350 q 692 487 715 422 q 624 601 668 552 q 519 679 581 650 q 383 708 458 708 q 243 680 307 708 q 133 603 179 652 q 61 489 87 555 q 36 349 36 424 q 60 208 36 274 q 128 91 83 141 q 235 12 172 41 q 375 -17 298 -17 q 515 13 452 -17 q 622 93 578 42 q 691 210 667 143 q 715 350 715 276 m 599 343 q 595 268 599 306 q 581 194 591 229 q 554 126 571 158 q 513 72 538 95 q 453 35 488 48 q 374 21 419 21 q 297 36 330 21 q 239 76 264 51 q 199 134 215 101 q 172 204 182 168 q 158 279 162 241 q 154 351 154 317 q 158 424 154 387 q 172 497 162 462 q 198 565 182 533 q 239 621 214 597 q 296 658 263 644 q 372 672 329 672 q 454 658 419 672 q 515 621 490 644 q 556 565 540 597 q 582 496 572 533 q 595 420 591 460 q 599 343 599 381 m 550 911 l 523 911 q 496 872 517 886 q 450 859 475 859 q 414 866 430 859 q 384 882 399 873 q 353 898 369 891 q 317 905 338 905 q 274 897 293 905 q 240 875 254 889 q 216 841 226 861 q 201 799 207 821 l 229 799 q 235 817 229 808 q 249 832 241 825 q 267 843 257 839 q 288 848 277 848 q 329 840 313 848 q 360 823 345 832 q 393 806 375 814 q 439 799 410 799 q 480 808 461 799 q 514 834 499 818 q 538 870 529 850 q 550 911 548 890 "},"":{"ha":755,"x_min":36,"x_max":715,"o":"m 715 350 q 692 487 715 422 q 624 601 668 552 q 519 679 581 650 q 383 708 458 708 q 243 680 307 708 q 133 603 179 652 q 61 489 87 555 q 36 349 36 424 q 60 208 36 274 q 128 91 83 141 q 235 12 172 41 q 375 -17 298 -17 q 515 13 452 -17 q 622 93 578 42 q 691 210 667 143 q 715 350 715 276 m 599 343 q 595 268 599 306 q 581 194 591 229 q 554 126 571 158 q 513 72 538 95 q 453 35 488 48 q 374 21 419 21 q 297 36 330 21 q 239 76 264 51 q 199 134 215 101 q 172 204 182 168 q 158 279 162 241 q 154 351 154 317 q 158 424 154 387 q 172 497 162 462 q 198 565 182 533 q 239 621 214 597 q 296 658 263 644 q 372 672 329 672 q 454 658 419 672 q 515 621 490 644 q 556 565 540 597 q 582 496 572 533 q 595 420 591 460 q 599 343 599 381 m 524 845 q 509 881 524 866 q 473 896 494 896 q 453 892 463 896 q 436 881 444 888 q 424 864 429 873 q 420 845 420 855 q 436 808 420 824 q 473 792 452 792 q 492 796 483 792 q 509 807 502 800 q 520 824 516 814 q 524 845 524 834 m 316 845 q 300 881 316 866 q 263 896 284 896 q 244 892 253 896 q 228 881 235 888 q 216 864 220 873 q 212 845 212 855 q 227 808 212 824 q 263 792 242 792 q 283 796 273 792 q 300 807 293 800 q 312 824 307 814 q 316 845 316 834 "},"":{"ha":621,"x_min":93,"x_max":524,"o":"m 494 71 l 524 100 l 339 286 l 524 471 l 494 501 l 309 315 l 123 501 l 93 471 l 279 286 l 93 100 l 123 71 l 309 256 l 494 71 "},"":{"ha":757,"x_min":37,"x_max":716,"o":"m 716 352 q 711 425 716 391 q 693 490 705 459 q 662 550 681 522 q 614 608 642 579 l 684 693 l 654 715 l 587 633 q 379 709 495 709 q 245 682 307 709 q 136 607 182 654 q 64 494 90 559 q 37 355 37 429 q 140 83 37 189 l 73 0 l 103 -24 l 168 58 q 218 25 191 39 q 272 2 245 11 q 327 -12 300 -7 q 380 -16 355 -16 q 508 11 447 -16 q 615 88 568 39 q 689 204 661 137 q 716 352 716 272 m 544 581 l 191 148 q 154 357 154 239 q 164 468 154 412 q 201 569 175 524 q 269 644 227 615 q 376 673 311 673 q 544 581 485 673 m 599 336 q 581 190 599 250 q 533 93 564 130 q 461 38 503 55 q 373 21 420 21 q 287 41 326 21 q 212 111 248 60 l 562 544 q 582 485 575 511 q 593 433 589 458 q 598 386 597 409 q 599 336 599 362 "},"":{"ha":755,"x_min":16,"x_max":746,"o":"m 746 675 l 746 693 l 500 693 l 500 675 q 552 671 532 675 q 582 655 572 667 q 596 624 593 644 q 599 571 599 604 l 599 290 q 598 241 599 269 q 592 185 597 213 q 578 131 587 157 q 551 90 568 106 q 474 43 517 58 q 385 28 431 28 q 291 47 327 28 q 236 99 256 66 q 211 176 217 132 q 204 268 204 220 l 204 571 q 207 619 204 600 q 220 651 210 639 q 247 669 229 664 q 294 675 264 675 l 294 693 l 16 693 l 16 675 q 64 669 46 675 q 91 651 82 664 q 103 619 100 639 q 106 571 106 600 l 106 298 q 116 164 106 223 q 157 65 127 106 q 240 4 186 25 q 378 -17 293 -17 q 506 4 454 -17 q 588 63 557 24 q 632 158 619 102 q 646 285 646 214 l 646 567 q 650 617 646 597 q 665 651 654 638 q 695 669 675 663 q 746 675 715 675 m 435 757 l 478 757 l 332 903 q 271 937 298 937 q 239 897 239 937 q 286 852 239 880 l 435 757 "},"":{"ha":755,"x_min":16,"x_max":746,"o":"m 746 675 l 746 693 l 500 693 l 500 675 q 552 671 532 675 q 582 655 572 667 q 596 624 593 644 q 599 571 599 604 l 599 290 q 598 241 599 269 q 592 185 597 213 q 578 131 587 157 q 551 90 568 106 q 474 43 517 58 q 385 28 431 28 q 291 47 327 28 q 236 99 256 66 q 211 176 217 132 q 204 268 204 220 l 204 571 q 207 619 204 600 q 220 651 210 639 q 247 669 229 664 q 294 675 264 675 l 294 693 l 16 693 l 16 675 q 64 669 46 675 q 91 651 82 664 q 103 619 100 639 q 106 571 106 600 l 106 298 q 116 164 106 223 q 157 65 127 106 q 240 4 186 25 q 378 -17 293 -17 q 506 4 454 -17 q 588 63 557 24 q 632 158 619 102 q 646 285 646 214 l 646 567 q 650 617 646 597 q 665 651 654 638 q 695 669 675 663 q 746 675 715 675 m 521 905 q 514 926 521 917 q 494 936 507 936 q 459 926 475 936 q 431 903 444 916 l 286 757 l 328 757 l 479 852 q 509 875 496 863 q 521 905 521 888 "},"":{"ha":755,"x_min":16,"x_max":746,"o":"m 746 675 l 746 693 l 500 693 l 500 675 q 552 671 532 675 q 582 655 572 667 q 596 624 593 644 q 599 571 599 604 l 599 290 q 598 241 599 269 q 592 185 597 213 q 578 131 587 157 q 551 90 568 106 q 474 43 517 58 q 385 28 431 28 q 291 47 327 28 q 236 99 256 66 q 211 176 217 132 q 204 268 204 220 l 204 571 q 207 619 204 600 q 220 651 210 639 q 247 669 229 664 q 294 675 264 675 l 294 693 l 16 693 l 16 675 q 64 669 46 675 q 91 651 82 664 q 103 619 100 639 q 106 571 106 600 l 106 298 q 116 164 106 223 q 157 65 127 106 q 240 4 186 25 q 378 -17 293 -17 q 506 4 454 -17 q 588 63 557 24 q 632 158 619 102 q 646 285 646 214 l 646 567 q 650 617 646 597 q 665 651 654 638 q 695 669 675 663 q 746 675 715 675 m 508 750 l 544 750 l 414 925 l 349 925 l 216 750 l 252 750 l 380 859 l 508 750 "},"":{"ha":755,"x_min":16,"x_max":746,"o":"m 746 675 l 746 693 l 500 693 l 500 675 q 552 671 532 675 q 582 655 572 667 q 596 624 593 644 q 599 571 599 604 l 599 290 q 598 241 599 269 q 592 185 597 213 q 578 131 587 157 q 551 90 568 106 q 474 43 517 58 q 385 28 431 28 q 291 47 327 28 q 236 99 256 66 q 211 176 217 132 q 204 268 204 220 l 204 571 q 207 619 204 600 q 220 651 210 639 q 247 669 229 664 q 294 675 264 675 l 294 693 l 16 693 l 16 675 q 64 669 46 675 q 91 651 82 664 q 103 619 100 639 q 106 571 106 600 l 106 298 q 116 164 106 223 q 157 65 127 106 q 240 4 186 25 q 378 -17 293 -17 q 506 4 454 -17 q 588 63 557 24 q 632 158 619 102 q 646 285 646 214 l 646 567 q 650 617 646 597 q 665 651 654 638 q 695 669 675 663 q 746 675 715 675 m 529 845 q 514 881 529 866 q 477 896 498 896 q 458 892 467 896 q 441 881 448 888 q 429 864 433 873 q 425 845 425 855 q 440 808 425 824 q 477 792 456 792 q 497 796 488 792 q 514 807 507 800 q 525 824 521 814 q 529 845 529 834 m 321 845 q 305 881 321 866 q 268 896 289 896 q 249 892 258 896 q 232 881 239 888 q 221 864 225 873 q 216 845 216 855 q 232 808 216 824 q 268 792 247 792 q 288 796 278 792 q 305 807 298 800 q 316 824 312 814 q 321 845 321 834 "},"":{"ha":755,"x_min":9,"x_max":742,"o":"m 742 675 l 742 693 l 500 693 l 500 675 q 524 672 511 675 q 546 664 536 670 q 563 649 556 659 q 570 625 570 640 q 567 607 570 617 q 559 587 564 597 q 549 568 554 577 q 539 553 543 559 l 401 339 q 387 361 400 341 q 354 409 374 380 q 313 472 335 438 q 271 538 290 507 q 239 594 252 570 q 227 629 227 619 q 235 654 227 645 q 255 668 243 663 q 281 673 267 672 q 306 675 295 675 l 306 693 l 9 693 l 9 675 q 51 666 33 675 q 84 642 69 656 q 112 610 99 627 q 135 575 124 592 l 323 285 l 323 121 q 321 70 323 90 q 308 39 318 50 q 279 24 298 28 q 228 20 260 20 l 228 0 l 522 0 l 522 20 q 470 23 490 20 q 441 38 451 27 q 427 69 431 50 q 424 121 424 89 l 424 294 l 606 578 q 633 618 620 601 q 663 649 647 636 q 697 668 678 661 q 742 675 716 675 m 516 905 q 509 926 516 917 q 489 936 502 936 q 454 926 470 936 q 426 903 439 916 l 281 757 l 323 757 l 475 852 q 504 875 492 863 q 516 905 516 888 "},"":{"ha":583,"x_min":19,"x_max":543,"o":"m 543 348 q 525 429 543 393 q 474 488 507 464 q 397 524 441 511 q 300 536 353 536 l 214 536 l 214 570 q 218 615 214 595 q 230 648 221 635 q 253 668 238 661 q 293 675 269 675 l 315 675 l 315 693 l 19 693 l 19 675 l 39 675 q 80 668 64 675 q 103 648 95 661 q 114 615 111 635 q 116 570 116 595 l 116 123 q 113 75 116 94 q 102 43 111 55 q 79 25 94 31 q 37 19 63 19 l 19 19 l 19 0 l 315 0 l 315 19 l 293 19 q 251 26 267 19 q 227 46 235 33 q 217 79 219 60 q 214 125 214 99 l 214 156 l 298 156 q 397 169 352 156 q 474 205 441 181 q 525 265 507 229 q 543 348 543 301 m 424 347 q 414 286 424 314 q 382 236 404 257 q 327 203 361 215 q 244 191 293 191 l 214 191 l 214 497 l 266 497 q 329 487 300 497 q 379 458 357 477 q 412 411 400 439 q 424 347 424 382 "},"":{"ha":524,"x_min":18,"x_max":490,"o":"m 490 216 q 454 351 490 301 q 351 420 418 401 q 401 449 382 433 q 430 484 420 465 q 445 522 441 502 q 448 562 448 542 q 435 629 448 598 q 399 682 422 660 q 342 715 376 703 q 268 728 309 728 q 189 714 223 728 q 132 673 155 701 q 97 601 109 646 q 85 495 85 557 l 85 115 q 82 67 85 85 q 72 38 79 49 q 51 24 64 28 q 18 19 38 20 l 18 0 l 171 0 l 171 530 q 178 613 171 581 q 197 663 185 645 q 227 687 210 680 q 264 693 244 693 q 304 686 286 693 q 335 663 322 679 q 356 623 349 648 q 363 564 363 599 q 355 498 363 525 q 334 456 348 472 q 299 432 319 439 q 253 425 279 425 l 253 396 q 320 375 292 393 q 367 328 349 358 q 394 255 385 297 q 403 160 403 212 q 382 57 403 91 q 327 22 361 22 q 306 28 314 22 q 297 46 297 35 q 300 62 297 51 q 303 81 303 73 q 292 110 303 99 q 260 121 281 121 q 230 109 240 121 q 220 77 220 96 q 227 43 220 58 q 248 17 235 28 q 279 0 261 6 q 318 -6 297 -6 q 390 12 358 -6 q 444 61 422 31 q 478 132 467 92 q 490 216 490 172 "},"":{"ha":465,"x_min":37,"x_max":464,"o":"m 464 68 l 464 97 q 453 86 460 93 q 438 73 446 79 q 422 61 430 66 q 408 56 414 56 q 392 63 397 56 q 386 81 387 71 q 384 97 385 87 q 384 118 384 107 q 383 141 383 130 q 383 163 383 153 l 383 322 q 375 396 383 366 q 349 446 368 427 q 301 474 331 465 q 227 482 271 482 q 170 476 200 482 q 115 455 140 469 q 73 418 90 441 q 56 364 56 396 q 65 329 56 342 q 98 315 75 315 q 133 328 124 315 q 142 364 142 341 q 144 399 142 383 q 153 427 146 415 q 174 445 160 439 q 211 452 187 452 q 256 441 239 452 q 283 414 273 431 q 295 375 292 397 q 298 329 298 353 l 298 310 q 249 293 277 302 q 192 271 221 283 q 135 242 163 258 q 85 207 107 227 q 51 163 64 187 q 37 111 37 140 q 45 63 37 85 q 66 25 52 41 q 101 0 81 9 q 149 -9 122 -9 q 191 -2 172 -9 q 229 16 211 5 q 264 41 248 27 q 298 68 281 54 q 301 40 298 54 q 309 15 303 26 q 326 -3 315 4 q 353 -9 336 -9 q 387 -2 370 -9 q 417 16 403 5 q 443 41 431 27 q 464 68 454 55 m 298 281 l 298 102 q 276 84 288 94 q 250 67 263 75 q 223 55 237 60 q 196 50 210 50 q 165 58 178 50 q 142 77 152 65 q 128 104 133 90 q 123 135 123 119 q 141 185 123 163 q 185 226 159 208 q 242 258 212 244 q 298 281 273 271 m 283 533 l 326 533 l 180 679 q 119 713 146 713 q 87 673 87 713 q 133 628 87 656 l 283 533 "},"":{"ha":465,"x_min":37,"x_max":464,"o":"m 464 68 l 464 97 q 453 86 460 93 q 438 73 446 79 q 422 61 430 66 q 408 56 414 56 q 392 63 397 56 q 386 81 387 71 q 384 97 385 87 q 384 118 384 107 q 383 141 383 130 q 383 163 383 153 l 383 322 q 375 396 383 366 q 349 446 368 427 q 301 474 331 465 q 227 482 271 482 q 170 476 200 482 q 115 455 140 469 q 73 418 90 441 q 56 364 56 396 q 65 329 56 342 q 98 315 75 315 q 133 328 124 315 q 142 364 142 341 q 144 399 142 383 q 153 427 146 415 q 174 445 160 439 q 211 452 187 452 q 256 441 239 452 q 283 414 273 431 q 295 375 292 397 q 298 329 298 353 l 298 310 q 249 293 277 302 q 192 271 221 283 q 135 242 163 258 q 85 207 107 227 q 51 163 64 187 q 37 111 37 140 q 45 63 37 85 q 66 25 52 41 q 101 0 81 9 q 149 -9 122 -9 q 191 -2 172 -9 q 229 16 211 5 q 264 41 248 27 q 298 68 281 54 q 301 40 298 54 q 309 15 303 26 q 326 -3 315 4 q 353 -9 336 -9 q 387 -2 370 -9 q 417 16 403 5 q 443 41 431 27 q 464 68 454 55 m 298 281 l 298 102 q 276 84 288 94 q 250 67 263 75 q 223 55 237 60 q 196 50 210 50 q 165 58 178 50 q 142 77 152 65 q 128 104 133 90 q 123 135 123 119 q 141 185 123 163 q 185 226 159 208 q 242 258 212 244 q 298 281 273 271 m 368 682 q 361 703 368 693 q 341 712 354 712 q 307 702 322 712 q 278 679 291 692 l 134 533 l 176 533 l 327 628 q 356 651 344 639 q 368 682 368 664 "},"":{"ha":465,"x_min":37,"x_max":464,"o":"m 464 68 l 464 97 q 453 86 460 93 q 438 73 446 79 q 422 61 430 66 q 408 56 414 56 q 392 63 397 56 q 386 81 387 71 q 384 97 385 87 q 384 118 384 107 q 383 141 383 130 q 383 163 383 153 l 383 322 q 375 396 383 366 q 349 446 368 427 q 301 474 331 465 q 227 482 271 482 q 170 476 200 482 q 115 455 140 469 q 73 418 90 441 q 56 364 56 396 q 65 329 56 342 q 98 315 75 315 q 133 328 124 315 q 142 364 142 341 q 144 399 142 383 q 153 427 146 415 q 174 445 160 439 q 211 452 187 452 q 256 441 239 452 q 283 414 273 431 q 295 375 292 397 q 298 329 298 353 l 298 310 q 249 293 277 302 q 192 271 221 283 q 135 242 163 258 q 85 207 107 227 q 51 163 64 187 q 37 111 37 140 q 45 63 37 85 q 66 25 52 41 q 101 0 81 9 q 149 -9 122 -9 q 191 -2 172 -9 q 229 16 211 5 q 264 41 248 27 q 298 68 281 54 q 301 40 298 54 q 309 15 303 26 q 326 -3 315 4 q 353 -9 336 -9 q 387 -2 370 -9 q 417 16 403 5 q 443 41 431 27 q 464 68 454 55 m 298 281 l 298 102 q 276 84 288 94 q 250 67 263 75 q 223 55 237 60 q 196 50 210 50 q 165 58 178 50 q 142 77 152 65 q 128 104 133 90 q 123 135 123 119 q 141 185 123 163 q 185 226 159 208 q 242 258 212 244 q 298 281 273 271 m 355 526 l 391 526 l 261 701 l 196 701 l 64 526 l 100 526 l 228 635 l 355 526 "},"":{"ha":465,"x_min":37,"x_max":464,"o":"m 464 68 l 464 97 q 453 86 460 93 q 438 73 446 79 q 422 61 430 66 q 408 56 414 56 q 392 63 397 56 q 386 81 387 71 q 384 97 385 87 q 384 118 384 107 q 383 141 383 130 q 383 163 383 153 l 383 322 q 375 396 383 366 q 349 446 368 427 q 301 474 331 465 q 227 482 271 482 q 170 476 200 482 q 115 455 140 469 q 73 418 90 441 q 56 364 56 396 q 65 329 56 342 q 98 315 75 315 q 133 328 124 315 q 142 364 142 341 q 144 399 142 383 q 153 427 146 415 q 174 445 160 439 q 211 452 187 452 q 256 441 239 452 q 283 414 273 431 q 295 375 292 397 q 298 329 298 353 l 298 310 q 249 293 277 302 q 192 271 221 283 q 135 242 163 258 q 85 207 107 227 q 51 163 64 187 q 37 111 37 140 q 45 63 37 85 q 66 25 52 41 q 101 0 81 9 q 149 -9 122 -9 q 191 -2 172 -9 q 229 16 211 5 q 264 41 248 27 q 298 68 281 54 q 301 40 298 54 q 309 15 303 26 q 326 -3 315 4 q 353 -9 336 -9 q 387 -2 370 -9 q 417 16 403 5 q 443 41 431 27 q 464 68 454 55 m 298 281 l 298 102 q 276 84 288 94 q 250 67 263 75 q 223 55 237 60 q 196 50 210 50 q 165 58 178 50 q 142 77 152 65 q 128 104 133 90 q 123 135 123 119 q 141 185 123 163 q 185 226 159 208 q 242 258 212 244 q 298 281 273 271 m 402 687 l 375 687 q 348 649 369 662 q 302 635 328 635 q 267 643 282 635 q 236 659 251 650 q 205 674 221 667 q 170 682 190 682 q 126 673 145 682 q 92 651 106 665 q 68 617 78 637 q 54 575 59 597 l 81 575 q 87 593 81 584 q 101 608 93 602 q 119 620 109 615 q 140 624 130 624 q 181 616 165 624 q 212 599 197 608 q 245 583 227 590 q 291 575 262 575 q 332 585 313 575 q 366 610 351 594 q 391 646 381 626 q 402 687 400 666 "},"":{"ha":465,"x_min":37,"x_max":464,"o":"m 464 68 l 464 97 q 453 86 460 93 q 438 73 446 79 q 422 61 430 66 q 408 56 414 56 q 392 63 397 56 q 386 81 387 71 q 384 97 385 87 q 384 118 384 107 q 383 141 383 130 q 383 163 383 153 l 383 322 q 375 396 383 366 q 349 446 368 427 q 301 474 331 465 q 227 482 271 482 q 170 476 200 482 q 115 455 140 469 q 73 418 90 441 q 56 364 56 396 q 65 329 56 342 q 98 315 75 315 q 133 328 124 315 q 142 364 142 341 q 144 399 142 383 q 153 427 146 415 q 174 445 160 439 q 211 452 187 452 q 256 441 239 452 q 283 414 273 431 q 295 375 292 397 q 298 329 298 353 l 298 310 q 249 293 277 302 q 192 271 221 283 q 135 242 163 258 q 85 207 107 227 q 51 163 64 187 q 37 111 37 140 q 45 63 37 85 q 66 25 52 41 q 101 0 81 9 q 149 -9 122 -9 q 191 -2 172 -9 q 229 16 211 5 q 264 41 248 27 q 298 68 281 54 q 301 40 298 54 q 309 15 303 26 q 326 -3 315 4 q 353 -9 336 -9 q 387 -2 370 -9 q 417 16 403 5 q 443 41 431 27 q 464 68 454 55 m 298 281 l 298 102 q 276 84 288 94 q 250 67 263 75 q 223 55 237 60 q 196 50 210 50 q 165 58 178 50 q 142 77 152 65 q 128 104 133 90 q 123 135 123 119 q 141 185 123 163 q 185 226 159 208 q 242 258 212 244 q 298 281 273 271 m 376 621 q 361 657 376 642 q 325 672 346 672 q 305 668 315 672 q 288 657 296 664 q 276 641 281 650 q 272 621 272 631 q 288 584 272 600 q 325 568 304 568 q 345 572 335 568 q 361 584 354 576 q 372 601 368 591 q 376 621 376 610 m 168 621 q 152 657 168 642 q 115 672 136 672 q 96 668 105 672 q 80 657 87 664 q 68 641 73 650 q 64 621 64 631 q 79 584 64 600 q 115 568 94 568 q 135 572 125 568 q 152 584 145 576 q 164 601 159 591 q 168 621 168 610 "},"":{"ha":465,"x_min":37,"x_max":464,"o":"m 464 68 l 464 97 q 453 86 460 93 q 438 73 446 79 q 422 61 430 66 q 408 56 414 56 q 392 63 397 56 q 386 81 387 71 q 384 97 385 87 q 384 118 384 107 q 383 141 383 130 q 383 163 383 153 l 383 322 q 375 396 383 366 q 349 446 368 427 q 301 474 331 465 q 227 482 271 482 q 170 476 200 482 q 115 455 140 469 q 73 418 90 441 q 56 364 56 396 q 65 329 56 342 q 98 315 75 315 q 133 328 124 315 q 142 364 142 341 q 144 399 142 383 q 153 427 146 415 q 174 445 160 439 q 211 452 187 452 q 256 441 239 452 q 283 414 273 431 q 295 375 292 397 q 298 329 298 353 l 298 310 q 249 293 277 302 q 192 271 221 283 q 135 242 163 258 q 85 207 107 227 q 51 163 64 187 q 37 111 37 140 q 45 63 37 85 q 66 25 52 41 q 101 0 81 9 q 149 -9 122 -9 q 191 -2 172 -9 q 229 16 211 5 q 264 41 248 27 q 298 68 281 54 q 301 40 298 54 q 309 15 303 26 q 326 -3 315 4 q 353 -9 336 -9 q 387 -2 370 -9 q 417 16 403 5 q 443 41 431 27 q 464 68 454 55 m 298 281 l 298 102 q 276 84 288 94 q 250 67 263 75 q 223 55 237 60 q 196 50 210 50 q 165 58 178 50 q 142 77 152 65 q 128 104 133 90 q 123 135 123 119 q 141 185 123 163 q 185 226 159 208 q 242 258 212 244 q 298 281 273 271 m 326 631 q 317 671 326 653 q 296 702 309 690 q 265 722 282 715 q 229 728 248 728 q 192 721 210 728 q 160 701 174 714 q 138 670 146 688 q 130 631 130 652 q 139 591 130 609 q 161 560 147 573 q 193 540 176 547 q 229 533 211 533 q 265 540 248 533 q 296 560 282 547 q 317 591 309 573 q 326 631 326 609 m 290 631 q 286 607 290 618 q 273 587 281 595 q 253 573 264 578 q 229 568 242 568 q 205 572 217 568 q 185 585 194 576 q 171 604 176 593 q 165 631 165 616 q 184 676 165 659 q 229 693 203 693 q 252 689 241 693 q 272 676 263 684 q 285 656 280 668 q 290 631 290 645 "},"":{"ha":699,"x_min":37,"x_max":667,"o":"m 667 163 l 651 175 q 611 110 633 133 q 568 76 589 87 q 530 64 547 66 q 506 62 513 62 q 445 77 470 62 q 404 116 420 91 q 382 177 389 142 q 375 254 375 212 l 375 290 l 667 290 q 621 432 666 382 q 500 481 576 481 q 422 468 455 481 q 363 420 389 454 q 321 464 353 447 q 226 481 290 481 q 149 471 181 481 q 95 443 116 460 q 64 406 74 426 q 54 366 54 385 q 64 332 54 347 q 100 317 75 317 q 128 330 115 317 q 141 363 141 342 q 140 379 141 371 q 139 399 139 387 q 159 438 139 422 q 212 454 179 454 q 268 431 248 454 q 288 352 288 408 l 288 305 q 172 256 220 277 q 94 212 124 234 q 51 164 64 190 q 37 103 37 138 q 46 57 37 79 q 71 19 56 35 q 107 -6 87 3 q 152 -15 128 -15 q 210 -6 182 -15 q 259 16 237 3 q 298 43 281 29 q 327 67 315 58 q 350 36 337 51 q 379 10 362 21 q 420 -8 397 -1 q 477 -15 444 -15 q 550 0 519 -15 q 604 40 581 15 q 643 97 627 64 q 667 163 658 129 m 569 323 l 375 323 q 384 378 376 355 q 406 416 392 401 q 437 439 419 431 q 475 446 455 446 q 511 439 494 446 q 541 418 528 433 q 561 379 553 403 q 569 323 568 356 m 313 95 q 275 67 291 78 q 248 51 260 57 q 225 42 235 45 q 205 40 216 40 q 174 47 189 40 q 148 67 159 54 q 131 96 137 79 q 124 132 124 113 q 139 182 124 161 q 177 220 154 203 q 230 249 201 236 q 288 272 260 261 l 288 227 q 290 189 288 208 q 295 152 292 170 q 303 120 298 135 q 313 95 307 105 "},"":{"ha":465,"x_min":35,"x_max":431,"o":"m 366 -148 q 358 -115 366 -129 q 339 -93 351 -102 q 311 -80 327 -84 q 278 -75 295 -75 q 263 -76 271 -75 q 249 -78 256 -77 l 275 -10 q 333 16 307 -3 q 379 60 359 35 q 412 116 399 85 q 431 178 425 146 l 415 184 q 392 139 405 161 q 361 102 378 118 q 321 76 344 85 q 271 66 299 66 q 201 86 230 66 q 154 138 172 106 q 127 206 136 169 q 119 278 119 243 q 126 337 119 307 q 146 392 132 367 q 184 433 161 417 q 241 449 208 449 q 284 440 270 449 q 305 417 298 431 q 313 388 311 404 q 320 358 315 372 q 336 335 325 345 q 370 326 347 326 q 405 336 391 326 q 418 370 418 347 q 401 418 418 397 q 361 454 385 439 q 310 475 338 468 q 258 482 281 482 q 165 462 207 482 q 95 407 124 441 q 50 327 66 372 q 35 233 35 282 q 47 144 35 189 q 84 64 59 100 q 146 6 109 28 q 235 -16 184 -16 l 235 -16 l 195 -115 l 201 -120 q 220 -116 211 -117 q 239 -115 230 -115 q 274 -123 260 -115 q 288 -155 288 -132 q 282 -177 288 -168 q 269 -190 277 -185 q 249 -197 260 -195 q 227 -199 238 -199 q 161 -186 195 -199 l 146 -220 q 231 -235 189 -235 q 274 -231 250 -235 q 318 -216 298 -227 q 352 -189 338 -205 q 366 -148 366 -172 "},"":{"ha":465,"x_min":39,"x_max":435,"o":"m 435 171 l 419 182 q 397 137 410 158 q 369 101 385 117 q 331 78 352 86 q 282 69 309 69 q 206 90 238 69 q 153 143 174 111 q 121 214 132 175 q 111 292 111 254 l 435 292 q 422 368 435 333 q 387 428 410 403 q 331 468 364 454 q 256 482 298 482 q 160 461 201 482 q 92 406 119 441 q 52 326 65 372 q 39 229 39 280 q 52 139 39 183 q 90 61 64 96 q 154 5 116 26 q 243 -16 193 -16 q 314 0 281 -16 q 372 41 347 16 q 413 101 397 67 q 435 171 429 134 m 328 321 l 111 321 q 122 367 113 345 q 145 407 130 390 q 180 435 159 425 q 227 446 200 446 q 272 435 253 446 q 303 407 291 424 q 322 367 316 389 q 328 321 328 344 m 309 533 l 352 533 l 206 679 q 145 713 172 713 q 113 673 113 713 q 159 628 113 656 l 309 533 "},"":{"ha":465,"x_min":39,"x_max":435,"o":"m 435 171 l 419 182 q 397 137 410 158 q 369 101 385 117 q 331 78 352 86 q 282 69 309 69 q 206 90 238 69 q 153 143 174 111 q 121 214 132 175 q 111 292 111 254 l 435 292 q 422 368 435 333 q 387 428 410 403 q 331 468 364 454 q 256 482 298 482 q 160 461 201 482 q 92 406 119 441 q 52 326 65 372 q 39 229 39 280 q 52 139 39 183 q 90 61 64 96 q 154 5 116 26 q 243 -16 193 -16 q 314 0 281 -16 q 372 41 347 16 q 413 101 397 67 q 435 171 429 134 m 328 321 l 111 321 q 122 367 113 345 q 145 407 130 390 q 180 435 159 425 q 227 446 200 446 q 272 435 253 446 q 303 407 291 424 q 322 367 316 389 q 328 321 328 344 m 395 682 q 388 703 395 693 q 368 712 380 712 q 333 702 349 712 q 304 679 317 692 l 160 533 l 202 533 l 353 628 q 382 651 370 639 q 395 682 395 664 "},"":{"ha":465,"x_min":39,"x_max":435,"o":"m 435 171 l 419 182 q 397 137 410 158 q 369 101 385 117 q 331 78 352 86 q 282 69 309 69 q 206 90 238 69 q 153 143 174 111 q 121 214 132 175 q 111 292 111 254 l 435 292 q 422 368 435 333 q 387 428 410 403 q 331 468 364 454 q 256 482 298 482 q 160 461 201 482 q 92 406 119 441 q 52 326 65 372 q 39 229 39 280 q 52 139 39 183 q 90 61 64 96 q 154 5 116 26 q 243 -16 193 -16 q 314 0 281 -16 q 372 41 347 16 q 413 101 397 67 q 435 171 429 134 m 328 321 l 111 321 q 122 367 113 345 q 145 407 130 390 q 180 435 159 425 q 227 446 200 446 q 272 435 253 446 q 303 407 291 424 q 322 367 316 389 q 328 321 328 344 m 382 526 l 418 526 l 288 701 l 222 701 l 90 526 l 126 526 l 254 635 l 382 526 "},"":{"ha":465,"x_min":39,"x_max":435,"o":"m 435 171 l 419 182 q 397 137 410 158 q 369 101 385 117 q 331 78 352 86 q 282 69 309 69 q 206 90 238 69 q 153 143 174 111 q 121 214 132 175 q 111 292 111 254 l 435 292 q 422 368 435 333 q 387 428 410 403 q 331 468 364 454 q 256 482 298 482 q 160 461 201 482 q 92 406 119 441 q 52 326 65 372 q 39 229 39 280 q 52 139 39 183 q 90 61 64 96 q 154 5 116 26 q 243 -16 193 -16 q 314 0 281 -16 q 372 41 347 16 q 413 101 397 67 q 435 171 429 134 m 328 321 l 111 321 q 122 367 113 345 q 145 407 130 390 q 180 435 159 425 q 227 446 200 446 q 272 435 253 446 q 303 407 291 424 q 322 367 316 389 q 328 321 328 344 m 403 621 q 388 657 403 642 q 351 672 372 672 q 332 668 341 672 q 315 657 322 664 q 303 641 307 650 q 298 621 298 631 q 314 584 298 600 q 351 568 330 568 q 371 572 361 568 q 388 584 380 576 q 399 601 395 591 q 403 621 403 610 m 195 621 q 179 657 195 642 q 142 672 163 672 q 122 668 132 672 q 106 657 113 664 q 95 641 99 650 q 90 621 90 631 q 105 584 90 600 q 142 568 121 568 q 162 572 152 568 q 179 584 172 576 q 190 601 186 591 q 195 621 195 610 "},"":{"ha":292,"x_min":9,"x_max":268,"o":"m 39 0 l 268 0 l 268 20 q 231 23 245 20 q 209 35 217 26 q 199 59 201 44 q 196 96 196 73 l 196 482 l 174 482 l 32 425 l 39 407 q 58 413 48 410 q 75 415 67 415 q 94 410 87 415 q 105 395 101 404 q 110 375 109 387 q 111 353 111 364 l 111 96 q 109 59 111 73 q 98 35 106 44 q 76 23 90 26 q 39 20 62 20 l 39 0 m 205 533 l 248 533 l 102 679 q 41 713 68 713 q 9 673 9 713 q 55 628 9 656 l 205 533 "},"":{"ha":292,"x_min":32,"x_max":290,"o":"m 39 0 l 268 0 l 268 20 q 231 23 245 20 q 209 35 217 26 q 199 59 201 44 q 196 96 196 73 l 196 482 l 174 482 l 32 425 l 39 407 q 58 413 48 410 q 75 415 67 415 q 94 410 87 415 q 105 395 101 404 q 110 375 109 387 q 111 353 111 364 l 111 96 q 109 59 111 73 q 98 35 106 44 q 76 23 90 26 q 39 20 62 20 l 39 0 m 290 682 q 283 703 290 693 q 263 712 276 712 q 229 702 244 712 q 200 679 213 692 l 56 533 l 98 533 l 249 628 q 278 651 266 639 q 290 682 290 664 "},"":{"ha":292,"x_min":-14,"x_max":313,"o":"m 39 0 l 268 0 l 268 20 q 231 23 245 20 q 209 35 217 26 q 199 59 201 44 q 196 96 196 73 l 196 482 l 174 482 l 32 425 l 39 407 q 58 413 48 410 q 75 415 67 415 q 94 410 87 415 q 105 395 101 404 q 110 375 109 387 q 111 353 111 364 l 111 96 q 109 59 111 73 q 98 35 106 44 q 76 23 90 26 q 39 20 62 20 l 39 0 m 277 526 l 313 526 l 183 701 l 118 701 l -14 526 l 22 526 l 150 635 l 277 526 "},"":{"ha":292,"x_min":-14,"x_max":298,"o":"m 39 0 l 268 0 l 268 20 q 231 23 245 20 q 209 35 217 26 q 199 59 201 44 q 196 96 196 73 l 196 482 l 174 482 l 32 425 l 39 407 q 58 413 48 410 q 75 415 67 415 q 94 410 87 415 q 105 395 101 404 q 110 375 109 387 q 111 353 111 364 l 111 96 q 109 59 111 73 q 98 35 106 44 q 76 23 90 26 q 39 20 62 20 l 39 0 m 298 621 q 283 657 298 642 q 247 672 268 672 q 227 668 237 672 q 210 657 218 664 q 198 641 203 650 q 194 621 194 631 q 210 584 194 600 q 247 568 226 568 q 267 572 257 568 q 283 584 276 576 q 294 601 290 591 q 298 621 298 610 m 90 621 q 74 657 90 642 q 37 672 58 672 q 18 668 27 672 q 2 657 9 664 q -10 641 -5 650 q -14 621 -14 631 q 1 584 -14 600 q 37 568 16 568 q 57 572 47 568 q 74 584 67 576 q 86 601 81 591 q 90 621 90 610 "},"":{"ha":524,"x_min":35,"x_max":486,"o":"m 486 242 q 473 341 486 291 q 435 440 460 391 q 373 536 410 489 q 290 625 336 583 l 407 691 l 389 720 l 262 649 q 197 692 229 673 q 135 728 166 712 l 122 705 q 147 688 136 695 q 168 672 157 680 q 189 652 178 663 q 218 625 201 642 l 99 557 l 113 529 l 239 599 q 292 528 269 565 q 336 448 316 490 q 310 465 321 459 q 289 474 298 471 q 270 477 279 477 q 250 477 261 477 q 164 456 203 477 q 95 400 124 435 q 51 320 66 366 q 35 226 35 275 q 52 130 35 174 q 98 54 68 86 q 169 3 128 22 q 256 -15 209 -15 q 353 7 310 -15 q 425 65 395 29 q 470 147 454 101 q 486 242 486 193 m 391 193 q 383 115 391 147 q 359 62 374 83 q 324 32 345 41 q 280 22 304 22 q 218 41 245 22 q 170 93 190 60 q 140 170 151 126 q 129 265 129 214 q 139 352 129 317 q 164 408 149 387 q 201 438 180 429 q 245 447 222 447 q 304 429 277 447 q 351 378 332 411 q 381 298 370 345 q 391 193 391 251 "},"":{"ha":524,"x_min":5,"x_max":522,"o":"m 288 0 l 522 0 l 522 20 q 482 25 496 20 q 460 40 467 30 q 451 67 453 51 q 449 106 449 83 l 449 306 q 444 369 449 337 q 426 426 439 400 q 388 467 412 451 q 326 482 364 482 q 280 473 302 482 q 238 450 258 464 q 201 418 218 435 q 170 383 184 400 l 170 482 l 149 482 l 5 425 l 12 407 q 30 413 21 410 q 47 415 39 415 q 67 407 60 415 q 78 386 74 399 q 82 356 81 372 q 83 321 83 339 l 83 106 q 82 67 83 83 q 74 40 81 51 q 52 25 66 30 q 12 20 38 20 l 12 0 l 245 0 l 245 20 q 204 24 219 20 q 181 38 189 28 q 172 65 174 48 q 170 106 170 81 l 170 353 q 194 377 181 365 q 223 398 208 389 q 255 413 238 408 q 290 419 272 419 q 331 408 316 419 q 353 378 346 396 q 362 338 361 360 q 364 297 364 317 l 364 106 q 362 64 364 81 q 352 38 360 47 q 329 24 345 28 q 288 20 314 20 l 288 0 m 438 687 l 411 687 q 384 649 405 662 q 338 635 363 635 q 302 643 318 635 q 272 659 287 650 q 241 674 257 667 q 205 682 226 682 q 162 673 181 682 q 128 651 142 665 q 104 617 114 637 q 90 575 95 597 l 117 575 q 123 593 117 584 q 137 608 129 602 q 155 620 145 615 q 176 624 165 624 q 217 616 201 624 q 248 599 233 608 q 281 583 263 590 q 327 575 298 575 q 368 585 349 575 q 402 610 387 594 q 427 646 417 626 q 438 687 436 666 "},"":{"ha":524,"x_min":35,"x_max":488,"o":"m 488 243 q 472 336 488 292 q 426 412 456 380 q 355 464 397 445 q 262 482 313 482 q 168 461 210 482 q 96 405 126 440 q 51 324 66 370 q 35 229 35 279 q 51 138 35 182 q 95 59 66 94 q 165 5 124 25 q 257 -16 206 -16 q 353 6 311 -16 q 426 63 396 27 q 472 145 456 98 q 488 243 488 192 m 392 203 q 388 142 392 174 q 372 84 384 111 q 337 40 359 57 q 278 22 315 22 q 228 35 250 22 q 189 67 205 47 q 162 114 173 87 q 144 168 151 140 q 134 222 137 195 q 131 272 131 250 q 136 331 131 300 q 153 388 140 362 q 189 432 166 414 q 245 449 211 449 q 296 437 274 449 q 335 405 319 425 q 362 360 351 385 q 380 307 373 334 q 389 252 387 279 q 392 203 392 225 m 316 533 l 359 533 l 213 679 q 152 713 179 713 q 120 673 120 713 q 166 628 120 656 l 316 533 "},"":{"ha":524,"x_min":35,"x_max":488,"o":"m 488 243 q 472 336 488 292 q 426 412 456 380 q 355 464 397 445 q 262 482 313 482 q 168 461 210 482 q 96 405 126 440 q 51 324 66 370 q 35 229 35 279 q 51 138 35 182 q 95 59 66 94 q 165 5 124 25 q 257 -16 206 -16 q 353 6 311 -16 q 426 63 396 27 q 472 145 456 98 q 488 243 488 192 m 392 203 q 388 142 392 174 q 372 84 384 111 q 337 40 359 57 q 278 22 315 22 q 228 35 250 22 q 189 67 205 47 q 162 114 173 87 q 144 168 151 140 q 134 222 137 195 q 131 272 131 250 q 136 331 131 300 q 153 388 140 362 q 189 432 166 414 q 245 449 211 449 q 296 437 274 449 q 335 405 319 425 q 362 360 351 385 q 380 307 373 334 q 389 252 387 279 q 392 203 392 225 m 401 682 q 394 703 401 693 q 374 712 387 712 q 340 702 355 712 q 311 679 324 692 l 167 533 l 209 533 l 360 628 q 389 651 377 639 q 401 682 401 664 "},"":{"ha":524,"x_min":35,"x_max":488,"o":"m 488 243 q 472 336 488 292 q 426 412 456 380 q 355 464 397 445 q 262 482 313 482 q 168 461 210 482 q 96 405 126 440 q 51 324 66 370 q 35 229 35 279 q 51 138 35 182 q 95 59 66 94 q 165 5 124 25 q 257 -16 206 -16 q 353 6 311 -16 q 426 63 396 27 q 472 145 456 98 q 488 243 488 192 m 392 203 q 388 142 392 174 q 372 84 384 111 q 337 40 359 57 q 278 22 315 22 q 228 35 250 22 q 189 67 205 47 q 162 114 173 87 q 144 168 151 140 q 134 222 137 195 q 131 272 131 250 q 136 331 131 300 q 153 388 140 362 q 189 432 166 414 q 245 449 211 449 q 296 437 274 449 q 335 405 319 425 q 362 360 351 385 q 380 307 373 334 q 389 252 387 279 q 392 203 392 225 m 389 526 l 425 526 l 294 701 l 229 701 l 97 526 l 133 526 l 261 635 l 389 526 "},"":{"ha":524,"x_min":35,"x_max":488,"o":"m 488 243 q 472 336 488 292 q 426 412 456 380 q 355 464 397 445 q 262 482 313 482 q 168 461 210 482 q 96 405 126 440 q 51 324 66 370 q 35 229 35 279 q 51 138 35 182 q 95 59 66 94 q 165 5 124 25 q 257 -16 206 -16 q 353 6 311 -16 q 426 63 396 27 q 472 145 456 98 q 488 243 488 192 m 392 203 q 388 142 392 174 q 372 84 384 111 q 337 40 359 57 q 278 22 315 22 q 228 35 250 22 q 189 67 205 47 q 162 114 173 87 q 144 168 151 140 q 134 222 137 195 q 131 272 131 250 q 136 331 131 300 q 153 388 140 362 q 189 432 166 414 q 245 449 211 449 q 296 437 274 449 q 335 405 319 425 q 362 360 351 385 q 380 307 373 334 q 389 252 387 279 q 392 203 392 225 m 435 687 l 408 687 q 381 649 402 662 q 336 635 361 635 q 300 643 315 635 q 269 659 284 650 q 239 674 254 667 q 203 682 223 682 q 159 673 178 682 q 125 651 140 665 q 102 617 111 637 q 87 575 92 597 l 114 575 q 120 593 115 584 q 134 608 126 602 q 153 620 142 615 q 174 624 163 624 q 215 616 199 624 q 245 599 231 608 q 278 583 260 590 q 324 575 296 575 q 366 585 347 575 q 399 610 385 594 q 424 646 414 626 q 435 687 433 666 "},"":{"ha":524,"x_min":35,"x_max":488,"o":"m 488 243 q 472 336 488 292 q 426 412 456 380 q 355 464 397 445 q 262 482 313 482 q 168 461 210 482 q 96 405 126 440 q 51 324 66 370 q 35 229 35 279 q 51 138 35 182 q 95 59 66 94 q 165 5 124 25 q 257 -16 206 -16 q 353 6 311 -16 q 426 63 396 27 q 472 145 456 98 q 488 243 488 192 m 392 203 q 388 142 392 174 q 372 84 384 111 q 337 40 359 57 q 278 22 315 22 q 228 35 250 22 q 189 67 205 47 q 162 114 173 87 q 144 168 151 140 q 134 222 137 195 q 131 272 131 250 q 136 331 131 300 q 153 388 140 362 q 189 432 166 414 q 245 449 211 449 q 296 437 274 449 q 335 405 319 425 q 362 360 351 385 q 380 307 373 334 q 389 252 387 279 q 392 203 392 225 m 410 621 q 394 657 410 642 q 358 672 379 672 q 338 668 348 672 q 321 657 329 664 q 310 641 314 650 q 305 621 305 631 q 321 584 305 600 q 358 568 337 568 q 378 572 368 568 q 394 584 387 576 q 406 601 401 591 q 410 621 410 610 m 201 621 q 185 657 201 642 q 149 672 170 672 q 129 668 138 672 q 113 657 120 664 q 101 641 106 650 q 97 621 97 631 q 112 584 97 600 q 149 568 127 568 q 169 572 159 568 q 185 584 178 576 q 197 601 193 591 q 201 621 201 610 "},"":{"ha":1007,"x_min":201,"x_max":806,"o":"m 564 464 q 547 507 564 489 q 504 525 530 525 q 480 520 491 525 q 460 507 469 515 q 448 487 452 498 q 443 464 443 476 q 448 441 443 452 q 460 422 452 430 q 480 409 469 414 q 504 404 491 404 q 547 421 530 404 q 564 464 564 439 m 201 271 l 806 271 l 806 334 l 201 334 l 201 271 m 564 140 q 547 183 564 165 q 504 200 530 200 q 480 195 491 200 q 460 182 469 191 q 448 163 452 174 q 443 140 443 153 q 448 117 443 128 q 460 98 452 106 q 480 85 469 90 q 504 81 491 81 q 547 98 530 81 q 564 140 564 115 "},"":{"ha":524,"x_min":20,"x_max":504,"o":"m 435 401 l 504 479 l 481 500 l 413 425 q 376 452 393 441 q 341 470 359 463 q 305 479 323 476 q 266 481 287 481 q 169 459 211 481 q 97 400 126 436 q 53 319 68 363 q 37 233 37 275 q 41 190 37 212 q 53 145 45 167 q 70 104 60 123 q 92 69 80 84 l 20 -12 l 44 -35 l 113 44 q 150 16 132 28 q 185 -2 168 5 q 221 -12 203 -9 q 259 -15 239 -15 q 361 9 317 -15 q 433 71 404 33 q 475 153 461 108 q 490 242 490 199 q 475 327 490 287 q 435 401 461 366 m 361 368 l 153 138 q 138 207 142 174 q 133 272 133 241 q 142 354 133 320 q 166 408 151 387 q 203 439 182 429 q 250 448 224 448 q 280 445 267 448 q 308 432 294 441 q 334 407 321 422 q 361 368 347 391 m 395 205 q 386 118 395 153 q 362 62 377 83 q 326 32 347 41 q 280 22 304 22 q 247 26 262 22 q 219 40 232 31 q 193 65 205 50 q 168 105 181 81 l 375 334 q 395 205 395 266 "},"":{"ha":524,"x_min":0,"x_max":525,"o":"m 383 -16 l 525 43 l 518 61 q 476 53 496 53 q 458 61 465 53 q 449 80 452 69 q 445 104 446 92 q 444 123 444 116 l 444 468 l 283 468 l 283 449 q 318 446 303 449 q 341 436 332 444 q 355 415 351 429 q 359 380 359 401 l 359 115 q 335 92 349 104 q 307 71 322 80 q 276 55 292 61 q 243 49 260 49 q 204 58 219 49 q 180 82 189 67 q 169 116 172 97 q 165 155 165 135 l 165 468 l 0 468 l 0 449 q 37 446 22 449 q 62 436 52 444 q 75 414 71 428 q 79 376 79 399 l 79 167 q 84 104 79 136 q 101 45 88 71 q 138 1 115 18 q 200 -16 162 -16 q 247 -6 224 -16 q 289 18 269 3 q 326 50 309 33 q 359 85 344 68 l 359 -16 l 383 -16 m 317 533 l 360 533 l 214 679 q 153 713 180 713 q 121 673 121 713 q 168 628 121 656 l 317 533 "},"":{"ha":524,"x_min":0,"x_max":525,"o":"m 383 -16 l 525 43 l 518 61 q 476 53 496 53 q 458 61 465 53 q 449 80 452 69 q 445 104 446 92 q 444 123 444 116 l 444 468 l 283 468 l 283 449 q 318 446 303 449 q 341 436 332 444 q 355 415 351 429 q 359 380 359 401 l 359 115 q 335 92 349 104 q 307 71 322 80 q 276 55 292 61 q 243 49 260 49 q 204 58 219 49 q 180 82 189 67 q 169 116 172 97 q 165 155 165 135 l 165 468 l 0 468 l 0 449 q 37 446 22 449 q 62 436 52 444 q 75 414 71 428 q 79 376 79 399 l 79 167 q 84 104 79 136 q 101 45 88 71 q 138 1 115 18 q 200 -16 162 -16 q 247 -6 224 -16 q 289 18 269 3 q 326 50 309 33 q 359 85 344 68 l 359 -16 l 383 -16 m 403 682 q 396 703 403 693 q 376 712 389 712 q 341 702 357 712 q 313 679 326 692 l 168 533 l 210 533 l 361 628 q 391 651 378 639 q 403 682 403 664 "},"":{"ha":524,"x_min":0,"x_max":525,"o":"m 383 -16 l 525 43 l 518 61 q 476 53 496 53 q 458 61 465 53 q 449 80 452 69 q 445 104 446 92 q 444 123 444 116 l 444 468 l 283 468 l 283 449 q 318 446 303 449 q 341 436 332 444 q 355 415 351 429 q 359 380 359 401 l 359 115 q 335 92 349 104 q 307 71 322 80 q 276 55 292 61 q 243 49 260 49 q 204 58 219 49 q 180 82 189 67 q 169 116 172 97 q 165 155 165 135 l 165 468 l 0 468 l 0 449 q 37 446 22 449 q 62 436 52 444 q 75 414 71 428 q 79 376 79 399 l 79 167 q 84 104 79 136 q 101 45 88 71 q 138 1 115 18 q 200 -16 162 -16 q 247 -6 224 -16 q 289 18 269 3 q 326 50 309 33 q 359 85 344 68 l 359 -16 l 383 -16 m 390 526 l 426 526 l 296 701 l 231 701 l 98 526 l 134 526 l 262 635 l 390 526 "},"":{"ha":524,"x_min":0,"x_max":525,"o":"m 383 -16 l 525 43 l 518 61 q 476 53 496 53 q 458 61 465 53 q 449 80 452 69 q 445 104 446 92 q 444 123 444 116 l 444 468 l 283 468 l 283 449 q 318 446 303 449 q 341 436 332 444 q 355 415 351 429 q 359 380 359 401 l 359 115 q 335 92 349 104 q 307 71 322 80 q 276 55 292 61 q 243 49 260 49 q 204 58 219 49 q 180 82 189 67 q 169 116 172 97 q 165 155 165 135 l 165 468 l 0 468 l 0 449 q 37 446 22 449 q 62 436 52 444 q 75 414 71 428 q 79 376 79 399 l 79 167 q 84 104 79 136 q 101 45 88 71 q 138 1 115 18 q 200 -16 162 -16 q 247 -6 224 -16 q 289 18 269 3 q 326 50 309 33 q 359 85 344 68 l 359 -16 l 383 -16 m 411 621 q 396 657 411 642 q 359 672 380 672 q 340 668 349 672 q 323 657 330 664 q 311 641 315 650 q 307 621 307 631 q 322 584 307 600 q 359 568 338 568 q 379 572 370 568 q 396 584 389 576 q 407 601 403 591 q 411 621 411 610 m 203 621 q 187 657 203 642 q 150 672 171 672 q 131 668 140 672 q 114 657 121 664 q 103 641 107 650 q 98 621 98 631 q 114 584 98 600 q 150 568 129 568 q 170 572 160 568 q 187 584 180 576 q 198 601 194 591 q 203 621 203 610 "},"":{"ha":524,"x_min":5,"x_max":518,"o":"m 518 449 l 518 468 l 366 468 l 366 449 q 382 449 374 449 q 398 446 391 448 q 409 437 405 443 q 414 421 414 431 q 410 402 414 412 q 403 383 407 393 l 298 123 l 184 359 q 173 387 178 372 q 167 415 167 401 q 172 435 167 428 q 186 445 178 441 q 205 448 195 448 q 225 449 215 449 l 225 468 l 5 468 l 5 449 q 36 440 22 447 q 59 423 49 433 q 76 399 68 412 q 90 372 83 386 l 258 20 q 250 -3 255 12 q 238 -35 245 -18 q 222 -72 231 -53 q 202 -105 213 -90 q 180 -131 192 -121 q 154 -140 168 -140 q 137 -138 146 -140 q 119 -131 128 -135 q 101 -125 110 -127 q 82 -122 92 -122 q 45 -133 59 -122 q 31 -168 31 -143 q 37 -193 31 -182 q 52 -212 43 -204 q 74 -223 62 -219 q 100 -227 87 -227 q 153 -214 128 -227 q 197 -182 177 -201 q 233 -137 218 -162 q 258 -89 248 -113 l 449 379 q 460 406 455 393 q 473 427 466 418 q 491 442 481 436 q 518 449 502 448 m 425 682 q 418 703 425 693 q 398 712 411 712 q 363 702 379 712 q 335 679 348 692 l 191 533 l 233 533 l 384 628 q 413 651 401 639 q 425 682 425 664 "},"":{"ha":524,"x_min":-4,"x_max":488,"o":"m 488 252 q 475 342 488 300 q 439 415 463 385 q 384 464 416 446 q 313 481 352 481 q 273 476 292 481 q 235 457 253 470 q 198 423 216 444 q 162 371 180 402 l 162 728 l 143 728 l -1 670 l 5 653 q 38 661 24 661 q 60 655 52 661 q 72 641 68 650 q 77 620 76 631 q 78 598 78 609 l 78 -113 q 75 -161 78 -144 q 64 -188 73 -179 q 39 -200 56 -197 q -4 -205 23 -203 l -4 -224 l 242 -224 l 242 -205 q 198 -199 214 -203 q 174 -186 182 -195 q 164 -159 166 -176 q 162 -115 162 -142 l 162 27 q 193 4 179 12 q 219 -9 206 -5 q 245 -14 232 -13 q 274 -15 258 -15 q 362 7 323 -14 q 430 64 402 28 q 473 148 458 100 q 488 252 488 197 m 397 203 q 388 125 397 160 q 363 66 379 91 q 323 29 347 42 q 272 16 300 16 q 232 23 250 16 q 200 40 214 29 q 179 64 187 51 q 168 90 171 77 q 163 119 165 100 q 162 165 162 137 l 162 340 q 203 379 186 366 q 231 400 219 393 q 252 408 242 406 q 272 409 261 409 q 323 394 300 409 q 363 351 347 378 q 388 286 379 323 q 397 203 397 248 "},"":{"ha":524,"x_min":5,"x_max":518,"o":"m 518 449 l 518 468 l 366 468 l 366 449 q 382 449 374 449 q 398 446 391 448 q 409 437 405 443 q 414 421 414 431 q 410 402 414 412 q 403 383 407 393 l 298 123 l 184 359 q 173 387 178 372 q 167 415 167 401 q 172 435 167 428 q 186 445 178 441 q 205 448 195 448 q 225 449 215 449 l 225 468 l 5 468 l 5 449 q 36 440 22 447 q 59 423 49 433 q 76 399 68 412 q 90 372 83 386 l 258 20 q 250 -3 255 12 q 238 -35 245 -18 q 222 -72 231 -53 q 202 -105 213 -90 q 180 -131 192 -121 q 154 -140 168 -140 q 137 -138 146 -140 q 119 -131 128 -135 q 101 -125 110 -127 q 82 -122 92 -122 q 45 -133 59 -122 q 31 -168 31 -143 q 37 -193 31 -182 q 52 -212 43 -204 q 74 -223 62 -219 q 100 -227 87 -227 q 153 -214 128 -227 q 197 -182 177 -201 q 233 -137 218 -162 q 258 -89 248 -113 l 449 379 q 460 406 455 393 q 473 427 466 418 q 491 442 481 436 q 518 449 502 448 m 433 621 q 418 657 433 642 q 382 672 403 672 q 362 668 372 672 q 345 657 353 664 q 333 641 338 650 q 329 621 329 631 q 345 584 329 600 q 382 568 361 568 q 401 572 392 568 q 418 584 411 576 q 429 601 425 591 q 433 621 433 610 m 225 621 q 209 657 225 642 q 172 672 193 672 q 153 668 162 672 q 137 657 144 664 q 125 641 130 650 q 121 621 121 631 q 136 584 121 600 q 172 568 151 568 q 192 572 182 568 q 209 584 202 576 q 221 601 216 591 q 225 621 225 610 "},"":{"ha":292,"x_min":32,"x_max":268,"o":"m 39 0 l 268 0 l 268 20 q 231 23 245 20 q 209 35 217 26 q 199 59 201 44 q 196 96 196 73 l 196 482 l 174 482 l 32 425 l 39 407 q 58 413 48 410 q 75 415 67 415 q 94 410 87 415 q 105 395 101 404 q 110 375 109 387 q 111 353 111 364 l 111 96 q 109 59 111 73 q 98 35 106 44 q 76 23 90 26 q 39 20 62 20 l 39 0 "},"":{"ha":694,"x_min":0,"x_max":0,"o":""},"":{"ha":1389,"x_min":0,"x_max":0,"o":""},"":{"ha":694,"x_min":0,"x_max":0,"o":""},"":{"ha":1389,"x_min":0,"x_max":0,"o":""},"":{"ha":463,"x_min":0,"x_max":0,"o":""},"":{"ha":347,"x_min":0,"x_max":0,"o":""},"":{"ha":232,"x_min":0,"x_max":0,"o":""},"":{"ha":543,"x_min":0,"x_max":0,"o":""},"":{"ha":435,"x_min":0,"x_max":0,"o":""},"":{"ha":136,"x_min":0,"x_max":0,"o":""},"":{"ha":68,"x_min":0,"x_max":0,"o":""},"":{"ha":0,"x_min":0,"x_max":0,"o":""},"":{"ha":0,"x_min":-200,"x_max":200,"o":"m 189 675 l 200 692 q 124 746 162 725 q 39 774 86 767 l 151 886 l 131 908 l 0 777 l -129 905 l -151 885 l -40 774 q -125 746 -87 767 q -200 692 -163 725 l -189 676 q -123 710 -155 699 q -54 724 -90 720 l -153 625 l -131 603 l -8 725 l 7 725 l 132 602 l 153 624 l 53 724 q 122 709 90 720 q 189 675 155 698 m 22 632 q 16 648 22 642 q 0 654 9 654 q -16 648 -9 654 q -22 632 -22 642 q -16 616 -22 623 q 0 610 -9 610 q 16 616 9 610 q 22 632 22 623 m 22 530 q 16 545 22 539 q 0 551 9 551 q -16 545 -9 551 q -22 530 -22 539 q -16 515 -22 521 q 0 509 -9 509 q 16 515 9 509 q 22 530 22 521 m 22 429 q 16 444 22 437 q 0 450 9 450 q -16 444 -9 450 q -22 429 -22 437 q -16 413 -22 420 q 0 407 -9 407 q 16 413 9 407 q 22 429 22 420 m 22 326 q 16 342 22 336 q 0 349 9 349 q -16 342 -9 349 q -22 326 -22 336 q -16 312 -22 318 q 0 306 -9 306 q 16 312 9 306 q 22 326 22 318 m 22 225 q 16 241 22 235 q 0 248 9 248 q -16 241 -9 248 q -22 225 -22 235 q -16 210 -22 216 q 0 203 -9 203 q 16 210 9 203 q 22 225 22 216 m 22 123 q 16 138 22 132 q 0 144 9 144 q -16 138 -9 144 q -22 123 -22 132 q -16 108 -22 114 q 0 102 -9 102 q 16 108 9 102 q 22 123 22 114 m 22 22 q 16 37 22 31 q 0 43 9 43 q -16 37 -9 43 q -22 22 -22 31 q -16 6 -22 13 q 0 0 -9 0 q 16 6 9 0 q 22 22 22 13 "},"":{"ha":0,"x_min":-200,"x_max":200,"o":"m 0 777 q -65 769 -36 777 q -119 749 -94 762 q -163 722 -143 737 q -200 692 -183 707 q -198 688 -200 690 q -195 682 -197 685 q -189 676 -192 680 q -149 700 -169 690 q -106 715 -129 709 q -58 723 -84 720 q 0 725 -33 725 q 58 723 33 725 q 106 714 84 720 q 149 699 129 708 q 189 675 169 689 q 195 682 192 678 q 198 687 197 684 q 200 692 200 690 q 163 722 182 707 q 119 749 143 737 q 65 769 94 762 q 0 777 36 777 m 22 632 q 16 648 22 642 q 0 654 9 654 q -16 648 -9 654 q -22 632 -22 642 q -16 616 -22 623 q 0 610 -9 610 q 16 616 9 610 q 22 632 22 623 m 22 530 q 16 545 22 539 q 0 551 9 551 q -16 545 -9 551 q -22 530 -22 539 q -16 515 -22 521 q 0 509 -9 509 q 16 515 9 509 q 22 530 22 521 m 22 429 q 16 444 22 437 q 0 450 9 450 q -16 444 -9 450 q -22 429 -22 437 q -16 413 -22 420 q 0 407 -9 407 q 16 413 9 407 q 22 429 22 420 m 22 326 q 16 342 22 336 q 0 349 9 349 q -16 342 -9 349 q -22 326 -22 336 q -16 312 -22 318 q 0 306 -9 306 q 16 312 9 306 q 22 326 22 318 m 22 225 q 16 241 22 235 q 0 248 9 248 q -16 241 -9 248 q -22 225 -22 235 q -16 210 -22 216 q 0 203 -9 203 q 16 210 9 203 q 22 225 22 216 m 22 123 q 16 138 22 132 q 0 144 9 144 q -16 138 -9 144 q -22 123 -22 132 q -16 108 -22 114 q 0 102 -9 102 q 16 108 9 102 q 22 123 22 114 m 22 22 q 16 37 22 31 q 0 43 9 43 q -16 37 -9 43 q -22 22 -22 31 q -16 6 -22 13 q 0 0 -9 0 q 16 6 9 0 q 22 22 22 13 "},"":{"ha":0,"x_min":-47,"x_max":68,"o":"m -47 645 l 68 713 l -47 781 l -47 645 "},"":{"ha":0,"x_min":-68,"x_max":47,"o":"m -68 713 l 47 645 l 47 781 l -68 713 "},"":{"ha":349,"x_min":41,"x_max":306,"o":"m 41 196 l 306 196 l 306 272 l 41 272 l 41 196 "},"":{"ha":349,"x_min":41,"x_max":306,"o":"m 41 196 l 306 196 l 306 272 l 41 272 l 41 196 "},"":{"ha":524,"x_min":0,"x_max":524,"o":"m 0 231 l 524 231 l 524 269 l 0 269 l 0 231 "},"":{"ha":1007,"x_min":0,"x_max":1007,"o":"m 0 231 l 1007 231 l 1007 269 l 0 269 l 0 231 "},"":{"ha":189,"x_min":35,"x_max":154,"o":"m 154 343 q 137 385 154 368 q 94 401 119 401 q 52 385 69 401 q 35 343 35 368 q 52 300 35 317 q 94 283 69 283 q 137 300 119 283 q 154 343 154 317 "},"":{"ha":0,"x_min":0,"x_max":0,"o":""},"":{"ha":0,"x_min":0,"x_max":0,"o":""},"":{"ha":0,"x_min":-28,"x_max":113,"o":"m 45 -109 l 113 -47 l 45 14 l 45 -33 l 0 -33 l 0 484 l -28 484 l -28 -61 l 45 -61 l 45 -109 "},"":{"ha":0,"x_min":-113,"x_max":28,"o":"m -45 -61 l 28 -61 l 28 484 l 0 484 l 0 -33 l -45 -33 l -45 14 l -113 -47 l -45 -109 l -45 -61 "},"":{"ha":0,"x_min":-61,"x_max":61,"o":"m 14 484 l 61 484 l 0 551 l -61 484 l -14 484 l -14 -33 l -56 -33 l -56 -61 l 56 -61 l 56 -33 l 14 -33 l 14 484 "},"":{"ha":0,"x_min":-98,"x_max":113,"o":"m 45 689 l 113 750 l 45 810 l 45 762 l -98 762 l -98 736 l 45 736 l 45 689 m 22 632 q 16 648 22 642 q 0 654 9 654 q -16 648 -9 654 q -22 632 -22 642 q -16 616 -22 623 q 0 610 -9 610 q 16 616 9 610 q 22 632 22 623 m 22 530 q 16 545 22 539 q 0 551 9 551 q -16 545 -9 551 q -22 530 -22 539 q -16 515 -22 521 q 0 509 -9 509 q 16 515 9 509 q 22 530 22 521 m 22 429 q 16 444 22 437 q 0 450 9 450 q -16 444 -9 450 q -22 429 -22 437 q -16 413 -22 420 q 0 407 -9 407 q 16 413 9 407 q 22 429 22 420 m 22 326 q 16 342 22 336 q 0 349 9 349 q -16 342 -9 349 q -22 326 -22 336 q -16 312 -22 318 q 0 306 -9 306 q 16 312 9 306 q 22 326 22 318 m 22 225 q 16 241 22 235 q 0 248 9 248 q -16 241 -9 248 q -22 225 -22 235 q -16 210 -22 216 q 0 203 -9 203 q 16 210 9 203 q 22 225 22 216 m 22 123 q 16 138 22 132 q 0 144 9 144 q -16 138 -9 144 q -22 123 -22 132 q -16 108 -22 114 q 0 102 -9 102 q 16 108 9 102 q 22 123 22 114 m 22 22 q 16 37 22 31 q 0 43 9 43 q -16 37 -9 43 q -22 22 -22 31 q -16 6 -22 13 q 0 0 -9 0 q 16 6 9 0 q 22 22 22 13 "},"":{"ha":0,"x_min":-113,"x_max":98,"o":"m -45 736 l 98 736 l 98 762 l -45 762 l -45 810 l -113 750 l -45 689 l -45 736 m 22 632 q 16 648 22 642 q 0 654 9 654 q -16 648 -9 654 q -22 632 -22 642 q -16 616 -22 623 q 0 610 -9 610 q 16 616 9 610 q 22 632 22 623 m 22 530 q 16 545 22 539 q 0 551 9 551 q -16 545 -9 551 q -22 530 -22 539 q -16 515 -22 521 q 0 509 -9 509 q 16 515 9 509 q 22 530 22 521 m 22 429 q 16 444 22 437 q 0 450 9 450 q -16 444 -9 450 q -22 429 -22 437 q -16 413 -22 420 q 0 407 -9 407 q 16 413 9 407 q 22 429 22 420 m 22 326 q 16 342 22 336 q 0 349 9 349 q -16 342 -9 349 q -22 326 -22 336 q -16 312 -22 318 q 0 306 -9 306 q 16 312 9 306 q 22 326 22 318 m 22 225 q 16 241 22 235 q 0 248 9 248 q -16 241 -9 248 q -22 225 -22 235 q -16 210 -22 216 q 0 203 -9 203 q 16 210 9 203 q 22 225 22 216 m 22 123 q 16 138 22 132 q 0 144 9 144 q -16 138 -9 144 q -22 123 -22 132 q -16 108 -22 114 q 0 102 -9 102 q 16 108 9 102 q 22 123 22 114 m 22 22 q 16 37 22 31 q 0 43 9 43 q -16 37 -9 43 q -22 22 -22 31 q -16 6 -22 13 q 0 0 -9 0 q 16 6 9 0 q 22 22 22 13 "},"":{"ha":136,"x_min":0,"x_max":0,"o":""},"":{"ha":0,"x_min":0,"x_max":0,"o":""},"":{"ha":694,"x_min":21,"x_max":673,"o":"m 280 94 l 279 97 l 205 301 q 199 308 203 308 q 193 302 195 308 l 111 97 l 111 95 q 118 89 111 89 q 125 93 123 89 l 155 174 l 237 174 l 267 93 q 273 89 269 89 q 280 94 280 89 m 578 94 l 578 197 q 575 201 578 199 q 571 203 573 203 l 468 203 l 468 293 l 571 293 q 577 300 577 293 q 571 307 577 307 l 461 307 q 456 304 458 307 q 454 300 454 302 l 454 197 q 461 191 454 191 l 564 191 l 564 102 l 461 102 q 455 95 455 102 q 461 87 455 87 l 571 87 q 575 90 573 87 q 578 94 578 92 m 319 293 l 427 293 q 434 300 434 293 q 427 307 434 307 l 313 307 q 308 304 309 307 q 306 300 306 302 l 306 94 q 313 88 306 88 q 319 94 319 88 l 319 191 l 403 191 q 408 193 406 191 q 409 197 409 195 q 403 203 409 203 l 319 203 l 319 293 m 313 349 l 382 349 q 389 356 389 349 q 382 363 389 363 l 354 363 l 354 554 l 382 554 q 389 562 389 554 q 382 568 389 568 l 313 568 q 305 562 305 568 q 313 554 305 554 l 340 554 l 340 363 l 313 363 q 305 356 305 363 q 313 349 305 349 m 199 281 l 233 186 l 161 186 l 199 281 m 370 632 q 363 648 370 642 q 347 654 357 654 q 331 648 338 654 q 325 632 325 642 q 331 616 325 623 q 347 610 338 610 q 363 616 357 610 q 370 632 370 623 m 572 632 q 566 648 572 642 q 550 654 559 654 q 535 648 542 654 q 529 632 529 642 q 535 616 529 623 q 550 610 542 610 q 566 616 559 610 q 572 632 572 623 m 165 632 q 159 648 165 642 q 144 654 153 654 q 129 648 135 654 q 122 632 122 642 q 129 616 122 623 q 144 610 135 610 q 159 616 153 610 q 165 632 165 623 m 370 22 q 363 37 370 31 q 347 43 357 43 q 331 37 338 43 q 325 22 325 31 q 331 6 325 13 q 347 0 338 0 q 363 6 357 0 q 370 22 370 13 m 471 632 q 465 648 471 642 q 449 654 458 654 q 434 648 440 654 q 428 632 428 642 q 434 616 428 623 q 449 610 440 610 q 465 616 458 610 q 471 632 471 623 m 267 632 q 260 648 267 642 q 245 654 254 654 q 230 648 236 654 q 224 632 224 642 q 230 616 224 623 q 245 610 236 610 q 260 616 254 610 q 267 632 267 623 m 673 632 q 667 648 673 642 q 653 654 661 654 q 637 648 644 654 q 631 632 631 642 q 637 616 631 623 q 653 610 644 610 q 667 616 661 610 q 673 632 673 623 m 673 225 q 667 241 673 235 q 653 248 661 248 q 637 241 644 248 q 631 225 631 235 q 637 210 631 216 q 653 203 644 203 q 667 210 661 203 q 673 225 673 216 m 64 225 q 57 241 64 235 q 41 248 51 248 q 27 241 33 248 q 21 225 21 235 q 27 210 21 216 q 41 203 33 203 q 57 210 51 203 q 64 225 64 216 m 64 632 q 57 648 64 642 q 41 654 51 654 q 27 648 33 654 q 21 632 21 642 q 27 616 21 623 q 41 610 33 610 q 57 616 51 610 q 64 632 64 623 m 64 429 q 57 444 64 437 q 41 450 51 450 q 27 444 33 450 q 21 429 21 437 q 27 413 21 420 q 41 407 33 407 q 57 413 51 407 q 64 429 64 420 m 673 429 q 667 444 673 437 q 653 450 661 450 q 637 444 644 450 q 631 429 631 437 q 637 413 631 420 q 653 407 644 407 q 667 413 661 407 q 673 429 673 420 m 572 22 q 566 37 572 31 q 550 43 559 43 q 535 37 542 43 q 529 22 529 31 q 535 6 529 13 q 550 0 542 0 q 566 6 559 0 q 572 22 572 13 m 165 22 q 159 37 165 31 q 144 43 153 43 q 129 37 135 43 q 122 22 122 31 q 129 6 122 13 q 144 0 135 0 q 159 6 153 0 q 165 22 165 13 m 64 22 q 57 37 64 31 q 41 43 51 43 q 27 37 33 43 q 21 22 21 31 q 27 6 21 13 q 41 0 33 0 q 57 6 51 0 q 64 22 64 13 m 673 326 q 667 342 673 336 q 653 349 661 349 q 637 342 644 349 q 631 326 631 336 q 637 312 631 318 q 653 306 644 306 q 667 312 661 306 q 673 326 673 318 m 64 326 q 57 342 64 336 q 41 349 51 349 q 27 342 33 349 q 21 326 21 336 q 27 312 21 318 q 41 306 33 306 q 57 312 51 306 q 64 326 64 318 m 673 22 q 667 37 673 31 q 653 43 661 43 q 637 37 644 43 q 631 22 631 31 q 637 6 631 13 q 653 0 644 0 q 667 6 661 0 q 673 22 673 13 m 267 22 q 260 37 267 31 q 245 43 254 43 q 230 37 236 43 q 224 22 224 31 q 230 6 224 13 q 245 0 236 0 q 260 6 254 0 q 267 22 267 13 m 673 530 q 667 545 673 539 q 653 551 661 551 q 637 545 644 551 q 631 530 631 539 q 637 515 631 521 q 653 509 644 509 q 667 515 661 509 q 673 530 673 521 m 64 530 q 57 545 64 539 q 41 551 51 551 q 27 545 33 551 q 21 530 21 539 q 27 515 21 521 q 41 509 33 509 q 57 515 51 509 q 64 530 64 521 m 64 123 q 57 138 64 132 q 41 144 51 144 q 27 138 33 144 q 21 123 21 132 q 27 108 21 114 q 41 102 33 102 q 57 108 51 102 q 64 123 64 114 m 471 22 q 465 37 471 31 q 449 43 458 43 q 434 37 440 43 q 428 22 428 31 q 434 6 428 13 q 449 0 440 0 q 465 6 458 0 q 471 22 471 13 m 673 123 q 667 138 673 132 q 653 144 661 144 q 637 138 644 144 q 631 123 631 132 q 637 108 631 114 q 653 102 644 102 q 667 108 661 102 q 673 123 673 114 "},"":{"ha":694,"x_min":21,"x_max":673,"o":"m 429 355 l 428 358 l 354 562 q 347 569 352 569 q 340 564 344 569 l 260 358 l 260 356 q 266 350 260 350 q 272 354 271 350 l 304 435 l 386 435 l 415 354 q 422 350 417 350 q 429 355 429 350 m 280 94 l 279 97 l 205 301 q 199 308 203 308 q 193 302 195 308 l 111 97 l 111 95 q 118 89 111 89 q 125 93 123 89 l 155 174 l 237 174 l 267 93 q 273 89 269 89 q 280 94 280 89 m 578 94 l 578 197 q 575 201 578 199 q 571 203 573 203 l 468 203 l 468 293 l 571 293 q 577 300 577 293 q 571 307 577 307 l 461 307 q 456 304 458 307 q 454 300 454 302 l 454 197 q 461 191 454 191 l 564 191 l 564 102 l 461 102 q 455 95 455 102 q 461 87 455 87 l 571 87 q 575 90 573 87 q 578 94 578 92 m 319 293 l 427 293 q 434 300 434 293 q 427 307 434 307 l 313 307 q 308 304 309 307 q 306 300 306 302 l 306 94 q 313 88 306 88 q 319 94 319 88 l 319 191 l 403 191 q 408 193 406 191 q 409 197 409 195 q 403 203 409 203 l 319 203 l 319 293 m 347 542 l 382 447 l 310 447 l 347 542 m 199 281 l 233 186 l 161 186 l 199 281 m 370 632 q 363 648 370 642 q 347 654 357 654 q 331 648 338 654 q 325 632 325 642 q 331 616 325 623 q 347 610 338 610 q 363 616 357 610 q 370 632 370 623 m 572 632 q 566 648 572 642 q 550 654 559 654 q 535 648 542 654 q 529 632 529 642 q 535 616 529 623 q 550 610 542 610 q 566 616 559 610 q 572 632 572 623 m 165 632 q 159 648 165 642 q 144 654 153 654 q 129 648 135 654 q 122 632 122 642 q 129 616 122 623 q 144 610 135 610 q 159 616 153 610 q 165 632 165 623 m 370 22 q 363 37 370 31 q 347 43 357 43 q 331 37 338 43 q 325 22 325 31 q 331 6 325 13 q 347 0 338 0 q 363 6 357 0 q 370 22 370 13 m 471 632 q 465 648 471 642 q 449 654 458 654 q 434 648 440 654 q 428 632 428 642 q 434 616 428 623 q 449 610 440 610 q 465 616 458 610 q 471 632 471 623 m 267 632 q 260 648 267 642 q 245 654 254 654 q 230 648 236 654 q 224 632 224 642 q 230 616 224 623 q 245 610 236 610 q 260 616 254 610 q 267 632 267 623 m 673 632 q 667 648 673 642 q 653 654 661 654 q 637 648 644 654 q 631 632 631 642 q 637 616 631 623 q 653 610 644 610 q 667 616 661 610 q 673 632 673 623 m 673 225 q 667 241 673 235 q 653 248 661 248 q 637 241 644 248 q 631 225 631 235 q 637 210 631 216 q 653 203 644 203 q 667 210 661 203 q 673 225 673 216 m 64 225 q 57 241 64 235 q 41 248 51 248 q 27 241 33 248 q 21 225 21 235 q 27 210 21 216 q 41 203 33 203 q 57 210 51 203 q 64 225 64 216 m 64 632 q 57 648 64 642 q 41 654 51 654 q 27 648 33 654 q 21 632 21 642 q 27 616 21 623 q 41 610 33 610 q 57 616 51 610 q 64 632 64 623 m 64 429 q 57 444 64 437 q 41 450 51 450 q 27 444 33 450 q 21 429 21 437 q 27 413 21 420 q 41 407 33 407 q 57 413 51 407 q 64 429 64 420 m 673 429 q 667 444 673 437 q 653 450 661 450 q 637 444 644 450 q 631 429 631 437 q 637 413 631 420 q 653 407 644 407 q 667 413 661 407 q 673 429 673 420 m 572 22 q 566 37 572 31 q 550 43 559 43 q 535 37 542 43 q 529 22 529 31 q 535 6 529 13 q 550 0 542 0 q 566 6 559 0 q 572 22 572 13 m 165 22 q 159 37 165 31 q 144 43 153 43 q 129 37 135 43 q 122 22 122 31 q 129 6 122 13 q 144 0 135 0 q 159 6 153 0 q 165 22 165 13 m 673 22 q 667 37 673 31 q 653 43 661 43 q 637 37 644 43 q 631 22 631 31 q 637 6 631 13 q 653 0 644 0 q 667 6 661 0 q 673 22 673 13 m 64 326 q 57 342 64 336 q 41 349 51 349 q 27 342 33 349 q 21 326 21 336 q 27 312 21 318 q 41 306 33 306 q 57 312 51 306 q 64 326 64 318 m 673 326 q 667 342 673 336 q 653 349 661 349 q 637 342 644 349 q 631 326 631 336 q 637 312 631 318 q 653 306 644 306 q 667 312 661 306 q 673 326 673 318 m 64 22 q 57 37 64 31 q 41 43 51 43 q 27 37 33 43 q 21 22 21 31 q 27 6 21 13 q 41 0 33 0 q 57 6 51 0 q 64 22 64 13 m 64 123 q 57 138 64 132 q 41 144 51 144 q 27 138 33 144 q 21 123 21 132 q 27 108 21 114 q 41 102 33 102 q 57 108 51 102 q 64 123 64 114 m 673 123 q 667 138 673 132 q 653 144 661 144 q 637 138 644 144 q 631 123 631 132 q 637 108 631 114 q 653 102 644 102 q 667 108 661 102 q 673 123 673 114 m 471 22 q 465 37 471 31 q 449 43 458 43 q 434 37 440 43 q 428 22 428 31 q 434 6 428 13 q 449 0 440 0 q 465 6 458 0 q 471 22 471 13 m 267 22 q 260 37 267 31 q 245 43 254 43 q 230 37 236 43 q 224 22 224 31 q 230 6 224 13 q 245 0 236 0 q 260 6 254 0 q 267 22 267 13 m 64 530 q 57 545 64 539 q 41 551 51 551 q 27 545 33 551 q 21 530 21 539 q 27 515 21 521 q 41 509 33 509 q 57 515 51 509 q 64 530 64 521 m 673 530 q 667 545 673 539 q 653 551 661 551 q 637 545 644 551 q 631 530 631 539 q 637 515 631 521 q 653 509 644 509 q 667 515 661 509 q 673 530 673 521 "},"":{"ha":694,"x_min":21,"x_max":673,"o":"m 673 632 q 667 648 673 642 q 653 654 661 654 q 637 648 644 654 q 631 632 631 642 q 637 616 631 623 q 653 610 644 610 q 667 616 661 610 q 673 632 673 623 m 572 632 q 566 648 572 642 q 550 654 559 654 q 535 648 542 654 q 529 632 529 642 q 535 616 529 623 q 550 610 542 610 q 566 616 559 610 q 572 632 572 623 m 673 530 q 667 545 673 539 q 653 551 661 551 q 637 545 644 551 q 631 530 631 539 q 637 515 631 521 q 653 509 644 509 q 667 515 661 509 q 673 530 673 521 m 471 632 q 465 648 471 642 q 449 654 458 654 q 434 648 440 654 q 428 632 428 642 q 434 616 428 623 q 449 610 440 610 q 465 616 458 610 q 471 632 471 623 m 673 429 q 667 444 673 437 q 653 450 661 450 q 637 444 644 450 q 631 429 631 437 q 637 413 631 420 q 653 407 644 407 q 667 413 661 407 q 673 429 673 420 m 370 632 q 363 648 370 642 q 347 654 357 654 q 331 648 338 654 q 325 632 325 642 q 331 616 325 623 q 347 610 338 610 q 363 616 357 610 q 370 632 370 623 m 673 326 q 667 342 673 336 q 653 349 661 349 q 637 342 644 349 q 631 326 631 336 q 637 312 631 318 q 653 306 644 306 q 667 312 661 306 q 673 326 673 318 m 267 632 q 260 648 267 642 q 245 654 254 654 q 230 648 236 654 q 224 632 224 642 q 230 616 224 623 q 245 610 236 610 q 260 616 254 610 q 267 632 267 623 m 673 225 q 667 241 673 235 q 653 248 661 248 q 637 241 644 248 q 631 225 631 235 q 637 210 631 216 q 653 203 644 203 q 667 210 661 203 q 673 225 673 216 m 673 123 q 667 138 673 132 q 653 144 661 144 q 637 138 644 144 q 631 123 631 132 q 637 108 631 114 q 653 102 644 102 q 667 108 661 102 q 673 123 673 114 m 165 632 q 159 648 165 642 q 144 654 153 654 q 129 648 135 654 q 122 632 122 642 q 129 616 122 623 q 144 610 135 610 q 159 616 153 610 q 165 632 165 623 m 64 632 q 57 648 64 642 q 41 654 51 654 q 27 648 33 654 q 21 632 21 642 q 27 616 21 623 q 41 610 33 610 q 57 616 51 610 q 64 632 64 623 m 673 22 q 667 37 673 31 q 653 43 661 43 q 637 37 644 43 q 631 22 631 31 q 637 6 631 13 q 653 0 644 0 q 667 6 661 0 q 673 22 673 13 m 64 530 q 57 545 64 539 q 41 551 51 551 q 27 545 33 551 q 21 530 21 539 q 27 515 21 521 q 41 509 33 509 q 57 515 51 509 q 64 530 64 521 m 572 22 q 566 37 572 31 q 550 43 559 43 q 535 37 542 43 q 529 22 529 31 q 535 6 529 13 q 550 0 542 0 q 566 6 559 0 q 572 22 572 13 m 64 429 q 57 444 64 437 q 41 450 51 450 q 27 444 33 450 q 21 429 21 437 q 27 413 21 420 q 41 407 33 407 q 57 413 51 407 q 64 429 64 420 m 471 22 q 465 37 471 31 q 449 43 458 43 q 434 37 440 43 q 428 22 428 31 q 434 6 428 13 q 449 0 440 0 q 465 6 458 0 q 471 22 471 13 m 64 326 q 57 342 64 336 q 41 349 51 349 q 27 342 33 349 q 21 326 21 336 q 27 312 21 318 q 41 306 33 306 q 57 312 51 306 q 64 326 64 318 m 370 22 q 363 37 370 31 q 347 43 357 43 q 331 37 338 43 q 325 22 325 31 q 331 6 325 13 q 347 0 338 0 q 363 6 357 0 q 370 22 370 13 m 64 225 q 57 241 64 235 q 41 248 51 248 q 27 241 33 248 q 21 225 21 235 q 27 210 21 216 q 41 203 33 203 q 57 210 51 203 q 64 225 64 216 m 267 22 q 260 37 267 31 q 245 43 254 43 q 230 37 236 43 q 224 22 224 31 q 230 6 224 13 q 245 0 236 0 q 260 6 254 0 q 267 22 267 13 m 64 123 q 57 138 64 132 q 41 144 51 144 q 27 138 33 144 q 21 123 21 132 q 27 108 21 114 q 41 102 33 102 q 57 108 51 102 q 64 123 64 114 m 165 22 q 159 37 165 31 q 144 43 153 43 q 129 37 135 43 q 122 22 122 31 q 129 6 122 13 q 144 0 135 0 q 159 6 153 0 q 165 22 165 13 m 64 22 q 57 37 64 31 q 41 43 51 43 q 27 37 33 43 q 21 22 21 31 q 27 6 21 13 q 41 0 33 0 q 57 6 51 0 q 64 22 64 13 m 273 218 l 166 218 l 166 416 q 159 422 166 422 q 153 416 153 422 l 153 211 q 154 206 153 209 q 159 203 156 203 l 273 203 q 281 210 281 203 q 273 218 281 218 m 456 203 l 526 203 q 533 211 533 203 q 526 218 533 218 l 498 218 l 498 409 l 526 409 q 533 416 533 409 q 526 423 533 423 l 456 423 q 449 416 449 423 q 456 409 449 409 l 484 409 l 484 218 l 456 218 q 449 211 449 218 q 456 203 449 203 m 321 212 l 321 304 l 361 304 l 410 207 q 416 203 411 203 q 422 210 422 203 q 422 213 422 212 l 375 307 q 409 330 397 313 q 420 364 420 346 q 404 405 420 387 q 353 423 387 423 l 315 423 q 308 416 309 423 l 308 211 q 315 204 309 204 q 321 212 320 204 m 321 318 l 321 410 l 351 410 q 393 395 379 410 q 408 363 408 381 q 393 332 408 346 q 351 318 379 318 l 321 318 "},"":{"ha":694,"x_min":21,"x_max":673,"o":"m 673 632 q 667 648 673 642 q 653 654 661 654 q 637 648 644 654 q 631 632 631 642 q 637 616 631 623 q 653 610 644 610 q 667 616 661 610 q 673 632 673 623 m 572 632 q 566 648 572 642 q 550 654 559 654 q 535 648 542 654 q 529 632 529 642 q 535 616 529 623 q 550 610 542 610 q 566 616 559 610 q 572 632 572 623 m 673 530 q 667 545 673 539 q 653 551 661 551 q 637 545 644 551 q 631 530 631 539 q 637 515 631 521 q 653 509 644 509 q 667 515 661 509 q 673 530 673 521 m 471 632 q 465 648 471 642 q 449 654 458 654 q 434 648 440 654 q 428 632 428 642 q 434 616 428 623 q 449 610 440 610 q 465 616 458 610 q 471 632 471 623 m 673 429 q 667 444 673 437 q 653 450 661 450 q 637 444 644 450 q 631 429 631 437 q 637 413 631 420 q 653 407 644 407 q 667 413 661 407 q 673 429 673 420 m 370 632 q 363 648 370 642 q 347 654 357 654 q 331 648 338 654 q 325 632 325 642 q 331 616 325 623 q 347 610 338 610 q 363 616 357 610 q 370 632 370 623 m 673 326 q 667 342 673 336 q 653 349 661 349 q 637 342 644 349 q 631 326 631 336 q 637 312 631 318 q 653 306 644 306 q 667 312 661 306 q 673 326 673 318 m 267 632 q 260 648 267 642 q 245 654 254 654 q 230 648 236 654 q 224 632 224 642 q 230 616 224 623 q 245 610 236 610 q 260 616 254 610 q 267 632 267 623 m 673 225 q 667 241 673 235 q 653 248 661 248 q 637 241 644 248 q 631 225 631 235 q 637 210 631 216 q 653 203 644 203 q 667 210 661 203 q 673 225 673 216 m 673 123 q 667 138 673 132 q 653 144 661 144 q 637 138 644 144 q 631 123 631 132 q 637 108 631 114 q 653 102 644 102 q 667 108 661 102 q 673 123 673 114 m 165 632 q 159 648 165 642 q 144 654 153 654 q 129 648 135 654 q 122 632 122 642 q 129 616 122 623 q 144 610 135 610 q 159 616 153 610 q 165 632 165 623 m 64 632 q 57 648 64 642 q 41 654 51 654 q 27 648 33 654 q 21 632 21 642 q 27 616 21 623 q 41 610 33 610 q 57 616 51 610 q 64 632 64 623 m 673 22 q 667 37 673 31 q 653 43 661 43 q 637 37 644 43 q 631 22 631 31 q 637 6 631 13 q 653 0 644 0 q 667 6 661 0 q 673 22 673 13 m 64 530 q 57 545 64 539 q 41 551 51 551 q 27 545 33 551 q 21 530 21 539 q 27 515 21 521 q 41 509 33 509 q 57 515 51 509 q 64 530 64 521 m 572 22 q 566 37 572 31 q 550 43 559 43 q 535 37 542 43 q 529 22 529 31 q 535 6 529 13 q 550 0 542 0 q 566 6 559 0 q 572 22 572 13 m 64 429 q 57 444 64 437 q 41 450 51 450 q 27 444 33 450 q 21 429 21 437 q 27 413 21 420 q 41 407 33 407 q 57 413 51 407 q 64 429 64 420 m 471 22 q 465 37 471 31 q 449 43 458 43 q 434 37 440 43 q 428 22 428 31 q 434 6 428 13 q 449 0 440 0 q 465 6 458 0 q 471 22 471 13 m 64 326 q 57 342 64 336 q 41 349 51 349 q 27 342 33 349 q 21 326 21 336 q 27 312 21 318 q 41 306 33 306 q 57 312 51 306 q 64 326 64 318 m 370 22 q 363 37 370 31 q 347 43 357 43 q 331 37 338 43 q 325 22 325 31 q 331 6 325 13 q 347 0 338 0 q 363 6 357 0 q 370 22 370 13 m 64 225 q 57 241 64 235 q 41 248 51 248 q 27 241 33 248 q 21 225 21 235 q 27 210 21 216 q 41 203 33 203 q 57 210 51 203 q 64 225 64 216 m 267 22 q 260 37 267 31 q 245 43 254 43 q 230 37 236 43 q 224 22 224 31 q 230 6 224 13 q 245 0 236 0 q 260 6 254 0 q 267 22 267 13 m 64 123 q 57 138 64 132 q 41 144 51 144 q 27 138 33 144 q 21 123 21 132 q 27 108 21 114 q 41 102 33 102 q 57 108 51 102 q 64 123 64 114 m 165 22 q 159 37 165 31 q 144 43 153 43 q 129 37 135 43 q 122 22 122 31 q 129 6 122 13 q 144 0 135 0 q 159 6 153 0 q 165 22 165 13 m 64 22 q 57 37 64 31 q 41 43 51 43 q 27 37 33 43 q 21 22 21 31 q 27 6 21 13 q 41 0 33 0 q 57 6 51 0 q 64 22 64 13 m 416 218 l 309 218 l 309 416 q 302 422 309 422 q 295 416 295 422 l 295 211 q 297 206 295 209 q 302 203 298 203 l 416 203 q 423 210 423 203 q 416 218 423 218 m 456 203 l 526 203 q 533 211 533 203 q 526 218 533 218 l 498 218 l 498 409 l 526 409 q 533 416 533 409 q 526 423 533 423 l 456 423 q 449 416 449 423 q 456 409 449 409 l 484 409 l 484 218 l 456 218 q 449 211 449 218 q 456 203 449 203 m 166 212 l 166 304 l 206 304 l 254 207 q 260 203 256 203 q 267 210 267 203 q 267 213 267 212 l 220 307 q 254 330 242 313 q 265 364 265 346 q 248 405 265 387 q 197 423 231 423 l 160 423 q 153 416 153 423 l 153 211 q 159 204 154 204 q 166 212 165 204 m 166 318 l 166 410 l 195 410 q 238 395 224 410 q 252 363 252 381 q 238 332 252 346 q 195 318 224 318 l 166 318 "},"":{"ha":694,"x_min":21,"x_max":673,"o":"m 673 632 q 667 648 673 642 q 653 654 661 654 q 637 648 644 654 q 631 632 631 642 q 637 616 631 623 q 653 610 644 610 q 667 616 661 610 q 673 632 673 623 m 572 632 q 566 648 572 642 q 550 654 559 654 q 535 648 542 654 q 529 632 529 642 q 535 616 529 623 q 550 610 542 610 q 566 616 559 610 q 572 632 572 623 m 673 530 q 667 545 673 539 q 653 551 661 551 q 637 545 644 551 q 631 530 631 539 q 637 515 631 521 q 653 509 644 509 q 667 515 661 509 q 673 530 673 521 m 471 632 q 465 648 471 642 q 449 654 458 654 q 434 648 440 654 q 428 632 428 642 q 434 616 428 623 q 449 610 440 610 q 465 616 458 610 q 471 632 471 623 m 673 429 q 667 444 673 437 q 653 450 661 450 q 637 444 644 450 q 631 429 631 437 q 637 413 631 420 q 653 407 644 407 q 667 413 661 407 q 673 429 673 420 m 370 632 q 363 648 370 642 q 347 654 357 654 q 331 648 338 654 q 325 632 325 642 q 331 616 325 623 q 347 610 338 610 q 363 616 357 610 q 370 632 370 623 m 673 326 q 667 342 673 336 q 653 349 661 349 q 637 342 644 349 q 631 326 631 336 q 637 312 631 318 q 653 306 644 306 q 667 312 661 306 q 673 326 673 318 m 267 632 q 260 648 267 642 q 245 654 254 654 q 230 648 236 654 q 224 632 224 642 q 230 616 224 623 q 245 610 236 610 q 260 616 254 610 q 267 632 267 623 m 673 225 q 667 241 673 235 q 653 248 661 248 q 637 241 644 248 q 631 225 631 235 q 637 210 631 216 q 653 203 644 203 q 667 210 661 203 q 673 225 673 216 m 673 123 q 667 138 673 132 q 653 144 661 144 q 637 138 644 144 q 631 123 631 132 q 637 108 631 114 q 653 102 644 102 q 667 108 661 102 q 673 123 673 114 m 165 632 q 159 648 165 642 q 144 654 153 654 q 129 648 135 654 q 122 632 122 642 q 129 616 122 623 q 144 610 135 610 q 159 616 153 610 q 165 632 165 623 m 64 632 q 57 648 64 642 q 41 654 51 654 q 27 648 33 654 q 21 632 21 642 q 27 616 21 623 q 41 610 33 610 q 57 616 51 610 q 64 632 64 623 m 673 22 q 667 37 673 31 q 653 43 661 43 q 637 37 644 43 q 631 22 631 31 q 637 6 631 13 q 653 0 644 0 q 667 6 661 0 q 673 22 673 13 m 64 530 q 57 545 64 539 q 41 551 51 551 q 27 545 33 551 q 21 530 21 539 q 27 515 21 521 q 41 509 33 509 q 57 515 51 509 q 64 530 64 521 m 572 22 q 566 37 572 31 q 550 43 559 43 q 535 37 542 43 q 529 22 529 31 q 535 6 529 13 q 550 0 542 0 q 566 6 559 0 q 572 22 572 13 m 64 429 q 57 444 64 437 q 41 450 51 450 q 27 444 33 450 q 21 429 21 437 q 27 413 21 420 q 41 407 33 407 q 57 413 51 407 q 64 429 64 420 m 471 22 q 465 37 471 31 q 449 43 458 43 q 434 37 440 43 q 428 22 428 31 q 434 6 428 13 q 449 0 440 0 q 465 6 458 0 q 471 22 471 13 m 64 326 q 57 342 64 336 q 41 349 51 349 q 27 342 33 349 q 21 326 21 336 q 27 312 21 318 q 41 306 33 306 q 57 312 51 306 q 64 326 64 318 m 370 22 q 363 37 370 31 q 347 43 357 43 q 331 37 338 43 q 325 22 325 31 q 331 6 325 13 q 347 0 338 0 q 363 6 357 0 q 370 22 370 13 m 64 225 q 57 241 64 235 q 41 248 51 248 q 27 241 33 248 q 21 225 21 235 q 27 210 21 216 q 41 203 33 203 q 57 210 51 203 q 64 225 64 216 m 267 22 q 260 37 267 31 q 245 43 254 43 q 230 37 236 43 q 224 22 224 31 q 230 6 224 13 q 245 0 236 0 q 260 6 254 0 q 267 22 267 13 m 64 123 q 57 138 64 132 q 41 144 51 144 q 27 138 33 144 q 21 123 21 132 q 27 108 21 114 q 41 102 33 102 q 57 108 51 102 q 64 123 64 114 m 165 22 q 159 37 165 31 q 144 43 153 43 q 129 37 135 43 q 122 22 122 31 q 129 6 122 13 q 144 0 135 0 q 159 6 153 0 q 165 22 165 13 m 64 22 q 57 37 64 31 q 41 43 51 43 q 27 37 33 43 q 21 22 21 31 q 27 6 21 13 q 41 0 33 0 q 57 6 51 0 q 64 22 64 13 m 172 409 l 279 409 q 286 416 286 409 q 279 423 286 423 l 165 423 q 160 420 161 423 q 158 416 158 418 l 158 210 q 165 204 158 204 q 172 210 172 204 l 172 307 l 255 307 q 260 309 258 307 q 261 313 261 311 q 255 319 261 319 l 172 319 l 172 409 m 430 210 l 430 313 q 428 317 430 315 q 423 319 425 319 l 320 319 l 320 409 l 423 409 q 429 416 429 409 q 423 423 429 423 l 313 423 q 308 420 310 423 q 307 416 307 418 l 307 313 q 313 307 307 307 l 416 307 l 416 218 l 313 218 q 307 211 307 218 q 313 203 307 203 l 423 203 q 428 206 425 203 q 430 210 430 208 m 464 203 l 533 203 q 541 211 541 203 q 533 218 541 218 l 505 218 l 505 409 l 533 409 q 541 416 541 409 q 533 423 541 423 l 464 423 q 456 416 456 423 q 464 409 456 409 l 492 409 l 492 218 l 464 218 q 456 211 456 218 q 464 203 456 203 "},"":{"ha":694,"x_min":21,"x_max":673,"o":"m 673 632 q 667 648 673 642 q 653 654 661 654 q 637 648 644 654 q 631 632 631 642 q 637 616 631 623 q 653 610 644 610 q 667 616 661 610 q 673 632 673 623 m 572 632 q 566 648 572 642 q 550 654 559 654 q 535 648 542 654 q 529 632 529 642 q 535 616 529 623 q 550 610 542 610 q 566 616 559 610 q 572 632 572 623 m 673 530 q 667 545 673 539 q 653 551 661 551 q 637 545 644 551 q 631 530 631 539 q 637 515 631 521 q 653 509 644 509 q 667 515 661 509 q 673 530 673 521 m 471 632 q 465 648 471 642 q 449 654 458 654 q 434 648 440 654 q 428 632 428 642 q 434 616 428 623 q 449 610 440 610 q 465 616 458 610 q 471 632 471 623 m 673 429 q 667 444 673 437 q 653 450 661 450 q 637 444 644 450 q 631 429 631 437 q 637 413 631 420 q 653 407 644 407 q 667 413 661 407 q 673 429 673 420 m 370 632 q 363 648 370 642 q 347 654 357 654 q 331 648 338 654 q 325 632 325 642 q 331 616 325 623 q 347 610 338 610 q 363 616 357 610 q 370 632 370 623 m 673 326 q 667 342 673 336 q 653 349 661 349 q 637 342 644 349 q 631 326 631 336 q 637 312 631 318 q 653 306 644 306 q 667 312 661 306 q 673 326 673 318 m 267 632 q 260 648 267 642 q 245 654 254 654 q 230 648 236 654 q 224 632 224 642 q 230 616 224 623 q 245 610 236 610 q 260 616 254 610 q 267 632 267 623 m 673 225 q 667 241 673 235 q 653 248 661 248 q 637 241 644 248 q 631 225 631 235 q 637 210 631 216 q 653 203 644 203 q 667 210 661 203 q 673 225 673 216 m 673 123 q 667 138 673 132 q 653 144 661 144 q 637 138 644 144 q 631 123 631 132 q 637 108 631 114 q 653 102 644 102 q 667 108 661 102 q 673 123 673 114 m 165 632 q 159 648 165 642 q 144 654 153 654 q 129 648 135 654 q 122 632 122 642 q 129 616 122 623 q 144 610 135 610 q 159 616 153 610 q 165 632 165 623 m 64 632 q 57 648 64 642 q 41 654 51 654 q 27 648 33 654 q 21 632 21 642 q 27 616 21 623 q 41 610 33 610 q 57 616 51 610 q 64 632 64 623 m 673 22 q 667 37 673 31 q 653 43 661 43 q 637 37 644 43 q 631 22 631 31 q 637 6 631 13 q 653 0 644 0 q 667 6 661 0 q 673 22 673 13 m 64 530 q 57 545 64 539 q 41 551 51 551 q 27 545 33 551 q 21 530 21 539 q 27 515 21 521 q 41 509 33 509 q 57 515 51 509 q 64 530 64 521 m 572 22 q 566 37 572 31 q 550 43 559 43 q 535 37 542 43 q 529 22 529 31 q 535 6 529 13 q 550 0 542 0 q 566 6 559 0 q 572 22 572 13 m 64 429 q 57 444 64 437 q 41 450 51 450 q 27 444 33 450 q 21 429 21 437 q 27 413 21 420 q 41 407 33 407 q 57 413 51 407 q 64 429 64 420 m 471 22 q 465 37 471 31 q 449 43 458 43 q 434 37 440 43 q 428 22 428 31 q 434 6 428 13 q 449 0 440 0 q 465 6 458 0 q 471 22 471 13 m 64 326 q 57 342 64 336 q 41 349 51 349 q 27 342 33 349 q 21 326 21 336 q 27 312 21 318 q 41 306 33 306 q 57 312 51 306 q 64 326 64 318 m 370 22 q 363 37 370 31 q 347 43 357 43 q 331 37 338 43 q 325 22 325 31 q 331 6 325 13 q 347 0 338 0 q 363 6 357 0 q 370 22 370 13 m 64 225 q 57 241 64 235 q 41 248 51 248 q 27 241 33 248 q 21 225 21 235 q 27 210 21 216 q 41 203 33 203 q 57 210 51 203 q 64 225 64 216 m 267 22 q 260 37 267 31 q 245 43 254 43 q 230 37 236 43 q 224 22 224 31 q 230 6 224 13 q 245 0 236 0 q 260 6 254 0 q 267 22 267 13 m 64 123 q 57 138 64 132 q 41 144 51 144 q 27 138 33 144 q 21 123 21 132 q 27 108 21 114 q 41 102 33 102 q 57 108 51 102 q 64 123 64 114 m 165 22 q 159 37 165 31 q 144 43 153 43 q 129 37 135 43 q 122 22 122 31 q 129 6 122 13 q 144 0 135 0 q 159 6 153 0 q 165 22 165 13 m 64 22 q 57 37 64 31 q 41 43 51 43 q 27 37 33 43 q 21 22 21 31 q 27 6 21 13 q 41 0 33 0 q 57 6 51 0 q 64 22 64 13 m 452 203 l 521 203 q 528 211 528 203 q 521 218 528 218 l 493 218 l 493 409 l 521 409 q 528 416 528 409 q 521 423 528 423 l 452 423 q 444 416 444 423 q 452 409 444 409 l 479 409 l 479 218 l 452 218 q 444 211 444 218 q 452 203 444 203 m 178 212 l 178 304 l 210 304 q 260 323 243 304 q 277 364 277 342 q 260 405 277 387 q 210 423 243 423 l 172 423 q 165 416 165 423 l 165 211 q 172 204 166 204 q 178 212 177 204 m 178 318 l 178 410 l 208 410 q 250 395 236 410 q 264 363 264 381 q 250 332 264 346 q 208 318 236 318 l 178 318 m 304 416 l 304 203 l 349 203 q 400 222 383 203 q 417 263 417 241 l 417 364 q 400 405 417 387 q 349 423 383 423 l 312 423 q 304 416 305 423 m 318 217 l 318 410 l 347 410 q 390 395 376 410 q 404 363 404 381 l 404 262 q 390 231 404 245 q 347 217 376 217 l 318 217 "},"":{"ha":621,"x_min":25,"x_max":591,"o":"m 25 265 l 591 265 l 591 309 l 25 309 l 25 265 "},"":{"ha":694,"x_min":46,"x_max":648,"o":"m 567 545 q 561 561 567 554 q 545 567 554 567 q 530 561 536 567 q 524 545 524 554 q 530 530 524 536 q 545 524 536 524 q 561 530 554 524 q 567 545 567 536 m 476 606 q 470 620 476 614 q 454 627 464 627 q 438 620 445 627 q 432 606 432 614 q 438 590 432 596 q 454 583 445 583 q 469 590 463 583 q 476 606 476 596 m 627 454 q 620 470 627 464 q 606 476 614 476 q 590 469 596 476 q 583 454 583 463 q 590 438 583 445 q 606 432 596 432 q 620 438 614 432 q 627 454 627 445 m 370 627 q 363 642 370 636 q 347 648 357 648 q 331 642 338 648 q 325 627 325 636 q 331 612 325 618 q 347 606 338 606 q 363 612 357 606 q 370 627 370 618 m 648 347 q 642 363 648 357 q 627 370 636 370 q 612 363 618 370 q 606 347 606 357 q 612 331 606 338 q 627 325 618 325 q 642 331 636 325 q 648 347 648 338 m 262 606 q 256 620 262 614 q 240 627 250 627 q 224 620 231 627 q 218 606 218 614 q 225 590 218 596 q 240 583 232 583 q 256 590 250 583 q 262 606 262 596 m 627 240 q 620 256 627 250 q 606 262 614 262 q 590 256 596 262 q 583 240 583 250 q 590 225 583 232 q 606 218 596 218 q 620 224 614 218 q 627 240 627 231 m 171 545 q 165 561 171 554 q 150 567 159 567 q 134 561 140 567 q 127 545 127 554 q 134 530 127 536 q 150 524 140 524 q 165 530 159 524 q 171 545 171 536 m 567 150 q 561 165 567 159 q 545 171 554 171 q 530 165 536 171 q 524 150 524 159 q 530 134 524 140 q 545 127 536 127 q 561 134 554 127 q 567 150 567 140 m 111 454 q 105 469 111 463 q 89 476 98 476 q 74 470 81 476 q 68 454 68 464 q 74 438 68 445 q 89 432 81 432 q 105 438 98 432 q 111 454 111 445 m 476 89 q 469 105 476 98 q 454 111 463 111 q 438 105 445 111 q 432 89 432 98 q 438 74 432 81 q 454 68 445 68 q 470 74 464 68 q 476 89 476 81 m 89 347 q 83 363 89 357 q 68 370 77 370 q 52 363 58 370 q 46 347 46 357 q 52 331 46 338 q 68 325 58 325 q 83 331 77 325 q 89 347 89 338 m 370 68 q 363 83 370 77 q 347 89 357 89 q 331 83 338 89 q 325 68 325 77 q 331 52 325 58 q 347 46 338 46 q 363 52 357 46 q 370 68 370 58 m 111 240 q 105 256 111 250 q 89 262 98 262 q 74 256 81 262 q 68 240 68 250 q 74 224 68 231 q 89 218 81 218 q 105 225 98 218 q 111 240 111 232 m 262 89 q 256 105 262 98 q 240 111 250 111 q 225 105 232 111 q 218 89 218 98 q 224 74 218 81 q 240 68 231 68 q 256 74 250 68 q 262 89 262 81 m 171 150 q 165 165 171 159 q 150 171 159 171 q 134 165 140 171 q 127 150 127 159 q 134 134 127 140 q 150 127 140 127 q 165 134 159 127 q 171 150 171 140 "},"":{"ha":231,"x_min":31,"x_max":231,"o":"m 204 -200 l 231 -200 l 231 0 l 31 0 l 31 -26 l 204 -26 l 204 -200 "},"":{"ha":231,"x_min":0,"x_max":200,"o":"m 26 -26 l 200 -26 l 200 0 l 0 0 l 0 -200 l 26 -200 l 26 -26 "},"":{"ha":0,"x_min":0,"x_max":0,"o":""},"":{"ha":201,"x_min":-117,"x_max":347,"o":"m 147 161 l 147 161 l 102 578 l 102 616 q 101 630 102 622 q 99 647 100 639 q 97 662 98 655 q 94 671 96 669 q 83 654 90 669 q 70 619 77 640 q 59 577 64 599 q 54 539 54 555 q 58 497 54 530 q 68 420 62 465 q 81 323 75 375 q 94 224 88 272 q 104 137 100 176 q 109 79 109 98 q 104 30 109 49 q 100 7 100 10 q 111 -4 100 -4 q 118 7 114 -4 q 126 34 122 18 q 134 70 130 50 q 141 109 138 90 q 145 141 144 127 q 147 161 147 156 m 347 841 q 333 858 347 858 q 311 852 328 858 q 266 840 295 846 q 194 828 237 833 q 93 822 151 822 q 51 823 72 822 q 11 826 29 825 q -23 829 -8 827 q -46 830 -38 830 q -70 828 -57 830 q -93 820 -82 826 q -110 804 -103 814 q -117 777 -117 793 q -113 757 -117 769 q -102 733 -109 745 q -86 714 -95 722 q -68 707 -77 707 q -59 714 -61 707 q -55 730 -56 722 q -52 746 -54 739 q -43 753 -50 753 q 2 751 -20 752 q 44 749 22 749 q 83 748 66 748 q 126 752 100 748 q 182 764 153 757 q 241 781 212 771 q 294 800 270 790 q 332 821 317 810 q 347 841 347 831 "},"":{"ha":201,"x_min":7,"x_max":195,"o":"m 147 161 l 147 161 l 102 578 l 102 616 q 101 630 102 622 q 99 647 100 639 q 97 662 98 655 q 94 671 96 669 q 83 654 90 669 q 70 619 77 640 q 59 577 64 599 q 54 539 54 555 q 58 497 54 530 q 68 420 62 465 q 81 323 75 375 q 94 224 88 272 q 104 137 100 176 q 109 79 109 98 q 104 30 109 49 q 100 7 100 10 q 111 -4 100 -4 q 118 7 114 -4 q 126 34 122 18 q 134 70 130 50 q 141 109 138 90 q 145 141 144 127 q 147 161 147 156 m 195 840 q 193 843 195 842 q 191 843 192 843 q 182 841 189 842 q 168 838 176 840 q 150 834 159 836 q 132 830 140 832 q 110 836 122 831 q 86 847 97 841 q 67 860 75 854 q 60 867 60 865 q 70 883 60 875 q 92 891 81 891 q 106 889 98 891 q 120 884 113 886 q 132 879 127 881 q 140 876 138 876 q 145 881 142 876 q 152 892 149 886 q 157 906 155 899 q 159 916 159 913 q 152 942 159 930 q 130 954 144 954 q 117 953 123 954 q 103 949 111 952 q 87 939 96 946 q 64 919 77 932 q 48 901 56 911 q 34 882 41 892 q 24 862 28 872 q 20 844 20 852 q 24 827 20 835 q 33 814 28 820 q 45 805 39 808 q 57 800 52 801 q 50 796 54 798 q 40 791 45 794 q 30 785 35 788 q 24 780 26 782 q 20 773 22 778 q 14 762 17 768 q 9 752 12 757 q 7 744 7 747 q 13 739 7 739 q 34 746 18 739 q 83 766 50 753 q 111 777 97 771 q 136 786 124 782 q 156 794 147 791 q 168 798 164 797 q 179 806 174 800 q 188 819 184 812 q 193 831 191 825 q 195 840 195 838 "}}}
